<svg version="1" xmlns="http://www.w3.org/2000/svg" width="1440" height="1440" viewBox="0 0 1080.000000 1080.000000"><path d="M0 19.7v19.8l29.2-.3c28.5-.3 37.8-1.1 33.3-2.7-2.2-.7-4.4-1.6-8.8-3.4-1.6-.6-8.9-1.1-17-1.2-15.5 0-32.5-1.8-32.7-3.4-.2-1.6 3.2-3.2 3.7-1.7.7 2 2.3.3 2.3-2.4 0-4.5 1.7-6.2 7.3-7.4 8.1-1.6 37.2-3.6 45.2-3 7.6.6 18.6-.4 22.4-2.1l2.4-1-2.1-1.5c-2.4-1.7-1.9-4.4.9-4.4 1.2 0 2.1 1 2.6 2.7 1.3 4.5.9 35.8-.6 50.3-1.8 17.2-1.9 18.7-2.5 41.2-.3 11.2-.9 19.6-1.6 20.9-1.1 1.9-1.6 2-5.8 1.3-2.6-.5-9.7-.8-15.9-.8-13.2.1-14.1.5-21 9.9-4.3 5.8-7.3 8.1-7.3 5.5 0-1 6-8.3 7.3-8.8.4-.2.7-1.5.7-2.8v-2.5l-9.6.3c-12.2.4-13.2 1.4-8.6 8.4 3.4 5.3 3.4 6.3-.1 4.7-1.2-.6-3-1.4-4-1.7-.9-.3-2-1.4-2.3-2.3-2.7-7.8-3.8-9.3-7.8-10.3-2.3-.6-5.1-1.5-6.4-2-1.3-.6-2.5-1-2.7-1-.3 0-.5 3-.5 6.6 0 6.3.1 6.5 2.3 5.8 1.2-.4 3.1-1.3 4.2-2 2.9-2 5.1-1.9 3 .2-2.8 2.8-1.4 4.8 4 5.8 2.8.4 6.4 1.4 8 2.1 1.7.7 4.3 1.7 6 2.2 2.2.6 3.1 1.6 3.5 3.8l.5 3 12-.1c6.6-.1 17.7-.5 24.8-.9 16.3-.9 16.2-1.1 15.4 10.7-.4 5.5-1.3 10.4-2.6 13.3-1.9 4.4-2 4.9-.5 7.8C82.7 180.4 92 190 94 190c.8 0 2.9.9 4.7 1.9 6.2 3.8 13.3 4.2 69.2 4 29.5-.1 75.4.3 102.1.9 26.9.5 49.4.6 50.7.1 1.2-.4 2.9-2.1 3.7-3.6.8-1.5 2.4-3.8 3.5-5 2-2.1 4.1-6.4 4.1-8.3 0-.6-31.7-.7-79.7-.4-43.9.3-81.1.6-82.8.5-24.8-.5-76.2.2-77.2 1.1-2.1 1.7-4.3.1-4.3-3.2 0-2.6.4-3 2.8-3.1 1.5-.1 3.8-.4 5.2-.6 4.5-.8 226.3-.7 231.3.1 3.1.5 4.7 1.2 4.7 2.2 0 .8.3 1.4.6 1.4 1.3 0 16.3-12.3 20.5-16.8 3.4-3.7 5.2-4.9 6.7-4.5 1.7.4 5.9-1.7 19.2-9.7.8-.5 6.3-3 12.2-5.5 21-8.9 30.5-14.6 45.3-27 8.4-7.1 11.9-9.5 20.5-14.5 7.2-4.1 15.5-9.5 24.7-16 6.6-4.6 9.6-5.9 19.6-8.5 11.9-3.1 18.4-5.1 22.7-7.2 8.3-3.8 20.3-11.8 23.2-15.4 4.5-5.6 6.3-6.5 17.9-8.8 5.7-1.1 12.4-2.5 14.9-3 8.5-1.8 10.5-2.1 22.3-3.1 11.2-.9 12.2-1.1 17.3-4.5 4.8-3.2 5.4-4 5.4-7.1 0-3.5 0-3.5 4.3-3.3 2.3.1 5.1-.1 6.2-.4 1.1-.4 11.1-1.6 22.3-2.7 14.6-1.4 21.1-2.5 23.4-3.7 7.9-4.6 7.6-4.5 11.6-3.2 2 .7 5.5 2 7.7 2.9 5 2.1 27 9.4 35 11.6 4.9 1.4 6.9 2.6 11 7 2.8 2.9 6.3 5.8 7.8 6.3 3.1 1.2 28 1.4 34.2.3 2.9-.6-1.3-1.1-14.9-1.9-10.3-.7-19-1.4-19.2-1.6-.5-.5 2.2-16.3 3.5-20.7.4-1.4 1.5-2.6 2.4-2.8 1.6-.3 2.3 1.8 3.1 9.3.2 1.6.4 3.2.5 3.4 0 .2 1-.8 2.2-2.3 2-2.5 6.2-4.8 12.1-6.6 2-.6 3-.4 4 .7 1.1 1.3 4.7 1.5 27 1.1 14.2-.2 25.8-.1 25.8.4 0 .4-.7.8-1.5.8s-1.5.6-1.5 1.4c0 .8-.3 2.3-.7 3.3-.4 1.1.3.7 1.6-1 1.7-2.1 3.1-2.7 6-2.7 8.9 0 12.4 7.9 12.3 27.8-.1 6.9-.4 13.8-.7 15.4-.8 3.3-2.6 3.5-15 1.2-4.4-.8-12.3-1.9-17.5-2.5-5.2-.6-9.8-1.4-10.3-1.8-.4-.4-.1-2.7.8-5.1.8-2.4 1.3-4.5 1-4.8-.7-.7-7.2 6.5-9.1 10-1.2 2.4-1.8 2.6-5.1 2.1l-3.8-.6 3.1 2.6c1.8 1.5 3.5 2.7 3.8 2.7.4 0 2.3 1 4.4 2.3 2 1.2 5.5 2.8 7.7 3.6 6.7 2.2 14.2 6.1 16.2 8.4 2.6 3 5.3 7.4 5.3 8.7 0 .6 1.4 4 3 7.5 3 6.3 4.3 7.4 8.5 6.5.5-.1 2.2-.3 3.8-.5 5.1-.7 5.6-1.7 5.5-13.3 0-7.4.5-11.8 1.5-14.3 1.2-2.7 1.3-4.5.6-7.7-.5-2.4-.7-5.3-.4-6.5.3-1.2.9-11 1.4-21.7.6-13.1 1.4-21 2.5-24 .9-2.5 1.6-6.2 1.6-8.3 0-3.4.4-4 3.8-5.4 2-.8 7.1-2.1 11.2-2.8C881.8.3 879.7.2 851.5.3c-25 0-28.2.2-16.5.7 19.2.9 19.9 1.1 18.4 6.7-.6 2.2-.9 2.3-15.8 2.2-21.6-.1-72.6 1-75.7 1.6-1.4.3-3.7.2-5.1-.4-1.6-.6-4.7-.5-9.2.4-5.2.9-9.9 1-20 .2-7.2-.6-15-1-17.3-.9-4.5.1-5.8-1.2-2.2-2.3 2-.7 2-.7-.2-2.6-1.2-1-1.9-2.2-1.5-2.6.4-.4 21.2-1 46.2-1.4 25-.3 45.7-.9 46.1-1.2.3-.4-59.5-.7-133-.7C533.5 0 532 0 532 2c0 1.4-1.2 2.3-4.8 3.3-5.6 1.7-17 7.3-22.7 11.3-3.7 2.5-18.5 12.3-23 15.2-1.1.6-4.2 2.3-7 3.7-18.3 9-20.9 11.6-36.1 36.8-6.9 11.5-17.9 23.8-29.5 32.7-13.7 10.8-22.9 18.7-33.1 28.6-5.3 5.2-10 9.4-10.5 9.4-.4 0-6 5.4-12.3 12.1l-11.6 12.1-56.4-.1c-31.1-.1-80.6-.4-110-.6-29.4-.3-60.7-.2-69.5.3-8.8.4-16.5.6-17.1.4-2.9-.9-2.4-19.6.5-21.1.9-.5 6.2-1.1 11.9-1.4 5.6-.2 10.5-.7 10.9-1.1 1.4-1.3-1.4-4-7.3-7.2-3.2-1.7-7.9-4.9-10.3-6.9l-4.3-3.8.8-8.6c.4-4.7.7-13.2.6-18.9-.1-11.7-.3-11.5 8.2-7.6 7.3 3.3 18.6 5.3 30.5 5.4h9.3l-.7-2.7c-.9-3.6-1.4-3.9-10.9-5.3-4.5-.7-12.8-2.3-18.6-3.5-5.8-1.3-11.6-2.2-13-2.2l-2.5.2.1-17.5c.1-25.8 2.1-45.9 5.3-51.8 1.4-2.7 5.5-2.9 10.9-.6 3.2 1.3 9.1 1.5 47.9 1 24.3-.4 44.9-.9 45.7-1.2.8-.3 1.6-1.5 1.8-2.7.3-1.9 1.3-2.4 6.8-3.3 8.4-1.5 24.1-1.7 27.7-.3 1.5.5 4.2 2.3 5.8 3.8C251 15 260.3 21 262.7 21c1.9 0 2.3.4 1.9 1.8-1.2 3.8-1 11 .4 12.7 1 1.2 2.9 1.6 8.4 1.5 11.8-.2 11.4-.3 14.8 4.5 3.7 5.2 4.6 5.3 2.2.1-1.3-2.6-1.5-3.9-.7-4.7.8-.8 9.6-.5 31.4 1.1 16.7 1.2 32.6 2 35.2 1.7 4.7-.4 5-.3 9.8 4.5 6.7 6.7 15.2 17.9 18.1 23.8 1.3 2.6 16.8 18.9 18 19 1.9 0-3.5-9.2-10.1-17.3-1.9-2.3-6.3-8.5-9.7-13.9-3.5-5.3-9.3-13.5-12.9-18.2C359 23.9 346.7 4.1 347.3 1.9 347.8 0 344.7 0 173.9 0H0v19.7zM682 5c0 .9-.5 2.1-1.2 2.8-1.7 1.7-4.8 1.5-4.8-.4 0-.9-.9-1.8-2-2.1-1.9-.5-2.6-2.3-1.5-3.5.3-.3 2.6-.1 5 .5 3.1.7 4.5 1.6 4.5 2.7zm-51.1-1.6c31.1.1 33.6.2 33.9 1.9.2.9.9 1.7 1.7 1.7.7 0 1.5.9 1.8 2 .3 1.1.4 2 .4 2-1 0-11.5-4.5-12.5-5.3-1.1-.9-1.3-.5-1 2.3.3 3.1 0 3.5-2.2 3.8-9.4 1-26.9 4.8-29 6.2-1.4 1-4.5 2-7 2.3-2.5.2-11 1.8-19 3.5-8.6 1.9-17.7 3.2-22.5 3.3-22.5.3-40.2 6.9-52.7 19.7-7.9 8-15.7 14.2-18 14.2-1 0-1.7-.4-1.4-.8.2-.4.1-1.4-.4-2.2-.5-.9 1.9-6.7 7.2-17.4 11.9-24.1 11.9-24.2 17.3-30.5 4.7-5.5 5.3-5.9 10.5-6.4 3-.4 15.2-.7 26.9-.7 11.8 0 21.7-.3 22-.6.3-.3 2.8-.2 5.5.2 2.8.3 20.1.7 38.5.8zm-340.1.5c.8.4 1.3 1.1 1.3 1.5-.3 2.1.2 2.6 2.6 2.6 2.5 0 2.6.1 1.1 1.6-1 1-2.1 1.3-2.9.8-2.1-1.3-6-1.3-12.7-.1-4.7.8-7.1.8-9.5-.1-1.8-.6-5.4-1.2-8-1.3-2.6-.1-4.3-.6-3.6-.9.6-.4 3.8-.6 7-.5 4.5.2 5.9 0 5.9-1.1 0-1.4-3.3-1.9-8.9-1.4-1.4.1-2.1-.2-1.7-.9.9-1.3 27.4-1.5 29.4-.2zm4.9-.3c-.3.3-1.2.4-1.9.1-.8-.3-.5-.6.6-.6 1.1-.1 1.7.2 1.3.5zm45 4c2.4 2.6 4.3 5.1 4.3 5.6s1.1 2.4 2.5 4.2c1.4 1.8 2.5 3.7 2.5 4.2s.9 2 2 3.4c2.2 2.8 2.6 6.1.8 5.7-.6-.1-1.3.6-1.5 1.5-.3 1.1.4 1.8 1.9 2.2 3.1.6-3.1-.1-11.2-1.3-3.6-.6-8-1.5-9.9-2-4.2-1.3-23.1-2.6-36.9-2.6-5.6 0-10.2-.4-10.2-.8 0-1.6 8.5-9.7 10.2-9.7.9 0 1.8-.3 2-.8 1.5-3.3 12.1-7.9 17-7.3 1.1.1 2-.7 2.3-2.2.8-3.1 4.8-4.5 13.4-4.6 6.4-.1 6.5-.1 10.8 4.5zM83 6c0 .5-1.2 1-2.7 1-2.2 0-2.5-.2-1.3-1 2-1.3 4-1.3 4 0zm11.2.2c-.9.9-1.5.9-2.4 0-.9-.9-.7-1.2 1.2-1.2s2.1.3 1.2 1.2zM304 7c0 .5-.4 1-1 1-.5 0-1-.5-1-1 0-.6.5-1 1-1 .6 0 1 .4 1 1zm-44 8c0 .5-.4 1-1 1-.5 0-1-.5-1-1 0-.6.5-1 1-1 .6 0 1 .4 1 1z"/><path d="M273 7.1c0 .5.9.9 2 .9s2-.2 2-.4-.9-.6-2-.9c-1.1-.3-2-.1-2 .4zM391.3.6c.3.3-.7 4.1-2.3 8.4-3 8.1-5.9 26.3-4.7 29.4 1.1 2.7 4.2 1.5 4-1.4-.3-3.5 1.7-12.9 2.8-13.5.5-.4 3.5-.8 6.7-1 8.2-.5 19.2-3.2 23.2-5.7 1.9-1.2 7.3-4.1 12-6.5 4.6-2.4 9.4-5.3 10.5-6.3 1.2-1.1 3-2 4.1-2 1 0 2.6-.5 3.4-1 1-.6-4.4-1-16.2-1-9.7 0-17.9.4-18.2.8-.2.4.5.9 1.6.9 1.2.1 2.8.9 3.7 1.9 1.5 1.5 1.3 1.6-1.9.9-2.6-.5-3.1-.4-2 .4 1.3.9 1.2 1.2-.7 1.7-1.2.3-2.5 1.5-2.8 2.5-.5 1.5-1.6 1.9-5.4 1.9-3.7 0-5.7.7-8.9 3-6.8 4.9-7.5 4-4.2-5 1.1-3 2-5.5 2-5.6 0-.3 5.5-2.3 7.5-2.7 1.1-.3-1.8-.5-6.4-.6-4.6 0-8.2.2-7.8.5zM466 1c0 .6-1.2 1.6-2.7 2.2-4.4 2-16.5 9.8-19.6 12.7-3.7 3.4-5.9 8.1-6 13.1-.1 2.2-.6 4-1 4-.5 0-.5 1-.2 2.1.4 1.3.2 2.5-.5 2.9-.6.4-1 2.4-.8 4.6l.3 3.9 8-8.3c11.8-12.3 25.1-22.6 37.3-28.9 5.9-3.1 11.9-6.2 13.5-7 1.5-.8 2.7-1.6 2.7-1.9 0-.2-7-.4-15.5-.4-9.9 0-15.5.4-15.5 1zM800.8.7c.6.2 1.8.2 2.5 0 .6-.3.1-.5-1.3-.5-1.4 0-1.9.2-1.2.5zm92.9.2c2.8.4 5.5 1 5.9 1.3.4.4.2 5.3-.5 10.8-.6 5.5-1.1 13.8-1.1 18.4 0 11.5-1.7 27.3-4 37-1.1 4.5-2 11-2 14.6-.1 3.6-.5 9.9-1 14-.4 4.2-.4 11.2 0 15.9 1 8.9-.1 17.9-2.3 19.3-.6.4-2.2.8-3.4.8-1.5 0-2.3.6-2.3 1.6 0 1.3.7 1.5 2.9 1.1 1.5-.3 3.3-.1 3.8.4.6.6 7.6 1 16.4 1 17.6 0 36.4 1.5 39.4 3.2 2.4 1.3 100.5 2 119 .8 11.2-.8 12.1-.7 13.8 1.2 1.6 1.8 1.7 1.5 1.7-8.3v-10.3l-2.1 1.9c-1.6 1.4-3.9 1.9-10.2 2.1-4.4.1-8.8.5-9.7.8-1.4.6-30.8 1.1-101.8 1.9-22.1.2-26.2 0-25.7-1.2 1.2-3.2 13.8-21.2 14.9-21.2 11.6-.5 79.9-1.4 103.4-1.4l31.2.1V96.3c0-9.7-.8-12.2-2.7-8.9-1.9 3.1-5.2 3.6-26.5 3.6-11.7 0-25.6.5-30.8 1.1-14 1.5-32 2-32 .9 0-.6-.7-1-1.6-1-.8 0-1.3.4-.9.9.3.5.1 1.2-.5 1.6-1.2.7-1.3-1.5-.2-3.1.8-1.1 8.2-1.4 8.2-.3 0 .4.8.6 1.8.4.9-.2 2.2-.4 2.7-.5.6 0 .2-.5-.8-1.1-1.1-.7-1.6-1.7-1.2-2.9.5-1.5.1-1.8-2-1.6-1.6.2-2.5-.2-2.5-1s.9-1.4 1.9-1.4c1.1 0 2.7-.3 3.6-.6 1.3-.5 1.4-.8.3-1.5-1-.7-.9-.9.3-.9.9 0 1.9.7 2.3 1.5.3.8 1.1 1.5 1.7 1.5.8 0 .8-.4-.1-1.5-.7-.8-.9-1.5-.4-1.6 15.6-1.1 51.8-2.6 63.6-2.5l15.8.1v-7.3c0-3.9-.2-7.2-.4-7.2-.3 0-1.1.7-1.9 1.5-1.2 1.2-7.8 1.5-38.8 1.9-52.9.6-64.5 1.2-69.1 3.9-2.9 1.5-3.8 2.7-3.8 4.6 0 1.4-.9 7.6-2.1 13.8-2.2 11.7-2.6 12.2-8.1 12.3-1.4 0-1.6-.4-.8-2.3 1.2-2.7 4.6-16.6 6.4-26.2 2.5-13.2 6.8-31.8 8.2-35.9.8-2.2 2.6-8.6 4-14.1s3-10.5 3.5-11.1c1.5-1.8-.1-2.4-6.9-2.4-4.1 0-7.1.5-8.1 1.4-1.3 1-3 1.1-8.8.3-4-.6-7.5-.8-7.8-.6-.3.3-1.3 4.2-2.2 8.7-1.1 5.1-2.2 8.2-3 8.2-.7 0-1.3.7-1.3 1.5 0 1-1.1 1.4-4.2 1.3-2.4-.1-7.1.2-10.5.7l-6.3.8V19.8c0-8.1.4-12 1.4-13.3 1.2-1.7 4.2-2 35.2-3.2 56-2.2 53.4-3-9.1-3-31.3 0-54.7.3-51.8.6zM955.5 33c.3.5.1 1-.4 1-.6 0-1.1-.5-1.1-1 0-.6.2-1 .4-1 .3 0 .8.4 1.1 1zm-13 4.6c17.2.6 20.9 1.8 17.2 5.6-.7.7-4 4.7-7.3 8.8-7.6 9.6-11.4 13.4-15.2 15.4-4.2 2.2-7 6.4-8.3 12.7-3.4 16.9-4.1 18.9-6 18.9-2.3 0-2.4-2-.4-8.6 1.7-5.6 3.2-23.4 2-23.4-.5 0-1.9.9-3.1 2.1-1.5 1.4-3.6 2.1-7 2.1-2.7.1-5.5.6-6.1 1.1-1.8 1.3-1.7.5 2.1-17.2 2.9-13.8 3.5-15.5 5.5-16.3 3.4-1.2 15.3-2.6 17.1-2 .8.3 5.1.7 9.5.8zM974 80.9c0 .5-.9.7-2 .4-1.1-.3-2-.7-2-.9 0-.2.9-.4 2-.4s2 .4 2 .9zm5.5.1c.3.5.1 1-.4 1-.6 0-1.1-.5-1.1-1 0-.6.2-1 .4-1 .3 0 .8.4 1.1 1zm3.5 3.6c0 .2-.9.4-2.1.4-1.1 0-1.8-.4-1.4-1 .5-.8 3.5-.3 3.5.6zm-14.2 5.9c-.3.3-.9-.2-1.2-1.2-.6-1.4-.5-1.5.5-.6.7.7 1 1.5.7 1.8zm13.2-1c0 .3-.9 1.4-2 2.5-2.2 2.2-2.5 1.9-1-1.1 1-1.7 3-2.7 3-1.4zm-45.1 17.6c3.3-.1 3.4 0 1.8 1.7-1 1-1.7 2.3-1.7 2.9 0 1.2-3.6 5.6-12.2 14.9l-4.8 5.1-4.7-.8c-2.7-.4-6.9-.5-9.5-.2l-4.8.6.6-9.4c.3-5.2.8-10.3.9-11.4.2-1.1.4-2.3.4-2.7.2-1.4 4.1-1.7 17.1-1.1 7.4.3 15 .5 16.9.4zM1066.1.4c1 .9 13.9 1.4 13.9.6 0-.6-3.2-1-7.2-1-3.9 0-6.9.2-6.7.4z"/><path d="M1076.8 9.1c-1.6.4-6.1.7-10 .8-4 0-19.4.3-34.3.6-14.8.3-32.2.5-38.7.5l-11.6.1-.4 5c-.1 2.8.1 5.3.5 5.6 1.4.9 70.1.2 74.2-.7 5.3-1.3 11.2-1.2 13.6 0 2.2 1.2 2.4.4.9-3.4-.8-2.3-.7-2.4 1.3-1.7 1.2.4 3.3 2.5 4.7 4.6l2.5 3.8.3-4.2c.2-2.2.2-5.8 0-7.9-.3-3.7-.4-3.8-3-3.1zM933 11c-2.4.4-5.3.5-6.3.2-1.6-.4-1.8.1-1.5 5.4l.3 5.9 3.9.3c2.5.2 3.6 0 3.1-.7-.3-.6-1.7-1.1-3.1-1.1-2.5 0-3-1.4-1.5-3.9.6-.9 1.8-1.2 3.7-.7 5.3 1.2 5.7 1.1 6.7-1.7 1.2-3.7.2-4.5-5.3-3.7zm-12 4.9c0 1.7.5 3.3 1 3.6.6.4 1-.8 1-2.9 0-2-.4-3.6-1-3.6-.5 0-1 1.3-1 2.9zm.6 6.6c-.3.8-.1 1.5.4 1.5.6 0 1-.7 1-1.5s-.2-1.5-.4-1.5-.6.7-1 1.5zm-240 20.2c-.8.9-8.9 1.2-36.6 1.3-15.2.1-20 .5-21.8 1.6-3.2 2.1-1.8 3.4 3.6 3.4 2.6 0 5.3.4 6.1.9 1 .6 2.4.5 4.1-.4 2.3-1.2 4.5-1.1 15.6.5 15.5 2.3 31.6 5.4 40.4 8 3.6 1 9.9 2.4 14 3 10.7 1.7 37.7 10.3 48 15.2 7.4 3.6 16.1 10.2 22.5 17.1 3.4 3.6 7.7 7.2 9.8 8 2 .9 3.7 2.1 3.7 2.6 0 .6.5 1.1 1 1.1.9 0-1.3-4.8-4.9-11-.9-1.5-1.7-3.3-4.4-10-.8-1.9-1.9-4.8-2.6-6.3-1.2-3.1-.8-4.7 1.5-4.7 1.2 0 1.3.4.3 2.1-1 2-.9 2.1 1.1 1.6 1.9-.5 2.1-.3 1.6 2.1-.5 2-.4 2.3.3 1.2.8-1.2 1.1-1.1 1.7.5.4 1.1 1.3 2.7 2 3.5.6.8 2.1 3.1 3.2 5.1 1.1 2 2.6 4.7 3.4 6 2.1 3.7 9.4 12.5 19.6 23.2 8.4 9 9.9 11.2 16.2 24.2 3.9 7.8 7 15 7 15.8 0 .8.6 2.8 1.4 4.4 2.1 4.2 3.4 9.1 4.2 15.6.3 3.2.9 5.6 1.2 5.3.2-.3.7-4.3.9-8.9.3-6.5-.1-10.2-1.7-16.3-1.2-4.3-3.3-11.7-4.5-16.4-1.3-4.7-3.1-10.8-3.9-13.5-.9-2.8-2.1-6.6-2.7-8.5-.6-1.9-1.7-4.9-2.4-6.5-.7-1.7-1.9-4.5-2.6-6.3-.8-2.1-2.5-4-4.8-5.2-3.3-1.7-8.9-6.7-27.6-24.4-7.6-7.2-14.1-11.6-17.4-11.6-1.2 0-2.1-.4-2.1-.8s-1.6-1.4-3.5-2.1c-1.9-.7-3.5-1.7-3.5-2.2 0-.5-.7-.9-1.5-.9-.9 0-1.8-.7-2.1-1.5-.4-.8-1.2-1.5-2-1.5s-1.3-.6-1.2-1.3c.2-.7-.9-1.3-2.6-1.5-1.7-.2-3-1.1-3.3-2.2-.5-1.9-3.5-3.4-8.8-4.6-1.6-.3-4-1.3-5.2-2-2.7-1.7-6-2-8.7-.9-1.1.5-1.7.5-1.4-.1.7-1 .3-1-29.2-1.9-11.3-.3-20.9-.2-21.4.2zM779.8 71c-1.4 2.2-2.4 1.9-1.5-.5.4-.8 1.1-1.5 1.7-1.5.6 0 .6.7-.2 2z"/><path d="M757.8 51.7c.7.3 1.6.2 1.9-.1.4-.3-.2-.6-1.3-.5-1.1 0-1.4.3-.6.6zm-461.8 5c0 1.3.5 2.3 1 2.3 1.3 0 1.3-1.1 0-3-.8-1.2-1-1.1-1 .7zM.1 75.6L0 93.7l7.7.6c6 .4 8.1.3 9.4-.9 2.1-1.9 2.6-1.8 3.2.6.4 1.6 1.4 2 4.9 2 2.3.1 7.8.3 12.1.6s7.7.2 7.7-.3c0-1.2-4.4-5.2-9-8.4-1.9-1.3-4.4-3.2-5.5-4.2-1.1-1-4-3.3-6.5-5-2.5-1.6-7.5-5.2-11.1-7.9C9.2 68.2 5.8 66 5.3 66s-1.9-1.9-3-4.3L.1 57.5v18.1zM8 75c0 .6 1 1.5 2.3 1.9 1.9.8 2 1 .5 1.6-1.1.4-2.4.1-3.3-.9-.9-.9-2.1-1.6-2.6-1.6s-.9-.5-.9-1c0-.6.9-1 2-1s2 .5 2 1zm290.4-13.7c.3 1 .6 2.4.6 3.1 0 3.8 10 15.5 16 18.6 3.6 1.9 43.7 1.5 59-.5 6.1-.8 8-1.9 8-4.5 0-3.3-4.4-3.4-34.1-1.5-2.4.2-11.4.6-20 1-13.9.7-15.8.6-18.2-1-1.5-.9-2.7-2.3-2.7-3 0-.7-.3-1.5-.7-1.7-1.1-.4-5.3-6.5-5.3-7.6 0-.4-.7-1.7-1.6-2.8-1.4-1.7-1.5-1.7-1-.1zm305.1.6c-1.6.4-6.5 2.6-10.8 4.9-4.2 2.3-9.4 4.6-11.5 5.1-27.3 7.4-41.3 12.1-52.2 17.6-2.5 1.2-7.6 3.5-11.5 5-17.8 6.8-30.8 13.3-39.1 19.6-2.7 2.1-9.5 5.9-15 8.4-15.4 7.1-35.5 17.5-39.8 20.6-3.3 2.4-9.4 4.6-24.6 9.1-4.8 1.4-35.8 16.6-39.6 19.5-1.7 1.3-3.4 2.3-3.8 2.3-.3 0-2.7 2-5.3 4.5-2.5 2.5-5 4.5-5.5 4.5s-.7.4-.4.9c.3.4-1.2 1.6-3.4 2.6s-4 2.4-4 3c0 .7-1.2 2.1-2.7 3.1-5.9 3.8-6.4 5.1-6 14.6.3 5 1 9.4 1.7 10.3.7.8 1.3 3.3 1.3 5.5s.4 4.3.8 4.6c1.4.8 1.1 5.6-.3 5.2-1.3-.5-2.7-5-5.4-16.8-2.2-10.1-1.7-9.9-24.5-10.1-10.7-.1-20.1.1-20.7.5-.7.4-1.8.4-2.4-.1-.7-.4-3.3-.9-5.8-1-2.5-.1-13-.7-23.5-1.3-10.4-.6-23.8-1.3-29.6-1.7-5.9-.3-11.9-.3-13.5.1-2.8.7-2.6.9 3 2.8 4.1 1.4 7.3 3.5 10.5 6.7 5.5 5.5 12.9 11.5 15.4 12.4.9.4 1.7 1.1 1.7 1.7 0 1.8-4.6 1.1-7.8-1.3-1.7-1.2-5.9-4.2-9.4-6.6-3.5-2.5-9.2-6.7-12.6-9.4-3.5-2.7-7.8-5.3-9.5-5.8-4.6-1.4-59.9.5-64.2 2.1-3.2 1.2-3.1 1.9.5 7.8 4.7 7.7 3.7 10.2-4 10.2-16.4 0-29.9-6.2-62-28.5-18.6-12.9-21.2-14.5-25.3-15.6-4.5-1.2-26.1-1.7-36.4-.9l-6.3.5v9.5c0 5.6.4 8.9.9 8.2 1.3-2.1 53-1.9 57.3.2 1.7.9 3.7 1.6 4.4 1.6.7 0 1.5.4 1.9.9.6 1.1-2.8 1.3-23.5 1.5-19.5.1-36.6-.9-36.3-2.3.2-.6-.2-1.1-.7-1.1-.6 0-1 .4-1 1 0 .5-.7 1-1.5 1-1.3 0-1.5 2.6-1.5 17.1 0 13.6.3 16.9 1.3 16.1 3.5-2.9 9.7-3.3 23-1.7 10 1.2 21.7 1.6 47.7 1.6 19-.1 40.6.4 48 1.1 7.4.6 32.2 1.2 55 1.3 22.8.2 67.4.6 99 1l57.5.7 3.7 2.6c2.5 1.8 4.4 4.2 5.5 7.2.9 2.5 1.8 4.7 2 4.9.1.2 2-.3 4-1.1 2.1-.9 8.1-3.3 13.3-5.4 5.2-2.1 12.4-5.5 15.9-7.6 3.6-2.1 10.2-5.1 14.8-6.8 12.3-4.4 15-6.1 23.3-13.9 4.1-4 11.6-9.9 16.5-13.1 5-3.3 9.7-6.6 10.6-7.5 1.8-1.7 3.9-2 3.9-.5 0 .5-.7 1-1.5 1s-1.5.4-1.5 1c0 1.2 3 1.3 4.6.2.6-.4 1.3-1.4 1.6-2.2.3-.8 3.2-2.6 6.4-3.8 12.1-4.8 13.8-5.7 20.8-11.5 7.2-5.9 15.3-10.2 28.1-15.1 3.9-1.5 9.7-4 13-5.5 13.9-6.5 49.6-19.3 64-23 20.4-5.2 39.5-8.1 53.3-8.1 7 0 9.6.5 17.1 3.4 4.8 1.9 10.6 4.3 12.7 5.4 2.1 1 6.4 2.5 9.4 3.2 5.4 1.2 16.3 4.9 35 11.7 5.2 1.9 11.8 4.2 14.5 5.2 2.8 1 7.7 3 11 4.5 5.7 2.6 7.4 3.4 11.3 5.6.9.5 3.3 1.6 5.2 2.5 1.9.8 6.7 3.7 10.5 6.5 3.9 2.7 7.3 5 7.7 5 .4 0 3.7 2.1 7.3 4.7 7.9 5.7 18.3 11.9 28.2 16.9 7.4 3.7 13 8.9 20.5 19 2.1 2.7 4.2 5.3 4.8 5.9.6.5 2.1 2 3.3 3.3 1.2 1.3 3.5 3 5.2 3.8 3.6 1.7 13.5 10.7 13.5 12.3 0 .6.5 1.1 1 1.1.6 0 1 .4 1 1 0 .9-6.5-2.2-8.4-4.1-.6-.5-1.8-.9-2.9-.9-1.4 0-1.7-.5-1.3-2.3.3-1.2.3-1.6 0-1-.9 1.9-2 1.6-7.5-2.2-2.8-1.9-5.6-3.5-6.2-3.5-.5 0-2.4-1.1-4.1-2.4-5.8-4.4-37.8-19.5-50.6-23.9-11.1-3.8-30.4-11.1-41.5-15.7-17.9-7.4-34.2-13.2-47.5-16.7-15.5-4.1-26.2-3.9-39.2.9-16.8 6.2-28.6 14.6-43.3 31-5.5 6-3.9 5.3-32.5 14-12.2 3.6-31.4 11.1-45 17.4-12.1 5.7-32.9 10.9-70 17.4-20.2 3.5-32.7 5.9-41.7 7.9-25.4 5.8-84.8 15.6-106.8 17.6-3.8.4-7.7.8-8.5 1-.8.2-10.5.8-21.5 1.4-11 .7-30.6 2-43.5 3.1-12.9 1-29 2.1-35.8 2.5-14.2.7-25.3 3.6-32 8.5-2.3 1.6-4.6 3-5.2 3-.5 0-1 .4-1 .8 0 .5-1.4 2.4-3.1 4.3-3 3.3-4.4 5.9-11.2 21.9-3.8 9-4.9 15.3-4.3 24.5.3 4.9 1.2 12.7 2 17.1 2 11.1 1.5 12.4-4 12.4H132l-.2-7.3c-.4-20.6 1-34.1 4.6-42.2 6-13.4 5.9-13 2.6-16.4-3-3.4-5-4-5-1.6 0 .8-.4 1.5-.9 1.5-.4 0-.6-1.1-.3-2.5.4-2.4.3-2.5-2.2-1.4-1.4.7-2.6 1.5-2.6 1.8 0 .9-12.3.7-13.7-.2-1.6-1-.5-3.7 1.3-3 .8.3 2.1 0 2.8-.6 1.1-.9 1.5-.9 1.9.1.4 1 .6 1 .6-.1.1-1.1.4-1.1 1.7 0 1.3 1 1.7 1 2.4-.1 1.3-2.1.2-3.1-2.7-2.4-1.9.5-2.4.4-1.9-.5.6-.9-.6-1.1-4.7-.7-6 .5-5.7.7-8.1-6.7-.7-2.1-2.6-1.3-2.7 1.1 0 1.2-.3 1.1-.9-.6-.5-1.2-1.5-2.2-2.2-2.2-1 0-1.4-1.9-1.3-7.1 0-8.9 1.2-10 10.5-9.8 7 .2 16.9-.9 41.1-4.7 17.5-2.7 20.5-2.9 21.5-1.3.5.8.9.7 1.4-.1.5-.8 1.5-1 2.6-.5 1.8.7 1.8.7 0 1.4-1.7.7-1.7.8-.2 2.4 1.9 1.8 2.7 2.1 2.5.9-.4-2.1.3-2.3 2.1-.7 2.6 2.4 2.5 3.5-.2 3.6-1.8.1-1.9.2-.5.6 1.4.4 1.5.8.7 1.8-.6.8-1.8 1.1-2.6.8-.8-.3-1.4 0-1.4.7 0 1.5 12.8.8 13.9-.7.3-.5 8-2.4 17.1-4.1 15.1-2.9 20.7-3.8 43-7.2 4.1-.7 13.4-2.6 20.5-4.2 11.9-2.8 12.7-3.2 10-4.1-2.1-.7-10.3-.6-27 .4-23 1.3-32.5 1.4-78.5.8-17.9-.2-22.8.1-38.5 2.4-14.7 2.2-21.4 2.7-36.5 2.6-10.2 0-18-.3-17.5-.5 2-.8.4-7.2-2.1-8.9-2.2-1.4-2.5-1.3-5.7 1.5-2.9 2.5-5.5 3.4-15.8 5.5-6.8 1.4-18.9 3.4-26.9 4.5-21.3 2.9-28.2 3.9-31.3 4.6l-2.7.6v25c0 21.7.2 24.9 1.4 23.8.8-.6 1.6-2.3 1.8-3.8.2-1.8 1.6-3.5 4.5-5.5 3.4-2.2 4.7-4 6.4-8.7 2.4-6.5 5.7-9 12.1-9 6.2 0 7 1.5 6.5 11-3.3 65.9-2.4 61.2-12.6 66.8-5.4 3-7.3 3.5-13.2 3.6H0v7.9c0 4.9.4 7.6 1 7.2.6-.3 1-1.2 1-1.9 0-2.4 4.9-5.8 9.7-6.7 6.1-1.1 15.4-4 17-5.1 1.3-1 9.7-.3 22.3 1.8 14.6 2.5 13 .7 13 14.2-.1 17.6-1.5 30.4-3.6 31.9-1 .7-4.3 1.4-7.3 1.4l-5.6.2 7 .9c6.6.9 10.7 2.9 9.2 4.4-.4.4-3.7.6-7.4.5-3.8-.2-17.9-.4-31.5-.5L0 439.5.1 527c.1 55 .5 84.5 1 79.5.5-4.4.8-15.7.8-25-.1-9.4.2-31.6.6-49.5.6-23.6.5-35.8-.4-44.4-1.1-10.6-1.1-12 .3-13.5 1.7-1.6 7.8-2.2 40.6-3.7 10.4-.5 15.4-1.1 17.5-2.3 2.9-1.5 2.6-1.6-12-2.4-15.9-.8-17.5-1.1-17.5-2.6 0-1.6 5.5-4 7.7-3.5 1.2.3 2.4.1 2.7-.5.4-.5 1.4-.7 2.4-.4 1.5.6 1.5.5.2-1-.8-.9-2.1-2.4-2.9-3.2-.7-.9-1.6-1.4-1.9-1-.4.3-.1.9.5 1.3.8.5.9 1.2.2 2.2-.7 1.2-1 1.1-1.5-.7-.6-2.3-4.3-3.8-5.8-2.3-.7.7-.3 1 .9 1 1.9.1 1.9.1.2 1.1-1.9 1.1-4.1.3-3.2-1.2.4-.5-1.3-.9-3.7-1-2.4 0-6-.1-8-.2-3.2-.2-3.7.1-3.2 1.5.3 1 0 1.8-.6 1.8s-.8-.5-.5-1c.3-.6-.3-1-1.4-1-1 0-2.2-.6-2.4-1.3-.4-.9-.8-.8-1.6.3s-.6 1.6.6 2.1c1.2.4 1.3.8.5 1.3-1.5.9-3.2-.1-3.2-2 0-1.3-.3-1.3-2.2 0-3.2 2.2-3.8 2-3.8-1.4v-3h29.9c16.5 0 30.6-.3 31.4-.6 3-1.1 4.4 2 3.5 7.8-.9 5.4-1.2 11.5-2.3 40.3-.7 20.5-2.3 44.6-2.9 45.2-.3.3-3.6.5-7.5.4-9.4-.1-16.2 2.5-17.2 6.5-.4 1.6-1.3 9.9-1.9 18.4-.6 8.5-1.4 18-1.7 21.1-.4 4.4-.2 5.9 1.2 7.2 1.6 1.7 2.6 1.8 17.5 2.1l7.5.1.1 6.5c.1 3.6.4 8.2.8 10.2.3 2.3.1 4-.5 4.4-.6.4-5.9.8-11.8.9l-10.6.2-1 4.2-.9 4.3-4.1-.5c-2.2-.3-9.4-.9-16-1.3s-12.6-1.1-13.2-1.7c-1-.7-1.3 2.6-1.3 16.1v17l10.8.7c5.9.4 13.4.8 16.6.9 4 .1 6.1.5 6.4 1.4.2.8-.3 5.3-1.2 10-1 4.8-2 11.6-2.4 15.2l-.7 6.5-4-.3c-2.2-.2-6.8-1-10.3-1.7-3.5-.7-7.2-1-8.4-.7-1.1.3-2.4-.1-2.9-.9-1.2-2-1.1-9.3.2-10.6 1.3-1.3-.9-5.3-2.8-5.3-1 0-1.3 4.2-1.3 17.9v17.8l2.3-.4c2.1-.4 2.2-.8 1.9-7.5l-.4-7 4.8.6c2.7.4 8.4.9 12.7 1.2l7.7.6v3.3c0 1.9.4 3.6.9 4 1.4.8 2.9-8.4 3.5-21.9.9-18.4 2.7-20.3 17.4-18.9l8.7.8.3 5c.2 2.7-.1 7.2-.7 10-1.9 8.4-3.1 25.8-1.9 27.2.7.9.5 1.4-.8 1.9-1.1.3-3.5 1.2-5.4 1.9-3.4 1.4-3.3 1.4 4.3 1.4l7.7.1v-2.8c0-5.2 1.9-9.9 4.3-10.6 2.8-.7 11.9-.6 17.7.2 4.2.7 4.4.9 5.5 5.2l1.1 4.5 15.2.3c17 .3 15.7.9 15.2-7.6-.1-2.3.2-4.8.8-5.5 1.3-1.7 4.8-13 6.2-20l1.2-5.9 4.1.6c2.3.3 5.7.5 7.5.5 2.5.1 3.5.6 3.9 2.1.3 1.2 2.4 2.9 5.2 4.1 2.9 1.2 6 3.6 8 6.2l3.3 4.2-.4 15.5c-.4 12-.8 16.2-2.2 18.7-1.6 3.1-2 3.3-7.1 3.3-4.9 0-5.6.3-7.9 3.2-2.3 3-2.8 3.2-4.6 2-1.7-1-2.8-1-5.6 0-5.3 1.9-6.7.5-8-8.3-1.1-8-2-10.3-3.5-9.3-.7.4-.8 3.6-.4 8.9l.7 8.3-4.3 2.5c-5 3-6.1 2.7-5.4-1.3.3-1.6.1-3.2-.5-3.5-.5-.3-1 .2-1 1.3 0 1-1.1 3.1-2.4 4.5l-2.5 2.7 2.5.6c1.3.3 5.7.3 9.7-.1 9.6-.9 23.7-.9 31.7.2l6.5.8.2 3.5c.3 3.4 2.5 17.3 4.5 27.8.9 4.8 1.2 5.3 3.1 4.8 1.1-.3 2.6-.1 3.3.5.8.6 2.5.6 5.3-.3 3.5-1.1 4.1-1.7 4.1-4 0-1.8-.7-2.9-2-3.3-1.2-.4-2.4-2.3-3.2-5.3-.8-2.6-1.8-4.7-2.3-4.7-.6 0-1.2 2.8-1.5 6.2-.6 7.4-1.6 8.9-2.5 3.7-.3-2.2-1.3-5.7-2.1-7.9-2.1-6.1-1.8-6.9 3.8-11.2 11.5-8.7 13.1-9.3 26.6-9.3 6.6 0 12.7.3 13.6.6 2 .8 2 4.3 0 11.4-4.1 14.7-4 15.5 2 14 1.7-.5 13.5-1.3 26.1-2 38.1-1.8 36.5-1.8 36.5.2 0 1.4.7 1.6 3.8 1.1 2-.2 5.1-.9 6.7-1.4 1.7-.5 5.3-1 8.1-1.2l5.2-.4.5 4.9c.4 2.7.2 6.1-.4 7.5-1.3 3.5-.4 14.1 1.4 16.1.7 1 3.8 7.3 6.7 14.2 3 6.9 6.2 13.4 7.2 14.6 1 1.1 3.9 7.2 6.4 13.5 4.2 10.6 22.8 48.8 24.3 49.9.3.3 2.2 4.1 4 8.5 8.2 19.1 11.5 26.1 13.1 28 2 2.2 13.7 22.3 21.4 36.7 1.7 3.1 5.2 9.2 7.7 13.5 5.7 9.6 7.2 14.2 9.9 30.8 1.2 7.1 2.8 14.6 3.6 16.5.7 1.9 1.8 6.5 2.4 10.3.6 3.7 1.5 8 2.1 9.5.6 1.5 2.4 7.8 4 13.9 1.6 6.2 3.8 13.2 4.8 15.6 2.9 6.7 3.5 10.7 1.8 10.7-.9 0-1.7-.6-2-1.3-.3-.9-.7-.9-2 .2-2 1.6-1.2 3.5 1 2.6 1.3-.4 1.4-.3.3 1-1.1 1.3 1.7 1.5 25.8 1.5 22.3 0 27-.2 26.6-1.3-.3-.8.3-2 1.2-2.8 1-.8 1.5-.9 1.2-.4-.4.6-.2 1.7.3 2.5.7 1.1.8.7.5-1.2-.5-3.1.9-4.8 1.6-2 .3 1 1.3 1.9 2.2 1.9 2.4 0 2-1-1.4-3.5-2.4-1.8-3-2-3-.7 0 .8-.9 1.5-1.9 1.5-1.1 0-2.1.6-2.4 1.2-.2.7-.8 1-1.2.6-.5-.5-.2-2.6.5-4.7.8-2.6 1-5.8.6-9.2-.6-4.3-.5-5.1.8-4.6.8.3 2-.1 2.6-.9.7-.8 1.9-1.4 2.6-1.4.8 0 1.5-1 1.5-2.3.1-1.2.2-2.7.4-3.2.1-.6.3-1.9.4-3 .2-1.9.3-1.9 1.3.2 1.4 3 2.8 2.9 2.8-.1 0-2.5-2.4-4.1-4.2-2.9-.7.3-.8.1-.4-.6s1.7-1.1 2.8-.9c1.6.2 2.7-.8 4.4-4.1 1.3-2.4 2.1-4.7 1.9-5.1-.3-.5-.1-1 .3-1.2 1.3-.5 6.8-12.7 8.2-18 1.9-7.2.9-15.6-2.1-17.9-1.4-1.1-1.8-1.9-1-1.9.9 0 1.1-.8.7-2.5-.4-1.4-.2-2.5.3-2.5 1.4 0 5.1 13 5.1 18 0 7.4-5.6 24-9.8 29.3-.5.6-1.3 4-1.7 7.4-.6 5.4-.5 6.3.9 6.3.9 0 1.6-.8 1.6-2 0-2.3 1-2.6 2.8-.8.9.9 1.6.8 3-.5 1.6-1.6 1.6-2 .1-4.6l-1.6-2.8 7.1-1.2c3.9-.7 10.5-2 14.6-2.9 9.2-1.9 26.6-2.2 30.3-.5 1.5.7 3.7 1.7 5 2.2 5.2 2.3 21.5 3.3 48.1 3.2 20.3-.2 28.1.1 28.6 1 .7 1 10 1.5 20.9 1 2.9-.1 3.2-.3 2.1-1.6s-1-1.4.6-.9c1 .4 2.5 1.1 3.1 1.7.9.6 1.5.4 1.9-.7.3-.8 2.1-1.8 4-2.2 6.3-1.2 2.6-1.7-9.7-1.5-10.9.2-12.1 0-11.5-1.4.3-.9.6-1.9.6-2.1 0-.2.7-.4 1.5-.4s1.2-.6.9-1.4c-.7-1.9-4.4-2.8-4.4-1.1 0 1.5-4.6 2.6-10.4 2.4-2.7-.2-3.2-.3-1.5-.6 2.4-.4 2.6-.6 1.5-2.9-1.1-2.4-4.2-4.1-5.4-2.9-.4.4.1 1.1 1.1 1.6.9.6 1.5 1.4 1.2 2-1.1 1.7-2.3.9-3-1.9l-.6-2.8-7.8.4c-6.5.3-7.9.1-8.4-1.2-.3-.8-.2-1.8.4-2.1.5-.4 1.2.1 1.5.9 1 2.5 2.4 1.9 2.4-1 0-1.4-.4-2.3-1-1.9-1.3.8-1.3-.1 0-2.6.8-1.5.7-1.9-.4-1.9-1 0-1.3.6-1 1.5.8 2.1-.3 1.9-2.8-.5l-2.2-2h2.2c1.1 0 2.3-.4 2.6-.9.6-.8 6.7-2.4 29.2-7.5 8.1-1.8 13.1-3.6 18.4-6.6 8.5-4.9 12.1-6.2 23.8-9 4.7-1.1 12.9-3.9 18.1-6.1 9.6-4.1 34.5-10 48.7-11.5l6.1-.6 1.3 7.8c2.8 17.2 14.3 50.9 19.8 58.4 1.4 1.9 10.1 10.9 19.3 20 12.3 12.1 16.4 16.8 15.6 17.6-.8.8-1.6.5-2.9-1-2.1-2.6-2.5-.1-.4 2.6 1.2 1.7 7.6 1.8 109.2 1.8 62.8 0 107.3-.4 106.4-.9-2.8-1.7-30.9-3.1-40.5-2.1-14.8 1.6-13.8 1.9-16.8-5.3-2.3-5.6-5-13.1-9.4-25.7-.9-2.5-2.4-5.6-3.5-6.9-1-1.3-1.8-3.1-1.9-4 0-.9-.9-3-1.9-4.6-1.1-1.7-3.3-5.7-5-9-3.6-7.2-5-9.6-7.4-12.7-.9-1.3-2.9-4.2-4.4-6.4-2.7-4.2-7-10.4-13.9-20.4-2.1-3-6.5-7.6-9.7-10.2-3.3-2.6-7.3-6.7-9-9-4.6-6.6-20.7-20-22.2-18.5-.3.2 1.9 2.5 4.8 5s7.2 6.5 9.4 8.9c2.3 2.4 8 8.3 12.7 13.3 8.5 8.9 12.1 13.4 15.2 18.8.9 1.5 2.4 3.7 3.3 4.8 3.1 3.6 13.8 23.9 17.2 32.4.4 1.1 2.3 5.4 4.3 9.5 7.2 15.3 8.6 18.8 10.7 26.1 2.5 9.3 2.5 10.6-.2 11.5-3.8 1.3-82.1.7-87-.7-6.2-1.6-22.1-15.3-29.8-25.4-3.6-4.9-16.4-17.9-28.5-29-3.3-3-7.6-6-9.5-6.6-5.6-1.7-17.2-10-20.2-14.4-1.4-2.2-3.4-6.2-4.2-8.9-2.6-7.9-4.9-21.2-4.2-23.7.4-1.4 3.4-4.3 7.1-6.9 3.5-2.5 6.9-5.4 7.5-6.6.6-1.1 2.8-3.3 4.7-5 2-1.6 7.9-7.1 13.1-12.2 5.3-5 10-9.2 10.4-9.2.5 0 2.7-1.9 5-4.2 3.5-3.6 4.2-3.9 5-2.5 1.9 3.5 5.8.7 5.8-4.2 0-2.4.6-2.5 4-.6 1.4.8 3.4 1.4 4.4 1.5 1.1 0 4 1.3 6.6 3 2.5 1.6 6 3.2 7.6 3.6l2.9.5v-14.3c0-12.8.3-14.9 2.4-19.8 1.3-3 3-6.3 3.9-7.3.9-1 2.1-4.3 2.7-7.5l1.2-5.7 42.7-.6c23.5-.4 45-.4 47.8 0 7.5.9 8.1 2.6 3.9 10.6-3.4 6.4-3.4 6.6-2.3 12.8 2 10.8 8.4 20.1 16.7 24.4 1.1.6 5.8 1.8 10.5 2.8 14.9 2.9 15.9 3.4 17 7.4.5 2 1 6.2 1 9.4 0 6.4 1 9.1 4 10.7 3 1.6 16.9 4 23.1 4 5.1 0 5.9.3 7.5 2.7 2.6 4 3.2 9.3 2.3 18.1-.5 4.2-1.4 17.1-1.9 28.7-1.6 35.7-4.1 62.2-6.9 73.3l-1.8 7.2h59.7V741.9l-3.6 2.7c-1.9 1.5-4.1 3.5-4.7 4.4-.7 1-3.7 2.5-6.8 3.4-3.1.9-5.9 2.3-6.3 3.1-.4 1.2-2.7 1.5-11.4 1.5-9.9 0-11.1-.2-12.3-2-1.5-2.2-8.9-4.3-19.6-5.5-6.6-.7-6.6-.7-7.8-7.6-.7-3.6-.8-3.7-10.3-6.8-5.4-1.7-10.3-3.1-11-3.1-.7 0-1.1-.4-.7-.9.3-.5 2.2-.8 4.3-.5 2 .2 4.7.5 6 .6l2.3.3-.1-18.9c-.1-15.3-.4-19.6-1.7-22.4-1.6-3.3-1.5-3.5.1-4.8 1.9-1.4 14-2.8 19.6-2.2l3.5.3.3 6.5c.1 3.6-.3 8.5-1.1 11-1.2 4.4-1.4 4.5-6.1 5.2-4.7.7-6.6 1.9-6.6 4.5 0 1.7 1 1.6 2.4-.2 1-1.3 3.7-1.3 20.6-.5 10.7.6 22.7.8 26.5.5 4-.3 10.8 0 15.8.8l8.7 1.4v-89.9l-29.7.1c-16.4.1-44.4-.2-62.3-.7-17.9-.5-33.5-.5-34.7-.1-1.2.4-2.6 1.6-3.1 2.6s-1.2 13.7-1.6 28.3c-.3 14.6-1 31.4-1.6 37.4-.6 6.4-.6 11.5-.1 12.5.8 1.3 1.1 1.1 1.6-1.2.5-1.9 1.5-2.9 3.4-3.3 1.4-.3 3.5-.9 4.6-1.4 1.1-.4 4.9-1.3 8.5-2 7.1-1.3 10-2.5 10-4.2 0-.7-1.8-.9-5.5-.4-5.1.6-5.5.5-5.5-1.4 0-1.1.7-3.6 1.5-5.6 1.4-3.5 1.5-3.5 6.7-3.2l5.3.3.3 16.3c.3 17.7-.4 20.8-4.1 19.6-1.2-.4-9.2-1-17.7-1.3l-15.5-.6.3-5.3c.5-6.4-1.3-7-2.1-.7-.2 2.6-.7 4.9-1.1 5.2-.8.9-5.4.8-15.6-.1-14.8-1.4-20.3-1.8-29.5-2-4.9-.2-9.6-.3-10.2-.4-.8-.1-1.3-1.7-1.3-3.7 0-2.2-.5-3.5-1.3-3.5-2.1 0-4-10.8-3.3-18.6.3-3.8.7-9.4.9-12.4.2-5.5.2-5.5 3.2-5.2 3.5.2 11.2 4.1 11.9 5.9.6 1.4-3.7 13.5-6.1 17.2-.9 1.5-1.1 2.7-.5 3.3 1 1 2.5-1.4 7.6-12 2.9-5.9 3.2-9.1 1.2-13-.9-1.9-1.1-4.4-.6-8.7.8-7.1-.2-20.8-3-39.5-2.7-18.5-2.7-20.8.5-21.6 1.4-.3 7.8.1 14.3 1.1 12.3 1.7 24.5 2.1 122.5 3.3l51.7.7-.1-39c-.1-23-.5-37.2-1-34.5-.4 2.5-.8 18.1-.8 34.6-.1 24.5-.4 30.4-1.5 31.3-1.8 1.5-42.7 1.3-114.1-.5-51.9-1.3-76.1-2.7-77.9-4.4-.5-.5-1.3-5.3-1.7-10.7-1.2-14.4-1-14.7 18.1-25.5 17.6-9.9 34.6-20.3 53.5-32.9 7.2-4.7 16.5-10.5 20.7-12.8l7.7-4.2 12.3.7c6.8.4 27.4.8 45.8.8 18.4.1 34.7.5 36.3 1l2.7.8V494l-19.7.6c-10.9.3-30.7.2-44-.2l-24.2-.6-.9-2.7c-.9-2.6-1.5-2.8-12.8-4.5-11.2-1.6-13.2-1.6-33.4-.1-34.1 2.6-42.2 2.7-54.8.5-17.4-3-26.3-6.6-29.9-11.9-4.3-6.3-3.3-8.8 12.9-31 6.9-9.4 15.8-20.9 23.3-30.3.8-1 3.3-4.8 5.6-8.5 2.4-3.8 4.8-7.5 5.5-8.3 2.2-2.7 8.5-20.9 10.5-30.3 2.5-12.2 2.4-20.8-.5-35.1-2.4-11.8-8.3-25.7-14.1-33.6-9.2-12.5-26.1-29.1-36-35.5-10.2-6.6-11.5-8.5-11.5-17.2 0-3.7-.6-9.5-1.4-12.8-.8-3.3-1.7-8.7-2.1-12-1.5-12.7-3.8-18.6-10-25.5-2.7-3-5.6-6.9-16.3-21.9-2-2.9-9.2-11.4-10.2-12.1-.7-.5-6.1-8.7-13.5-20.5-7.4-11.7-12.3-17.1-23.6-26-15-11.8-67.9-33.3-100.4-40.9-6-1.4-17-3.9-24.3-5.6-26.7-6.2-42.4-8.1-50.7-6.1zM618 75c2 .6 2.1.8.5.8-1.1 0-2.9-.3-4-.8-2.5-1.1.1-1.1 3.5 0zm8.3.7c-.7.2-1.9.2-2.5 0-.7-.3-.2-.5 1.2-.5s1.9.2 1.3.5zm5 0c-.7.2-1.9.2-2.5 0-.7-.3-.2-.5 1.2-.5s1.9.2 1.3.5zm-24.6.9c-.3.3-1.2.4-1.9.1-.8-.3-.5-.6.6-.6 1.1-.1 1.7.2 1.3.5zm7.7 10c1.7.7 2.2 4.4.6 4.4-.5 0-1 .9-1 2.1 0 1.1.5 1.7 1 1.4.6-.3 1 .3 1 1.4 0 1.2.7 2.1 1.5 2.1s1.5.4 1.5 1c0 .5-1 1-2.2.9-5.5 0-25.8 5-36.3 9-4.2 1.7-12.1 4.3-14 4.8-1.1.3-2.9.8-4 1.3-1.1.4-6 2.2-11 4-4.9 1.8-10.4 4.1-12.2 5.1-1.9 1.1-4 1.9-4.7 1.9-.8 0-1.6.3-1.8.7-.4 1.1-13 7.3-14.5 7.3-.7 0-1.3.5-1.3 1.1 0 .7-1 .9-2.4.7-1.5-.3-2.3-.1-2 .6.2.6-2 2.2-4.9 3.5-2.8 1.4-5.4 2.7-5.7 3.1-.6.6-5.6 3.9-8.5 5.5-2.3 1.2-16.7 10.7-17.5 11.5-.3.3-1.8 1.2-3.5 2-1.6.8-3.6 2.1-4.4 2.9-1.3 1.1-1.9.8-4.3-2-3.2-3.9-3.3-4.7-1.3-7.3 2-2.7 4.2-.8 2.6 2.2-.8 1.5-.6 2.3.9 3.7 1.1 1 2.3 1.5 2.7 1.1.4-.4.1-1.1-.7-1.6-.9-.6-1.3-2.2-1.1-4.8.2-3.1-.3-4.5-2-6.1-1.3-1.2-1.8-2.1-1.1-2.1.6 0 1.4.4 1.7 1 .9 1.5 2.5 1.2 2.5-.5 0-.8-.6-1.5-1.2-1.6-1 0-1-.2-.1-.5 1.7-.7 5.3 1.4 5.3 3.1 0 .7-.5 1.5-1.2 1.7-.6.2-.8 1-.4 1.6.4.7 1.2 1 1.7.6 1.2-.7.9-7.4-.4-9.2-1.8-2.3.6-1.2 2.8 1.4 1.3 1.5 2.8 2.3 3.4 1.9.8-.5.4-1.4-1.4-3-1.4-1.3-2.5-3-2.4-3.7 0-1 .2-1 .6-.1.2.7 1.6 1.3 3 1.3 2 0 2.3-.3 1.4-1.3-1.8-2.3-.1-2.7 2.1-.5 1.6 1.6 2.2 1.8 2.9.7.6-1 .3-1.5-1.1-1.7-1.1-.2-2-1-2-1.7 0-1.8 1.7-2.8 2.5-1.5 1 1.6 2.8 1.2 2.1-.5-.7-1.9.3-1.9 2.8 0 2.4 1.8 4.5 2 2.8.3-.7-.7-1.2-2.1-1.1-3.2 0-2 .1-2 .8-.2.5 1.4 1 1.6 1.5.8.4-.7.4-1.7.1-2.2-1-1.6 2.6-2.5 3.7-.9.7 1 .8.8.5-.9-.6-2.6 1-2.9 2.8-.5.7.9 1.7 1.3 2.4.9.9-.6.9-1.2-.3-2.5-2.2-2.4-.7-3.5 1.7-1.4 1.9 1.7 1.9 1.7 1.3-.5-.6-1.8-.3-2.2 1.2-2.2 1.1 0 2.3-.7 2.6-1.6.6-1.5.8-1.5 2.6.1 2.4 2.2 3.8 1.4 1.5-.9-1.5-1.5-1.5-1.6 0-1.6.9 0 2.3-.7 3.2-1.5.8-.8 1.9-1.3 2.4-.9.5.3 1.2-.2 1.5-1 .3-.9 1.2-1.6 1.9-1.6s2.6-.6 4.2-1.4c1.5-.8 3.9-1.9 5.3-2.4 1.4-.6 5-2.2 7.9-3.6 3-1.4 6-2.6 6.7-2.6.6 0 3.2-.9 5.6-2 2.5-1.1 6.9-2.5 9.9-3.1 3-.6 5.9-1.5 6.4-1.9.6-.4 3.3-1.2 6-1.9 2.8-.7 6.6-1.6 8.5-2.1 1.9-.5 4.6-1.1 6-1.4 2.5-.5 24.4-5.4 24.7-5.5.1-.1.8.2 1.7.5zm5.9 1.1c-.7.2-1.9.2-2.5 0-.7-.3-.2-.5 1.2-.5s1.9.2 1.3.5zm6 0c-.7.2-1.9.2-2.5 0-.7-.3-.2-.5 1.2-.5s1.9.2 1.3.5zm-1.6 10.9c-.3.3-1.2.4-1.9.1-.8-.3-.5-.6.6-.6 1.1-.1 1.7.2 1.3.5zm20.8 8.8c5.5 1.5 11.9 4.5 11.1 5.3-.2.2-1.3 0-2.4-.6-1.1-.6-2.7-.8-3.5-.5-.8.3-1.8.1-2.2-.5-.9-1.6-3.2-1.3-3.9.5-.4 1.2-.1 1.4 1.4.9 2.4-.8 2.9 2 .5 2.9-1.7.6-2.1 3.6-.5 3.6.6 0 1 .7 1 1.5s.6 1.2 1.4.9c.8-.3 1.7 0 2.1.7.6.9 0 1-2.1.5-15-3.3-28.4-3.6-40.6-.7-4.6 1-11 2.4-14.3 3.1-18 3.4-53.6 16.4-77 28l-6 3-2-2.5c-2.5-3-3.5-3.2-3.5-.6 0 1.4-.5 1.8-2 1.4-1.4-.4-2 0-2 1.1 0 .9.7 1.6 1.5 1.6 2.4 0 1.7 2-1.1 3-3.3 1.3-5.7 1.3-4.9 0 .3-.6 1.5-1 2.6-1 1 0 1.9-.5 1.9-1 0-1.6-3.3-2.6-3.8-1.2-.2.7-1.2 1.2-2.2 1.2-1 0-2 .5-2.2 1.2-.3.7-1 .8-1.7.4-.9-.6-.8-1.3.8-2.7 1.1-1 2.2-1.9 2.5-1.9.2 0 2.8-1.6 5.7-3.5 3-1.9 5.7-3.5 6.1-3.5.4 0 2.9-1.5 5.5-3.3 2.7-1.9 7.1-4.4 9.8-5.7 2.8-1.2 10.4-4.9 17-8.1 19.9-9.6 60.7-22.2 77.4-23.8 13.5-1.3 24.2-1.2 29.6.3zM655 124c1.3.8 1.3 1-.2 1-.9 0-2-.5-2.3-1-.8-1.3.5-1.3 2.5 0zm-191.3 12.6c-.3.3-1.2.4-1.9.1-.8-.3-.5-.6.6-.6 1.1-.1 1.7.2 1.3.5zm-20.7 3c0 .8-.5 1.2-1 .9-.6-.4-.8-1.1-.5-1.6.9-1.4 1.5-1.1 1.5.7zm-3.2.6c-.2.6-1 1.4-1.6 1.6-.7.2-1-.2-.6-1.2.7-1.8 2.8-2.2 2.2-.4zm16.2.2c0 .3-.4.8-1 1.1-.5.3-1 .1-1-.4 0-.6.5-1.1 1-1.1.6 0 1 .2 1 .4zm-20.1 3c1 1.2.9 1.3-.7.9-2.8-.7-3.5 1.1-1.4 3.4 2.4 2.7 5.2 3.6 5.2 1.8 0-.8.7-1.5 1.6-1.5 1 0 1.4-.6 1.1-1.4-.4-1 0-1.2 1.4-.9 1 .3 1.9 0 1.9-.6s.9-1.1 2-1.1c2 0 2 0 .1 1.9-1.1 1.1-2.9 2.5-4.1 3.1-1.2.6-2.9 1.8-3.8 2.5-.9.7-6.8 5.5-13.1 10.7-6.2 5.1-12.5 10.2-14 11.2-1.4 1-6.1 6.1-10.5 11.3-7.2 8.6-8 9.2-9.6 7.8-2.1-1.9-3-1.9-3 0 0 .8-.4 1.5-1 1.5-.5 0-1-.4-1-.9 0-.6.5-1.3 1-1.6 1.5-.9 1.2-3.5-.3-3.5-.8 0-2.5 2.1-3.8 4.7-2.4 4.8-6.4 10.9-8.3 12.8-1.5 1.3-9.6 12.3-9.6 12.9 0 .9-8.3 14.1-9.4 15.1-.7.5-2.5 3.1-4 5.7-1.8 3.1-3.5 4.8-4.7 4.8-1.5 0-1.7-.4-1-1.8 2.7-5.3 3.3-7.3 2.8-9.1-.3-1.2-.1-2.3.4-2.6.4-.3.5-1.3.2-2.2-.5-1.2-.2-1.5.9-1.1 1.2.5 1.7-.8 2.6-6.4.7-4.6 1.9-8.3 3.5-10.5 5.9-8.3 13.3-15.4 20.5-19.9 4.2-2.6 7.9-5.2 8-5.6.2-.4.8-.8 1.4-.8.6 0 2.1-1.1 3.4-2.5 1.3-1.4 2.8-2.5 3.4-2.5.5 0 1-.4 1-1 0-1.4 3.2-5 4.5-5 .5 0 1.8-1.4 2.7-3 .9-1.7 2.4-3 3.2-3 .8 0 1.7-.9 2.1-2 .3-1.1 1.8-2.9 3.3-4.1 1.5-1.1 4.3-3.5 6.2-5.2 7.5-6.9 12-9.9 12-8.3 0 .9.7 1.9 1.5 2.2.8.4 1.5 1.2 1.5 2s.5 1.4 1 1.4c1.7 0 1.1-2.6-1-4.5-2.6-2.4-2.5-3.9.3-5.3 1.2-.6 2.3-1.1 2.3-1.1.1-.1.7.5 1.3 1.3zm23.6 11.6c.3.5.1 1-.4 1-.6 0-1.1-.5-1.1-1 0-.6.2-1 .4-1 .3 0 .8.4 1.1 1zm48.5 2c-2 1.3-3.3 1.3-2.5 0 .3-.6 1.4-1 2.3-1 1.5 0 1.5.2.2 1zm-13 5c0 .5-.4 1-.9 1-.6 0-1.3-.5-1.6-1-.3-.6.1-1 .9-1 .9 0 1.6.4 1.6 1zm-9 1c0 .5-.5 1-1.1 1-.5 0-.7-.5-.4-1 .3-.6.8-1 1.1-1 .2 0 .4.4.4 1zm6 .5c0 .5-5.5 3.5-6.5 3.5-.3 0-.5-.5-.5-1 0-.6.9-1 2-1s2-.5 2-1c0-.6.7-1 1.5-1s1.5.2 1.5.5zm-27 3.6c0 .5-.4.9-1 .9-.5 0-1-.7-1-1.6 0-.8.5-1.2 1-.9.6.3 1 1 1 1.6zm-4 2.4c0 1.2-1.9 1.2-2.3 0-.4-.9-.1-1.2.9-.8.7.3 1.4.7 1.4.8zm-6 16.5c0 .5-.7 1-1.5 1s-1.5-.5-1.5-1c0-.6.7-1 1.5-1s1.5.4 1.5 1zm-4 3c0 .5-.5 1-1.1 1-.5 0-.7-.5-.4-1 .3-.6.8-1 1.1-1 .2 0 .4.4.4 1zm-59.4 7.2c-.3.7-.9 2.1-1.2 3-.4 1-1.1 1.8-1.6 1.8s-.7-.6-.4-1.3c.3-.6.9-2 1.2-3 .4-.9 1.1-1.7 1.6-1.7s.7.6.4 1.2zm-308.9 17c-.3.8-.6.5-.6-.6-.1-1.1.2-1.7.5-1.3.3.3.4 1.2.1 1.9zm171.1 6.3c-.2 4.7-.6 8.5-1 8.5-1 0-1.1-15.4-.1-16.3 1.3-1.3 1.4-.6 1.1 7.8zM9.4 221c1.6 1.7 2.6 3.3 2.3 3.6-1.1 1.2-7.7-3.7-7.7-5.7 0-1.8 2.6-.8 5.4 2.1zm234.3 6.6c-.3.3-1.2.4-1.9.1-.8-.3-.5-.6.6-.6 1.1-.1 1.7.2 1.3.5zM337 234c0 .5-.4 1-.9 1-.6 0-1.3-.5-1.6-1-.3-.6.1-1 .9-1 .9 0 1.6.4 1.6 1zm499 14c0 .5-.2 1-.4 1-.3 0-.8-.5-1.1-1-.3-.6-.1-1 .4-1 .6 0 1.1.4 1.1 1zm-304.7 33c11.2 2.3 11.8 2.5 11 4.5-.3.8 0 1.5.5 1.5 1.6 0 5.9 4.6 6.7 7 .4 1.1.2 2-.4 2-.6 0-1.1-.5-1.1-1 0-.6-.4-1-1-1-1.4 0-1.3 3.3.2 4.8 1.3 1.3-.6 4.2-2.8 4.2-.8 0-1.4.3-1.4.7 0 .5-5.9.9-13.1.9-15.6.2-36.1 3.6-40.3 6.7-1.7 1.2-1 1.4 5.7 1.1 4.3-.2 7.9.1 8.2.6.3.6-.3 1-1.4 1-1.1 0-2.8 1.4-4.1 3.5-1.6 2.6-2.8 3.5-4.9 3.5-2.8 0-10.6 2.9-19.6 7.3-5.8 2.9-13.9 9.1-19.3 14.8-2 2.1-4.3 3.9-5.1 3.9-.8 0-1.2.3-.8.6.3.4-1 2.1-2.9 3.9-3 2.9-3.6 4.2-3.9 8.7-.8 9.8-.5 18.5.8 20.5.4.6.2 1.5-.5 2-.9.5-1.1 2.3-.8 5.5.3 3.2.9 4.5 1.6 4 1.1-.6 1.9-5.9 2.8-16.4.1-2 .8-4.3 1.4-5 .6-.8 1-2.3.8-3.4-.2-1-.1-1.3.1-.7.3 1 .9.9 2-.3.9-.9 2.6-1.4 4-1.1 1.2.2 2.3.1 2.3-.3s9.6-.8 21.3-.8c11.6-.1 22.7-.4 24.6-.6 4.6-.6 11.9-1.7 13.9-2.1 16.9-3.5 20.9-4.1 33-5 3.5-.3 6.7-.7 7.1-1 .5-.2 5-.8 10.1-1.1 7-.5 9.1-.4 8.6.5-.4.7-1.6.9-2.6.6-1.4-.5-1.6-.1-1.2 2.2l.5 2.8-2.1-2.5c-1.7-2-2.1-2.1-2.2-.8 0 .9.6 1.8 1.3 2.1.8.3.7.9-.6 1.9-1.7 1.3-1.7 1.5-.3 2.7 1.4 1.2 1.6 1.2 1-.3-.4-1.1-.1-1.6 1-1.6.9 0 1.9-.7 2.3-1.6.3-.8 1.2-1.3 1.9-1 .8.3 1.4-.1 1.4-.9s.7-1.5 1.5-1.5c2.4 0 1.8 1.5-3 6.5-2.5 2.5-4.3 5.1-4 5.6.4.5.2.9-.4.9-.5 0-1.1-.5-1.3-1.2-.8-2.2-1.5.6-.9 3.2l.7 2.4 2.3-2.3c1.4-1.4 2.9-2 3.9-1.6 1.3.5 1.1 1-1.3 3-1.7 1.3-3.5 2.4-4 2.5-.6 0-2.1 1.3-3.5 3-1.4 1.6-3 3-3.7 3-.7 0-1.3.4-1.3 1 0 .5-.7 1-1.5 1s-1.5.4-1.5 1c0 .5-.6 1-1.4 1-1.8 0-9.6 5.1-9.6 6.2 0 .8-5 3.1-5.9 2.8-.2-.1-.7.2-1 .7-1.1 1.6-9.1 6.3-10.6 6.3-.8 0-1.5.4-1.5.8 0 1.8-27.8 12.2-32.5 12.2-.8 0-1.5.4-1.5 1 0 2.4 13.1.6 26-3.6 6-2 22-10.1 24.6-12.5 1.1-1 2.4-1.9 2.8-1.9.4 0 2.6-1.3 4.9-2.8 2.3-1.6 9.1-5.7 15.1-9.2 10-5.7 13.8-8.5 20.4-14.8 1.2-1.2 2-2.7 1.7-3.2-.3-.6.1-1 1-1 1 0 1.3.5.9 1.2-.5.7-.3.8.5.3.9-.5.9-1.1.3-1.7-.7-.7-.4-2.1.8-4.2 1.5-2.8 1.6-3.5.4-5.1-.8-1-1.4-2.4-1.4-2.9 0-.6.5-.4 1 .4.9 1.3 1.1 1.3 2 0 .8-1.2 1-.9 1 1.3 0 2.3.2 2.6 1.3 1.5 2.1-2.3 3.8-5.8 2.8-5.8-.6 0-1.5.8-2 1.7-1 1.7-1 1.7-1.1 0 0-.9.4-1.7 1-1.7.5 0 1.6-1.2 2.5-2.8l1.6-2.7-.4 2.7c-.3 2.2 0 2.8 1.4 2.8 1.5 0 1.9-.8 1.9-4 0-3.3.3-4 2-4 1.1 0 2-.5 2-1 0-.6-.8-1-1.7-.8-1.4.2-1.8-.4-1.7-2.7.3-5.6.5-6.1 1.3-4 .5 1.1.6 2.4.3 2.9-.2.5.1.6.9.4.8-.3 1.3-1.1 1.1-1.8-.3-1.1 0-1.1 1.2 0 1.4 1 1.6 1 1.7-.6.1-1.1.1-2.3 0-2.8-.3-1.5 2.1-6.6 3-6.6.5 0 1 .8 1 1.7.1 1 .5-.7.9-3.7.5-3 1-6.7 1.3-8.3.4-2.3.2-2.5-1-1.5-.8.6-1.2 2-1 3 .3 1 .1 2.1-.4 2.4-.5.3-.7.9-.4 1.3.2.5-.2 1.7-1 2.7-1.4 1.8-1.4 1.8-1.6-.6 0-1.4-.3-3.6-.5-5s-.5-3.3-.5-4.3c0-.9-.7-1.7-1.5-1.7-1.2 0-1.3-.4-.4-2.1 1.2-2.2.8-3.5-.9-2.5-.6.4-.8 1.3-.5 2 .3.8.1 1.7-.4 2-.5.3-.7 1.8-.5 3.3.4 2.6.3 2.7-1.1 1-.8-1.1-1.2-2.5-1-3.2.3-.7-.1-2.4-1-3.7-1.5-2.3-1.8-5.2-1-9.5.4-2 1-2.2 7.2-2.2 3.7 0 7.6-.3 8.7-.5 15-3.5 20.6-4.6 23.6-4.6h3.7l1.3 8.5c1.1 7.8 1.1 8.6-.6 10.5-1.1 1.2-1.3 2-.6 2 .9 0 .9.5-.1 2.2-2.5 4.6 0 11.8 4 11.8 1.8 0 2.3.4 1.8 1.6-.3.8-.2 1.2.4.9.6-.3 1-.1 1 .4 0 .6.7 1.1 1.5 1.1.9 0 1.5-1 1.6-2.8.1-2.1.3-1.9.9 1.3.5 2.2 2 8.3 3.5 13.5 2.3 8.2 2.7 11.8 3 26.5.4 20.9 1.4 31 4.7 47.2 1 5.1 1.6 6.2 2.9 5.8 1.7-.6 4.9 1.8 4.9 3.6 0 .5 1.1 2.1 2.5 3.6 4.2 4.7 10.3 13.2 11.1 15.5.4 1.2 1.7 3.1 3 4.1 1.3 1 2.5 2.8 2.5 4 .1 2 .2 2.1.6.2.3-1.1 1-2.5 1.5-3 .8-.7.8-.6.3.4-.6 1-.4 1.2.4.7.9-.6.9-1.2-.3-2.5-.9-1-1.6-2.4-1.6-3.2 0-.8-.7-2.4-1.5-3.6-.8-1.2-1.2-2.8-.9-3.6.3-.8.1-1.8-.5-2.2-.6-.3-1.1-1.9-1.1-3.5s-.5-3.2-1-3.5c-.6-.4-.9-1.2-.8-1.8.1-.7-.6-2.6-1.5-4.4-.9-1.8-1.7-4.3-1.7-5.8 0-1.4-.4-2.5-1-2.5-.5 0-1 .7-1 1.5s-.4 1.5-1 1.5c-2 0-1-2.7 1.5-4 1.4-.7 2.5-1.9 2.5-2.6 0-.7.3-2.1.6-3.1.5-1.5.4-1.5-.5-.3-.7 1-1.1 1.1-1.1.2 0-.6-.9-1.2-2.1-1.2-1.8 0-2-.4-1.4-2.9.3-1.7.2-3.2-.4-3.6-.8-.4-.6-1.1.3-2.1 2-1.9 2.9-1.8 1.8.3-1.1 2.1-.5 4.3 1.2 4.3.6 0 2 .9 2.9 2.1 1.4 1.6 2.1 1.8 3.2.9 1.4-1.1 1.4-3.4.2-4.7-.4-.4-1.1.4-1.5 1.7-.5 2.1-.7 1.8-1.3-1.9-.7-5.5.2-10.3 2.1-10.9 1.3-.3 1.3-.2 0 .7-1 .7-1.1 1.1-.2 1.1.6 0 1.2 1.1 1.2 2.4 0 1.4.4 2.8 1 3.1.5.3.7 0 .4-.8-.3-.8.2-1.7 1-2 .9-.4 1.6-.2 1.6.4 0 .6.6.7 1.3.3.9-.6.9-.5 0 .8-1.4 1.6-.8 2.8 1.3 2.8 1.5 0 1-7.3-.5-7.8-1.6-.5-1.3-2.2.4-2.2.8 0 1.5.5 1.5 1.2 0 .6.3.8.6.5.4-.4.1-1.3-.5-2.1-.7-.8-1-1.9-.7-2.4.3-.6-.4-1.2-1.6-1.5-2.9-.8-3.6 0-1.3 1.7 1.4 1 1.5 1.5.5 2.1-1.5.9-5.3-3.1-4.7-4.9.5-1.4 7.5-2.5 21.8-3.2 9.9-.5 12-.4 14.2 1.1 1.7 1.1 3.4 1.4 4.9.9 2-.6 2.1-.5 1 .9-2.1 2.5-.5 3.9 2.3 2.1 1.6-1 2.5-1.2 3-.4.4.6 1.5.8 2.4.5 2.5-.8 3.9 1.4 3.6 5.6-.1 2 .1 4.3.6 5 .6.9.9.1.9-2.4 0-2.3.4-3.6 1.2-3.5.7.2 1.2-.3 1.3-1 0-.6.4-1.2 1-1.3 1.4-.1 2.4 3.4 1.4 5.3-.5 1-.9 3-.7 4.5.2 3.6-1.1 7.5-2.3 6.8-.5-.4-.9-.2-.9.4 0 1.6 2.2 2.5 3 1.1.5-.8.9-.7 1.3.4.4.9 1.2 1.6 1.9 1.5 1 0 1-.2.1-.6-.7-.2-1.3-1.1-1.3-1.9 0-.8-.6-1.4-1.2-1.4-1 0-.9-.3.1-.9.7-.5 1-1.4.7-2-.4-.6-.1-1.3.6-1.6.8-.3 1.5-1.5 1.5-2.7.2-2.5 1.9-4.5 2.1-2.6.3 1.8.9 7 1.1 8.7.1 1.1.6 1 2.1-.4 1.3-1.2 2-2.9 1.8-4.4-.2-1.4.2-2.6.7-2.6.6 0 1 .5 1 1.2 0 .6.3 1.5.7 1.9.4.3.3 1.6-.3 2.7-.7 1.2-.7 1.7-.1 1.3.5-.3 1.3.5 1.6 1.9.5 1.8 1.3 2.5 3.2 2.5 1.3 0 2.7.7 3 1.5.4.8 1.4 1.5 2.4 1.5 1.1 0 2.2.4 2.5 1 .3.5 1.7 1 3 1s2.6.4 2.9.9c.3.4 2 1.2 3.8 1.6 1.8.4 3.5.9 3.8 1 .3.1 1.2.5 2 .8 3.7 1.5 14.1 4.7 15.4 4.7 4.7 0 14.5 10.8 17 18.7.4 1.3 2.4 4 4.4 6.1 2.9 3 4.3 3.8 6.3 3.5 1.9-.2 2.8.2 3.2 1.4 2.2 6.9 7.1 25.3 8.7 32.8 3.1 14.3 2.3 43.5-1.8 68.5-.7 3.8-.9 4.1-1.6 2.3-.4-1.3-.5-2.7-.1-3.2.3-.5.1-1.2-.5-1.6-.6-.4-1 .6-1.1 2.2 0 2.5-.1 2.6-.9.8l-.9-2-.1 2c-.2 1.4-.5 1.1-1-1-.5-1.8-.8-2.2-.9-1.1 0 1-.9 2.5-1.8 3.2-1.7 1.3-1.7 1.3.1 1.4 1.5 0 1.6.3.7 1.4-.7.8-1.9 1.3-2.9 1.2-1.5-.3-4.2 1.5-4.2 2.8 0 .2 1.2.4 2.7.3 1.6-.2 3.6.6 4.7 1.7 1.7 1.7 1.7 2 .2 2.8-.9.5-1.6 1.5-1.6 2.3 0 .9-.6 1.2-1.6.8-.9-.3-1.9 0-2.4.7-.4.6-1.5 1-2.4.8-1.4-.2-1.2-.7.9-3 2.6-2.8 3.2-4.8 1.5-4.8-.5 0-1 .7-1 1.6 0 1-.6 1.4-1.5 1-.8-.3-1.5-.1-1.5.5s-.4.8-.8.5c-1-.6-1.2 2.5-.2 3.9 1.7 2.5-3 26.3-5.5 27.7-.7.5-1.1 1.7-.8 2.7.3 1.1 0 2.8-.6 3.8-1 1.7-1 1.7-1.1 0 0-.9-.4-1.7-1-1.7-.5 0-1 .4-1 1 0 .5-.4 1-1 1-.5 0-1-1.1-1-2.5 0-2.8-1.2-3.2-3-1-.7.8-1.6 1.2-2.1 1-.4-.3-.2.7.6 2.1 1.9 3.8-.4 7.8-5 8.6-1.7.2-2-.3-2.1-3 0-1.8-.5-3.7-1.2-4.4-.8-.8-.8-1.7-.1-3 1.3-2.5.3-3.6-2-2.1-2.2 1.4-3.8-.9-3.4-5.2.8-10.8.6-14.8-.7-14-.5.3-1-.3-1-1.5s-.4-1.9-1-1.5c-.5.3-.6 1.3-.3 2.2.4 1 .2 1.4-.4 1-.6-.4-1.3-.2-1.5.5-.2.6-1 .8-1.6.4-1.5-.9-1.6-3.6-.2-3.6.6 0 1-.7 1-1.5s.9-1.5 1.9-1.5c1 0 2.2-.7 2.5-1.6 1.6-4.1-.1-4.5-4.7-1-3.7 2.7-10.2 5-11.7 4.1-.5-.3-1-.1-1 .5s-.5.8-1.2.4c-.6-.4-.8-.3-.5.3.4.6 3 1 5.8.9 4-.2 5.2.1 6 1.6.7 1.3.6 1.8-.5 1.8-.9 0-1.2.7-.9 2 .3 1.1.1 2-.5 2-1.4 0-3.3-2.5-2.5-3.3.3-.4.3-.7 0-.7s-1.1.9-1.7 2c-.8 1.5-.7 2.7.4 4.7 1.5 2.8 1.6 2.8 2.2.5.6-2.1 2.3-3.1 2.5-1.5 0 .5.2 1.8.5 3 .2 1.3-.1 2.3-.7 2.3-.5 0-.7.4-.4 1 .3.5.1 1-.5 1s-1.3-.7-1.6-1.5c-.5-1.2-1-1.3-2-.4-1.8 1.4-5.7.1-5-1.7 1-2.7-.4-4.2-3.5-3.7-2.8.4-3.6-.6-3-4 .1-.5-.3-.6-.8-.3-.5.4-1.2 0-1.4-.6-.3-.7-.6-.2-.7 1.2l-.2 2.5-.7-2.5c-.8-3.1-5.1-4.2-5.1-1.3 0 1.1.5 2.4 1.2 3.1.9.9.6 1-1.2.7-1.3-.3-2.8-1.1-3.2-2-.5-.8-1.3-1.5-1.8-1.5-1.5 0-1.2 2.8.3 3.3.9.3.9.7-.1 1.9-.9 1.1-1 2.3-.2 4.2 1.3 3.5 1.3 5.6-.1 5.6-.5 0-.9-.8-.8-1.8.2-.9-.2-2.7-.9-3.9-.7-1.2-.8-2.4-.3-2.7 1-.7.9-2.5-.2-4.4-.5-.6-.5-1.7-.2-2.2.3-.6-.1-1-.9-1-.9 0-1.6.4-1.6 1 0 2.6-1.8.6-2.3-2.5-.4-2.4-2.1-5.1-5.6-8.6-2.7-2.8-6.5-7.1-8.3-9.6-5.3-7.4-14.9-16.4-23.1-21.9-5-3.3-11.7-9.4-11.7-10.7 0-2.4-13.1-19.1-20.3-25.9-5.3-5-7.6-7.8-6.4-7.8.9 0 1.7-.6 1.7-1.3 0-.8 1.2-2 2.6-2.7 3.9-2.1 6.6-6.4 5.8-9.4-.5-2-.2-2.8 1.2-3.3 1.2-.5 2-1.9 2.1-3.8 0-1.7-.1-2.4-.4-1.8-.7 1.9-3.3 1.6-3.5-.5-.1-.9-.2-2.4-.3-3.2-.2-2.3-2.8-6-4.2-6-.7 0-1.3-.6-1.3-1.3 0-1.6-9.7-5.9-13.5-6-1.6 0-3.5-.4-4.2-.9-1.4-1.1-3.6-.1-2.8 1.3.4.5.1.9-.4.9-.6 0-1.1-.7-1.1-1.5s-.4-1.5-.9-1.5-1.2-1.4-1.6-3c-.7-3.3-1.9-3.7-4-1.6-1.2 1.1-1.1 1.7.1 3.5 1.1 1.5 1.2 2.1.3 2.1-.8 0-.6.6.4 1.8 1.5 1.7 1.5 1.8-.8 1.8-1.4 0-2.1-.4-1.7-1.1 1.2-1.9.9-3-1.4-5.5l-2.4-2.4.5 2.4c.2 1.3-.1 3-.8 3.8-.9 1.2-.9 1.6.1 1.9 2.3.9 1.2 2.3-1.9 2.3-2.6 0-2.9-.3-2.4-2.1.6-1.7.3-2-1.2-1.7-1.1.2-1.7 1.1-1.5 2.1.2 1.5-.3 1.7-4 1.3-2.4-.3-6.8-1.2-9.8-2.1-11.7-3.4-21.7-1.6-33.6 6-3 1.9-5.7 3.5-6 3.5-.3 0-2.6 1.8-5 3.9-2.9 2.5-5.9 4.2-8.5 4.6-6.7 1.1-7.5 5.6-1.6 9 1.8 1 3.4 2.1 3.7 2.5.3.4 1.9 1.2 3.5 1.8 1.7.6 5.6 2 8.7 3.1 4.6 1.7 6.2 1.9 8.2 1 2.2-1 4.3-5 3.7-7.3-.8-3.3 1.3-6.5 5.5-8.7 2.5-1.3 6.5-4 8.9-6.1 4.6-4.1 9.4-5 13.7-2.7 1.8 1 2.4.8 4.1-1.5l1.9-2.7 3.5 2.1c1.9 1.1 4.7 2 6.3 2 1.6 0 3.2.4 3.5 1 .3.5 1.3 1 2.1 1s1.2-.5.9-1c-.9-1.4 1.7-1.2 3.8.4 1.8 1.4 2.3 4.6.7 4.6-.5 0-1 .5-1 1.1 0 .6 1.2.1 2.7-1 3.1-2.5 3.7-2.2 2.4 1.1-.9 2.3-.7 2.5 1.5 2 1.3-.2 2.4-1.1 2.4-2.1.1-1.5.2-1.5 1.3 0 .7.9 1.8 1.8 2.6 2 1.1.4 1.1.8-.2 2.1-1.7 1.6-1.3 2.8.9 2.8.8 0 1.1-.6.8-1.5-.4-.8-.1-1.5.4-1.5 2.5 0 2.1 2.2-.9 6-3.2 4-5.7 4.8-5.1 1.6.3-1.8-.6-2-2.7-.7-.7.5-1.1 1.5-.9 2.2.5 1.4-5.7 6.8-7.9 6.9-.7 0-1.6.7-2.1 1.6-1.1 2-11.8 2.5-15.3.7-1.3-.6-5.1-2.3-8.4-3.6-14.7-6.1-16.5-6.2-23-1.9-2.2 1.4-6.2 3.4-9 4.4-2.7 1-5.4 2.4-6 3.1-.5.7-4.5 5.8-8.7 11.3-10.6 14-16.9 19.2-25.4 21.3-31 7.4-48.7 16.8-56.1 30.1-1.4 2.5-4.5 7.6-6.8 11.5-2.4 3.8-4.6 8.1-5 9.5-.9 3-5.5 7.9-7.4 8-.7 0-2.7 1.1-4.3 2.5-1.7 1.4-3.5 2.4-4.1 2.2-1.7-.5-2-2.7-.4-2.7.9 0 1.4-1 1.3-2.9-.1-2.5-.6-3.1-3.2-3.6-1.7-.3-8.5-3.7-15-7.7-12.1-7.2-23.3-12.8-25.6-12.8-.7 0-2.6-1.4-4.1-3-1.6-1.7-3.3-3-3.9-3-.5 0-2.2-.8-3.6-1.8-1.5-1-4.3-2.5-6.2-3.2-1.9-.8-4-2-4.5-2.7-.6-.8-2.2-1.9-3.5-2.6-1.6-.8-2.5-2.1-2.5-3.7 0-1.8-.7-2.6-2.2-2.8-1.2-.2-2.3-1.3-2.7-2.5-.3-1.2-3-4.3-6.1-6.9-7.4-6.2-14.6-15-14.9-18.3-.2-1.5-.7-3-1.2-3.3-1.6-1.1-4.2-22.5-4.3-35-.1-4.6-.4-6.3-1.3-6-.7.3-1.4 1-1.4 1.6-.1.7-.2 1.6-.3 2.2 0 .5-.5 1-.9 1-2.5 0 .6-38.4 3.3-40.3.6-.4.5-1-.5-1.7-1.3-.8-1.3-1.1-.1-1.9.7-.5 1.1-1.3.8-1.7-.3-.5.6-8.1 1.9-16.9 1.3-8.8 2.4-16.7 2.4-17.5 0-1.2.2-1.2.9-.2 1.1 1.8 2-1.9 1.7-6.6-.2-2.5.1-3.2 1.6-3.2s1.7-.5 1.2-2.8c-.4-1.5-1.1-3-1.6-3.3-1.1-.7.2-7 1.3-6.3.5.2.6 1.7.3 3.3-.4 2-.1 3 1 3.4 1.3.5 1.6.1 1.4-2-.2-1.5.3-2.8 1.1-3.1 1-.3 1.1 0 .5.9-.6 1.1-.3 1 1.1-.1 1.7-1.4 1.8-1.3 1.1.5-.6 1.6-.5 1.7.5.8.8-.8 1.7-.9 2.4-.3.8.6 1.2.6 1.3-.3 0-.6.2-2.1.5-3.2.2-1.1.2-1.4 0-.8-1 2.8-2.5 1.2-1.9-1.9.4-2.2.1-3.7-1-4.9-1.4-1.6-1.4-2-.2-3.3 2.4-2.4 10.1-5.4 14.8-5.8 2.5-.2 5-.7 5.5-1 .6-.3 2.8-.9 5-1.3s4.8-1.2 5.8-1.7 2.8-1.1 3.9-1.3c1.1-.3 2.8-1.1 3.7-1.8.9-.8 3.4-2.1 5.6-2.8 2.2-.7 4.2-1.4 4.4-1.6 1.3-.8 1.1-7.7-.3-9.8-.9-1.4-1.2-2.5-.6-2.5.5 0 1-.9 1-2s.9-2.9 1.9-3.9c2.7-2.7 4.1-5.5 4.1-8.3 0-1.3.6-3.4 1.3-4.8 3.8-7.1 7.1-12.7 8.5-14.3 3.5-3.9 13.2-9.6 20.2-11.7 4.1-1.3 8-2.7 8.5-3.1 1.2-.9 14.9-4.4 21-5.5 2.2-.3 5.8-1 8-1.4 7.4-1.4 17.9-1 27.8 1zm16.3 4.1c.3.6 1.5.9 2.5.6 2.4-.7 2.4-.1-.2 2.6-1.1 1.2-2 1.7-1.9 1.2.4-2.1 0-3.6-.9-3.1-.5.3-1.4-.1-2.1-.9-1-1.2-1-1.5.3-1.5.9 0 1.9.5 2.3 1.1zM75 300c0 7.7-.3 14-.7 14-.5 0-.8-5.7-.7-12.8.1-13.8.1-15.2.9-15.2.3 0 .5 6.3.5 14zm482.5-13c.3.5-.1 1-1 1s-1.3-.5-1-1c.3-.6.8-1 1-1 .2 0 .7.4 1 1zm-4 6c1.2 2.3 1.2 3 .3 2.8-1.7-.4-2.8-1.9-2.8-4.1 0-2.5.7-2.1 2.5 1.3zm6.5-1c0 .5-.5 1-1.1 1-.5 0-.7-.5-.4-1 .3-.6.8-1 1.1-1 .2 0 .4.4.4 1zm200.6 1.9c-.3.5-4.3.8-8.8.6-4.6-.1-8.8.2-9.5.7-.7.6-1.7.7-2.4.3-.8-.6-.7-1 .2-1.6 1.9-1.2 21.2-1.2 20.5 0zm6.4.1c0 .5-.7 1-1.5 1s-1.5-.5-1.5-1c0-.6.7-1 1.5-1s1.5.4 1.5 1zm6.2 1.3c4.1 2.1 5.8 4.3 4.5 5.6-1.4 1.4-1.8 4.1-.6 4.1.6 0 .8.4.5.9-.9 1.4-5.6 0-5.6-1.6 0-.8.9-1.7 2-2 1.1-.3 2-.9 2-1.4 0-1.2-3.8-4.9-5-4.9-.5 0-1-.5-1-1 0-1.3.3-1.3 3.2.3zm-34.9 1.8c1 1.1 1.7 2.3 1.4 2.5-.9.9-3.7-.9-3.7-2.3 0-.8-.5-1.1-1.1-.8-.6.4-.8 1.3-.5 2.1.3.8.1 1.4-.4 1.4-.6 0-1-.4-1-.9 0-1.6-3-2.1-5.5-.9-1.8.8-2.2 1.4-1.3 1.9.7.4 1.5.4 1.8-.2.4-.5.5.9.4 3.1-.1 2.3-.4 4.4-.8 4.7-.6.6-1-1.2-.7-3 .2-1.3-2.1-.8-3.3.8-.9 1.2-1.4 1.1-3.5-1-1.3-1.4-1.8-2.5-1.3-2.5.6 0 1.4.4 1.7 1 .9 1.4 2.8 1.2 5.1-.6 1-.8 1.3-1.3.6-.9-.7.4-2.4-.1-3.9-1-1.5-1-2.8-1.3-3.2-.8-.5.9-5.2 1.6-8.6 1.3-7.5-.5-10.2-1.9-3.9-2.1 2.1 0 4.8-.2 5.9-.4 1.1-.2 5.3-.9 9.4-1.4 4.1-.6 7.6-1.3 7.9-1.6 1.4-1.4 6.9-.3 8.5 1.6zm5.7.5c0 .8-.5 1.2-1 .9-.6-.4-.8-1.1-.5-1.6.9-1.4 1.5-1.1 1.5.7zm15.8-.4c.3-1 .7-1 1.8-.1 2.7 2.3 1.6 3.7-2.8 3.3-4.9-.4-5.4-.8-3.7-2.7 1.1-1.2 1.7-1.2 2.8-.3 1.1.8 1.5.8 1.9-.2zM205 298c-.8.5-1.5 1.5-1.5 2.2 0 .9-3.5 1.6-11.9 2.5-6.6.6-13 1.4-14.4 1.8-2.3.6-5.2-.9-5.2-2.6 0-.5.7-.9 1.5-.9s1.5.6 1.5 1.2c0 .9.3 1 .8.2 1.4-2.2 5.2-3.4 10.6-3.4 3.4 0 5.6.5 5.9 1.2.3.8.6.6.6-.4.1-1.3 1.2-1.8 4.9-2.1 2.6-.2 5.6-.4 6.7-.5 1.6-.1 1.7 0 .5.8zm348.3.2c-.4.7-.8 1.6-.8 2 0 1.7-1.5 1.9-1.5.1 0-2.1.8-3.3 2.2-3.3.5 0 .6.6.1 1.2zm214.4 2c-.3.8-.6.5-.6-.6-.1-1.1.2-1.7.5-1.3.3.3.4 1.2.1 1.9zM208 300c0 .5-.7 1-1.6 1-.8 0-1.2-.5-.9-1 .3-.6 1-1 1.6-1 .5 0 .9.4.9 1zm576 1c0 .5-.7 1-1.6 1-.8 0-1.2-.5-.9-1 .3-.6 1-1 1.6-1 .5 0 .9.4.9 1zm-68.1 2.7c-1 1.1-1 1.4-.1.9.7-.4 1.2-.2 1.2.4 0 .7.7 1 1.5.6.8-.3 1.5-.2 1.5.3 0 .8-5.2 2.3-5.8 1.6-.2-.1-.5-1.4-.8-2.9-.4-2.1-.1-2.6 1.7-2.6 1.9 0 2 .2.8 1.7zm18.1-.7c0 .5-.5 1-1.1 1-.5 0-.7-.5-.4-1 .3-.6.8-1 1.1-1 .2 0 .4.4.4 1zm54 0c0 .5-.7 1-1.5 1s-1.5-.5-1.5-1c0-.6.7-1 1.5-1s1.5.4 1.5 1zm-79 1c0 .5.7 1 1.5 1s1.5.4 1.5 1c0 1.7-2.5 1.1-3.8-1-.7-1.2-.8-2-.2-2 .5 0 1 .4 1 1zm-628 2.5c0 1.4-.4 2.5-.9 2.5s-.8-1.1-.8-2.5.3-2.5.8-2.5.9 1.1.9 2.5zm466-2.1c0 .2-.7.6-1.5 1-.8.3-1.5.1-1.5-.4 0-.6.7-1 1.5-1s1.5.2 1.5.4zm243 5.1c0 5.9-1.5 5.9-1.6 0 0-2.5.3-4.5.8-4.5.4 0 .8 2 .8 4.5zm-6.5-.7c-.3.3 0 1.1.6 1.9.9 1 .8 1.3-.4 1.3-.8 0-1.7-.8-1.9-1.8-.3-1.1 0-1.9.8-1.9s1.2.3.9.5zM604 312c0 .5-.4 1-1 1-.5 0-1-.5-1-1 0-.6.5-1 1-1 .6 0 1 .4 1 1zm-492.7 1.7c-.7.2-1.9.2-2.5 0-.7-.3-.2-.5 1.2-.5s1.9.2 1.3.5zm665.4 4.2c-1.5.6-2.8-1.5-2.1-3.3.6-1.5.8-1.4 1.8.6.7 1.3.8 2.5.3 2.7zm-273.7.6c-.7.8-1.6 1.5-2.1 1.5s-.9-.7-.9-1.5c0-.9.9-1.5 2.1-1.5 1.8 0 1.9.2.9 1.5zm-391.7.2c-.7.2-1.9.2-2.5 0-.7-.3-.2-.5 1.2-.5s1.9.2 1.3.5zm9.2.3c-.3.5-1.2 1-1.8 1-.7 0-.6-.4.3-1 1.9-1.2 2.3-1.2 1.5 0zm4 1c.3.5-.1 1-.9 1-.9 0-1.6-.5-1.6-1 0-.6.4-1 .9-1 .6 0 1.3.4 1.6 1zm482.5 1.6c0 .8-.4 1.2-1 .9-.5-.3-1-1-1-1.6 0-.5.5-.9 1-.9.6 0 1 .7 1 1.6zm175-.2c0 .8.6 1.6 1.3 1.9.6.2.9.8.5 1.2-.3.4-1.2.3-2-.2-1.5-.9-2-4.3-.7-4.3.5 0 .9.6.9 1.4zm-721.3 2.2c7.4.4 11.3 1 11.6 1.8.3.7.1 4.3-.4 8.1-.4 3.9-1.3 14.6-1.9 24-.6 9.3-1.6 18.7-2.1 20.7l-1 3.8h-7.3c-5.2 0-7.7-.4-8.6-1.5-.9-1.1-.9-5-.1-17.4.8-10.6.8-16.8.1-18.5-1.1-2.9-5.6-6.1-11.2-7.8-3.6-1-3.8-1.4-3.9-5.2-.3-8.9.7-10 8-9.2 3.1.4 10.6.9 16.8 1.2zm62.3 1.7c3.1 1.5 3.6 5 1.5 10.1-1.8 4.3-2 4.3-15 1.6-5.2-1.1-6.5-1-9.8.4-3.1 1.2-3.8 2-3.5 3.8.3 2 1 2.3 6.3 2.5 7.8.4 21.8 7.1 23.4 11.2 1.6 4.2 2.4 11.7 1.7 16.6-.6 4-1.3 4.8-6 8l-5.3 3.5-10.4-.6c-10-.6-16.3-.6-23.9-.1l-3.5.2-.3-7.5c-.6-12 1.7-36.9 3.8-41.6 2.6-6 7.6-8.7 17.5-9.5 9.6-.8 20.1-.2 23.5 1.4zm484 1.7c0 .5-.4 1-1 1-.5 0-1-.5-1-1 0-.6.5-1 1-1 .6 0 1 .4 1 1zm-179.9 14.3c-.8.8-1.1.3-1.1-1.9.1-2.5.2-2.7 1.1-1.1.8 1.4.8 2.2 0 3zM590 358c0 .5-.4 1-1 1-.5 0-1-.5-1-1 0-.6.5-1 1-1 .6 0 1 .4 1 1zm-7.3 5.5c-1 .7-2.9 2.7-4.1 4.4-1.5 2-2.6 2.7-3.5 2.1-.8-.4-1-1.3-.7-1.9.4-.6 1.2-.9 1.7-.6.5.4.9-.1.9-.9 0-.9.6-1.6 1.4-1.6.8 0 1.6-.7 2-1.5.3-.8 1.3-1.5 2.3-1.5 1.7.1 1.7.1 0 1.5zM377.6 368c.8 0 1.4.4 1.4 1 0 .5-.7 1-1.5 1s-1.5-.2-1.5-.4-.2-1-.3-1.8c-.2-.7-.2-1 0-.6.3.5 1.1.8 1.9.8zm-2.9 4.7c-1.6 1.6-1.7 1.6-1.7-.3 0-1.1.3-2.4.7-2.7.4-.4 1.1-.3 1.7.3.7.7.5 1.6-.7 2.7zm6.3-.5c0 1.9-.2 2-1 .8s-1-1-1.1 1c-.1 1.8-.3 2-.6.7-.3-1 .1-2.4.7-3.2 1.7-2 2-1.9 2 .7zm396 5.8c0 .5-.8 1-1.7 1-1.5 0-1.6-.2-.3-1 1.9-1.2 2-1.2 2 0zm13 1.6c0 .8-.4 1.4-1 1.4-.5 0-1-.9-1-2.1 0-1.1.5-1.7 1-1.4.6.3 1 1.3 1 2.1zm-109 4.8c0 .3-.4.8-1 1.1-.5.3-1 .1-1-.4 0-.6.5-1.1 1-1.1.6 0 1 .2 1 .4zm-605.6 1.7c2.9 1.4 3.4 4.8 2.5 17.5-.4 4.9-.8 13.4-.8 18.8-.1 15.3 1.8 10.5 2.4-5.9.2-7.7.8-16.8 1.1-20.3.6-5.6.9-6.5 3.2-7.3 1.6-.6 4.9-.7 8.6-.1 3.4.4 11.1.5 17.1.1 30.7-2.2 32-2.2 33.2-.8.6.8 2.7 8.6 4.7 17.4 4 17.5 6.8 28.4 8.5 32.9.7 1.6.8 3.3.4 3.7-.4.4-3.9.4-7.8-.1-3.8-.5-21.7-.9-39.7-1-28.5 0-32.8-.2-32.8-1.5s4.2-1.5 31.3-1.6c17.1 0 33.5-.4 36.2-.9l5-.7-6.5-.2c-3.6-.1-11.1-.6-16.8-1.1-5.6-.5-19.4-1-30.7-1.1-18.3-.1-20.6.1-22.2 1.7-1.3 1.2-1.4 1.9-.5 2.2.6.2 1.2 1 1.2 1.7 0 1.5-5.1 2.7-6.4 1.5-1.1-1.1-.8-33.4.4-44 1.3-11.7 2.7-13.5 8.4-10.9zm682.9 2.2c-.3.5-1 .4-1.5-.1-.6-.6-.7-1.6-.3-2.2.6-.9.9-.9 1.6.1.4.7.5 1.7.2 2.2zm-71.6.3c1 2.2 1 2.4-.3 1.4-.8-.7-1.4-.9-1.4-.4s-.4.2-.9-.6c-1-1.4-.6-3 .7-3 .4 0 1.2 1.2 1.9 2.6zm4.3.1c0 1-.4 1.4-.8.8-.4-.6-1.1-1.3-1.6-1.8-.5-.4-.2-.7.7-.7 1 0 1.7.8 1.7 1.7zm-13 .3c0 .5-.5 1-1.1 1-.5 0-.7-.5-.4-1 .3-.6.8-1 1.1-1 .2 0 .4.4.4 1zm71.4.8c.3.5-.1.9-.9.9s-1.2-.4-.9-.9c.3-.4.7-.8.9-.8.2 0 .6.4.9.8zm-63.4 3.3c0 .5-.4.9-1 .9-.5 0-1-.7-1-1.6 0-.8.5-1.2 1-.9.6.3 1 1 1 1.6zm-363.3 2.4c-1.2.6-2.3.7-2.5.3-.5-1.2-3.2-1-3.2.3 0 .7-1.2 1-2.9.7-2.6-.4-2.9-.2-2 1.4.9 1.7.8 1.9-.7 1.7-1.5-.2-2.4 3-2.4 8.8 0 3.5-.4 6.3-1 6.3-1.4 0-1.3-10.9.1-15.1 1.7-5 3.4-5.9 10.5-5.7 5.4.1 6 .3 4.1 1.3zm6.3.5c0 .5-.7 1-1.5 1s-1.5-.5-1.5-1c0-.6.7-1 1.5-1s1.5.4 1.5 1zm4.2 1.7c-.7 1.1-.6 2.3.2 3.5.9 1.5.8 2.1-.4 2.8-.8.5-1.8 1-2.1 1-1 0-.8-5.9.2-6.6.5-.3.7-1 .4-1.5-.4-.5.1-.9 1-.9 1.2 0 1.4.4.7 1.7zm346.8 1.9c0 .8-.4 1.2-1 .9-.5-.3-1-1-1-1.6 0-.5.5-.9 1-.9.6 0 1 .7 1 1.6zm-360.3 0c-.3.3-1.2.4-1.9.1-.8-.3-.5-.6.6-.6 1.1-.1 1.7.2 1.3.5zm6.9.3c-.4.5-.1 1.1.5 1.3.8.3.7 1.3-.4 3.5-.9 1.7-1.4 3.3-1.2 3.7.3.3.1.3-.4-.1-1.1-1-2.2-7.9-1.4-8.7 1-1 3.5-.7 2.9.3zm-6.6 4c0 1-.6 2.1-1.3 2.4-1 .4-1.3-.2-.9-1.9.5-2.8 2.2-3.2 2.2-.5zm14.4 4c.9 1.4-1.4 11.1-2.6 11.1-.6 0-.8-1-.4-2.3.3-1.2.6-3.9.6-6 0-3.5 1.2-4.8 2.4-2.8zm-14.7 3.3c-.3.8-.6.5-.6-.6-.1-1.1.2-1.7.5-1.3.3.3.4 1.2.1 1.9zm358.9 1.5c-1 1-1.9-.5-1-1.8.6-1.1.8-1.1 1.2 0 .2.7.1 1.5-.2 1.8zm-351 1.4c.3.6.2 1.4-.3 1.8-1.1.7-1.1 10.1 0 10.1.4 0 .5 1 .2 2.3-.8 3.1-1.3 5.9-1.4 7.5-.1.7-.5 1.1-1.1.7-.6-.3-.6-1.5 0-2.9.5-1.3.6-2.7.2-3-1-1-1.1-8.6-.1-8.6.5 0 .5-1-.1-2.4-1.5-4 .6-8.6 2.6-5.5zm-18.6 4.6c0 3-.9 2.7-1.5-.6-.2-1.1 0-2.1.6-2.1.5 0 .9 1.2.9 2.7zm21.9 5.2c-.1 1.7-.3 2-.6.8-.2-.9-.9-1.7-1.4-1.7-.5 0-.9-.4-.9-.8 0-.5.7-.9 1.5-.9 1 0 1.5.9 1.4 2.6zm-21.7 3c-.2 2.3-.8 3.8-1.4 3.5-.5-.3-.7-2.2-.4-4.3.3-2 .5-3.7.6-3.9 0-.2.4-.1.8.2.4.2.6 2.3.4 4.5zm21.8 2.9c0 1.2-.3 1.2-1.5.2-.8-.7-1.5-1.3-1.5-1.5 0-.1.7-.2 1.5-.2s1.5.7 1.5 1.5zm-22.3 6.9c-.3 1-.5.2-.5-1.7s.2-2.7.5-1.8c.2 1 .2 2.6 0 3.5zm22.3.1c0 .8-.1 1.3-.3 1.1-.1-.2-.9-1.2-1.6-2.2-1.2-1.5-1.2-1.7.3-1.1.9.3 1.6 1.3 1.6 2.2zm-1.2 2.9c1.6 1.6 1.5 3.3-.3 3.3-.8 0-1.2-.6-.9-1.4.4-1-.1-1.4-1.9-1.2-1.8.2-2.4-.1-2-1.1.6-1.5 3.2-1.4 5.1.4zm-1.8 5.9c0 .8-.4 1.3-.9 1-.5-.3-1.1.1-1.5.9-.3.9 0 1.5.9 1.5 1.8 0 2 3.1.3 4.8-2.1 2.1-2.8 1.3-2.8-3.7 0-3.9.4-5.1 1.8-5.4.9-.3 1.8-.5 2-.6.1 0 .2.6.2 1.5zm2.7 2.6c-.3.8-.6.5-.6-.6-.1-1.1.2-1.7.5-1.3.3.3.4 1.2.1 1.9zm-251 1.9c2.6 1 17.2 1.4 65.9 1.8l19.2.1 2.1 5.7c1.2 3.2 4.6 9.8 7.6 14.8 3 4.9 8.9 15 13.2 22.3 4.4 7.5 10 15.6 12.9 18.5 2.8 2.9 7.2 8.2 9.8 11.9 5.4 7.7 27.6 30.5 38.8 40 4.3 3.6 10.1 7.8 13 9.3 10.7 5.8 22.4 11.5 25.6 12.6 1.9.6 4.6 1.7 6 2.5 1.5.8 3.3 1.4 4 1.4.7 0 2.6.7 4.2 1.5 2.6 1.4 2.8 1.8 2.3 6.2-.7 6.4-2 8.8-3.9 7.2-.8-.6-1.4-1.9-1.4-2.9 0-.9-.9-2.5-2-3.5s-2-2.9-2-4.2c0-2.8-1.5-3-3-.4-.7 1.5-1.9 1.9-4.9 1.6-2.1-.1-4.5-.6-5.2-1.1-.8-.5-2.2-.7-3.1-.6-1 .2-2.8-.2-4-.9-1.3-.7-3-1.3-3.8-1.4-.8-.1-4.3-.9-7.8-1.8-3.5-1-7.2-1.7-8.3-1.7-1.9 0-1.9.1-.3 2.3 1 1.3 2.7 2.3 3.7 2.3 1.1-.1 2.2.5 2.5 1.3.4 1.1-.3 1.2-3.1.7-3.5-.6-3.6-.6-3.5 2.1 0 1.5-.3 3.8-.7 5-.6 1.9-.3 2.2 3.9 2.8 2.6.4 4.9 1.1 5.1 1.6.3.4 1.2.6 1.9.3.8-.3 3 .1 4.9 1 2.1.8 3.7 1 3.9.5.2-.6 2.6-.7 6-.3 3.2.4 5.5 1.1 5.2 1.6-.4.5.4.8 1.7.7 1.3-.2 2.9 0 3.6.4.6.4 1.4.3 1.8-.3 1-1.6 2.8-1.2 2.1.5-.3.9 0 1.5.9 1.5.8 0 1.5-.4 1.5-.8 0-1.3 4.8-3.2 6.5-2.6 2 .8 1.9 4.8-.1 6.9-.9.9-2.3 1.4-3.2 1-2.4-.9-13.6-2.5-29.1-4-7.9-.8-15.2-1.7-16.2-2-2.4-.8-3.4-7.6-3-20.8 0-2.7-.2-2.8-3.2-2.2-5.2 1.2-6.2 2.7-3.2 4.9.8.6 1.9 2.6 2.4 4.3 1.3 4.5-.8 4.4-4.9-.3l-3.2-3.6-5.6 1.1c-3.1.7-9.7 1.1-14.7.9l-9-.3-.3-5.1c-.4-7.7.9-10.1 6-11.1 6.3-1.3 4.3-2.8-3.7-2.9-3.8 0-10.6-.8-15-1.7-6-1.3-13.2-1.7-28.4-1.7-12.4 0-20.1.4-19.5.9 1.1 1.1 7.5 1.7 31.4 3 10.2.5 20.2 1.3 22.4 1.7l3.9.7-.7 11.1c-1.2 21-2.1 30.4-2.8 31.1-.4.4-7.6.2-16-.4-8.4-.6-18.4-1.1-22.2-1.1h-6.8l.7 3.7c.4 2.1.6 10.4.6 18.5-.2 15.6 1.1 19.9 2.3 7.7.9-8.3 1.4-9.9 3.1-9.9.7 0 1.6-1.9 2.1-4.3.9-4 1.1-4.3 5.9-5.5 4.7-1.2 13-1 20.5.5 3.9.7 3.9 3.3 0 12.3-1.6 3.8-3 7.5-3 8.3 0 2.3-5.7 9.5-8.1 10.2-1.2.4-10.4.8-20.5.9l-18.2.1.5-7.5c.3-4.1 1.1-13.4 1.7-20.5 1.3-14.9 1.2-15.2-6.7-11.7-3.6 1.6-4.5 2.6-5 5.2-.6 2.8-1 3.1-3.2 2.6-4.9-1.2-23-2.7-31.4-2.5-7.6.2-8.5 0-9.2-1.8-.6-1.5-2.3-2.2-7.8-3.1-3.8-.7-9.4-1.2-12.4-1.2-8.3 0-8.9-.8-7.3-11.3.7-4.8 1.5-9 1.8-9.2.2-.3 5.6-.7 11.9-1 6.3-.4 11.8-1 12.3-1.5 1.3-1.3 2.3-8.5 4.1-29.5 1.7-20.9 2.1-19.8-8.6-23.3-7.2-2.4-11-2.7-13.9-1.2-1.7.9-2.1.6-2.6-1.6-.4-1.5-.4-6.8-.1-11.8.3-5 1.1-16.5 1.7-25.5.6-9 1.8-20 2.6-24.5.8-4.4 1.9-10.8 2.4-14.1.8-5.2 1.4-6.5 5-9.7l4.1-3.7-3.3-.3c-2.5-.2-3.4-.8-3.6-2.6-.4-2.5-.3-2.6 3.5-1.1zM23 456.2c0 .4-.7.8-1.5.8s-1.5-.4-1.5-.8c0-.5.7-.9 1.5-.9s1.5.4 1.5.9zm5.2 0c-.9.9-1.5.9-2.4 0-.9-.9-.7-1.2 1.2-1.2s2.1.3 1.2 1.2zm295.1 6.4c-.9 2.3-2.6 1.6-1.9-.9.3-1.2.6-3.1.7-4.2 0-1.5.3-1.2.9.8.5 1.6.6 3.5.3 4.3zm6.2-2.9c-.4 2.1-1 4-1.4 4.3-.5.3-1.4 2.2-2 4.2-.7 2.1-1.6 3.8-2.1 3.8s-1.6.7-2.4 1.6c-.9.8-1.6 1.1-1.6.5 0-.5.6-1.4 1.3-1.8 1.4-.8 4.7-7.3 4.7-9.2 0-.6.5-1.1 1-1.1.6 0 1-.7 1-1.5s-.7-1.5-1.5-1.5c-1.6 0-2-1.2-.8-2.3.3-.4 1.5-.7 2.6-.7 1.7 0 1.8.5 1.2 3.7zM6 459.5c0 .8-.4 1.6-.9 1.9-.5.3-.8-.5-.8-1.9s.3-2.2.8-1.9c.5.3.9 1.1.9 1.9zm-3 2c0 .8-.4 1.5-1 1.5-.5 0-1-.7-1-1.5s.5-1.5 1-1.5c.6 0 1 .7 1 1.5zm8-.4c0 1.2-1.9 2.1-3 1.4-.6-.4-.8-1-.6-1.4.7-1 3.6-1 3.6 0zm12.5.5c-1.7 1.3-1.8 1.6-.5 2.4 1.3.8 1.3 1-.2 1-2.6 0-3.2-2-1.2-3.5 1.1-.8 2.4-1.4 2.9-1.4.6 0 .1.6-1 1.5zm6.4 3.1c.2.2-.5.3-1.7.3-1.4 0-2.2-.6-2.2-1.6 0-1.4.3-1.5 1.8-.3.9.7 1.9 1.5 2.1 1.6zm-17.9-.1c0 .2-1.6.4-3.5.4s-3.5-.4-3.5-.8 1.6-.6 3.5-.4c1.9.2 3.5.6 3.5.8zM668 489c0 .5-.4 1-1 1-.5 0-1-.5-1-1 0-.6.5-1 1-1 .6 0 1 .4 1 1zm175.3 69c.3 1.1.1 2-.4 2s-.9-.9-.9-2 .2-2 .4-2 .6.9.9 2zM632 560.9c1.7 3.2 1.2 3.6-3.5 3.3-3.1-.3-5.4.1-7.1 1.3-1.4.9-2.8 1.4-3.2 1.1-.3-.3 0-.6.6-.6.7 0 1.2-.5 1.2-1.1 0-1.3-6.3-.1-6.8 1.2-.6 1.4-2.9 1-4.7-.7-1.9-1.9-3.3-1.1-1.7.9.7.8.8 1.8.4 2.2-.4.5-.2.5.5.1 1.7-1 2.5 1.1 1.3 3.4-.9 1.6-.7 2.4.5 3.6 1.5 1.5 1.4 1.8-1.1 3-1.4.8-4.3 1.4-6.3 1.4-5 .1-21.4 2.5-22.9 3.4-.7.4-1.2.2-1.2-.4 0-.6.7-1.3 1.5-1.6 2-.8 1.9-3-.1-3.8-2.3-.9-3.6-.7-2.9.3.3.5.1 1.2-.5 1.6-.5.3-1 .1-1-.4 0-.6-.9-1.1-2-1.1s-2 .4-2 1c0 .5-.6.7-1.4.4-.8-.3-3.3.4-5.5 1.4-6.6 3.2-4.9.8 2.4-3.4 17-9.7 29.7-14.9 38.1-15.8 2.7-.3 6.3-.9 7.9-1.5 1.7-.5 6.5-1 10.7-1 6.7-.1 7.9.2 8.8 1.8zm12.5-.9c-2.7 1.2-4.3 1.2-2.5 0 .8-.5 2.2-.9 3-.9 1 0 .8.3-.5.9zm-6.5 2.1c0 1.7-.3 1.9-1.3 1-.8-.6-1.6-.9-1.9-.6-.2.3-.5-.2-.5-1s.9-1.5 1.9-1.5c1.2 0 1.8.7 1.8 2.1zm12.3-1.4c-.7.2-1.9.2-2.5 0-.7-.3-.2-.5 1.2-.5s1.9.2 1.3.5zM664 565c0 .5-.4 1-1 1-.5 0-1-.5-1-1 0-.6.5-1 1-1 .6 0 1 .4 1 1zm-37.5 1c-.3.5-1.4 1-2.3.9-1.4 0-1.3-.2.3-.9 2.7-1.1 2.7-1.1 2 0zm-9.9 3.1c.3.6 1.7.8 3.3.4 2-.5 2.3-.4 1.4.6-.7.7-2.3 1.3-3.5 1.5-1.3.1-2.6.3-2.9.3-.3.1-1 1.1-1.6 2.3l-1 2.2-.5-2.2c-.4-1.2-.2-2.2.2-2.2s.6-.9.3-2c-.4-1.5 0-2 1.5-2 1.2 0 2.4.5 2.8 1.1zm-1 8.4c-2.3 1.7-3.6 1.9-3.6.6 0-.5.8-1.2 1.8-1.4 3.2-.9 3.7-.6 1.8.8zm-568.8 2.2c.2.8-.5 1.3-1.7 1.3-1.3 0-2.5.9-3 2.2-.6 1.7-.9 1.8-1.4.6-.3-.9-.3-2.6 0-3.8.4-1.6 1.2-2 3.1-1.8 1.4.2 2.7.9 3 1.5zm.2 3.3c0 .5-.5 1-1.1 1-.5 0-.7-.5-.4-1 .3-.6.8-1 1.1-1 .2 0 .4.4.4 1zm30.8 2.4c.8 6.5.1 7.1-8.2 6.8-8.3-.4-9.1-1.1-8-6.9l.6-3.4 7.7.3c7.6.3 7.6.3 7.9 3.2zm494.3-.9c-1.8.8-3.8 1.2-4.5.8-.6-.5.1-1 1.9-1.4 5.1-1.1 6.1-.9 2.6.6zm221.2 1.5c-.3 1.1-.9 1.7-1.4 1.5-1-.7-.1-3.5 1.1-3.5.5 0 .6.9.3 2zm-227.6.6c-.3.3-1.2.4-1.9.1-.8-.3-.5-.6.6-.6 1.1-.1 1.7.2 1.3.5zm203.3 5.1c0 2.3-.4 3.3-.9 2.7-.9-.8-.4-6.4.5-6.4.2 0 .4 1.7.4 3.7zm-120.5-.3c11 .9 16.6 2.8 31.5 10.2 14.5 7.2 15.4 8.3 14.2 17.3-.7 5.1-.9 5.4-3.7 5.6-3.7.3-16.3-1.4-19-2.5-8-3.3-17.6-4.5-37.5-4.5-18.6 0-21.6.3-32.5 2.7-14.8 3.3-22.7 4.6-33 5.3-7.9.7-21.1-.7-22.6-2.2-.4-.4-1-4-1.4-7.8-.7-8.5.1-9.8 7.6-12.6 24.3-9.2 64.8-14 96.4-11.5zm-333.8 6.1c.2.6-.6 1.1-1.7 1.1s-2-.6-2-1.4c0-1.5 3.2-1.3 3.7.3zm478 2.7c-.3.7-.5.2-.5-1.2s.2-1.9.5-1.3c.2.7.2 1.9 0 2.5zm-3.7-.2c0 .5-.8 1-1.7 1-1.5 0-1.6-.2-.3-1 1.9-1.2 2-1.2 2 0zm-555 1c0 .5-.8 1.4-1.9 1.9-1.3.7-2 2.7-2.5 6.3-.4 2.9-1.2 7.5-1.8 10.1-.9 4.4-1.2 4.8-3.6 4.5-2.5-.3-2.8-.8-3.6-6-.7-4.9-.5-6.3 1.1-9.5 1.1-2.1 3.5-4.8 5.3-6.1 3.4-2.3 7-2.9 7-1.2zm80.7 2.2c-.3.7-.5.2-.5-1.2s.2-1.9.5-1.3c.2.7.2 1.9 0 2.5zm461.9-1c.4 2.9-1.2 3-2.5.2-1-2.2-.9-2.5.5-2.2 1 .2 1.8 1.1 2 2zm-6.5 4.2c1.5 1.6 1.1 5.6-.6 5.6-1.2 0-1.5-1.2-1.4-5.3.1-2.8.3-4.3.6-3.2.3 1.1.9 2.4 1.4 2.9zM244.2 604c5.1 1.4 5.7 4.9 2.4 12.4-1.4 3.1-3.1 5.6-3.9 5.6-.9 0-2-1.9-2.8-4.6-.9-3-2.2-5-3.6-5.7-1.7-.8-2.3-1.9-2.3-4.3 0-4.4 2.9-5.4 10.2-3.4zm537 2.2c-.9.9-1.2.7-1.2-1.2s.3-2.1 1.2-1.2c.9.9.9 1.5 0 2.4zM272 604.4c0 .2-.9.6-2 .9-1.1.3-1.8.1-1.4-.4.5-.9 3.4-1.3 3.4-.5zm521.9 7.3c-1.1 1.3-1.4 1.2-2.1-.6-.9-2.4 0-5.4 1.3-4.5.5.3 1-.3 1.1-1.3 0-1 .3-.3.5 1.5.3 1.8-.1 4-.8 4.9zm6.4-4.8c.3 1.3.1 1.8-.9 1.4-.7-.2-1-1.1-.7-1.9.7-1.9 1-1.8 1.6.5zm-18 5.1c.8 2.2 1.1 4 .6 4-.6 0-.7.5-.3 1.1.4.7.1 1-.6.7-.7-.2-1.4-1.1-1.6-1.9-.1-.7-.4-2.9-.7-4.7-.7-4.4.7-4 2.6.8zm6.5-2.9c-.2.6-.8 1-1.3 1s-1.1-.4-1.3-1c-.2-.6.4-1.1 1.3-1.1s1.5.5 1.3 1.1zm-12.8 5.4c0 2.8-1.7 3.4-2.7.9-.3-.9 0-2 .8-2.5 1.9-1.2 1.9-1.2 1.9 1.6zm24.9 1.1c-.9 1.1-.8 1.8.1 2.9.7.8.8 1.5.2 1.5-1.3 0-3.6-5.6-2.7-7 .5-.8 1.1-.8 2.1.1 1.1.9 1.1 1.5.3 2.5zm5.1 6.4c0 .5-.4 1-.9 1-.6 0-1.3-.5-1.6-1-.3-.6.1-1 .9-1 .9 0 1.6.4 1.6 1zm224.1 6.7c1.1 1.3 1.4 6.1 1.3 22.2-.1 24.3-1.3 31.8-5 32.7-2.9.7-4.2-.2-2.6-1.8.7-.7.8-1.7.2-2.8-1.6-3-1.6-40.9 0-46.8 1.5-5.5 3.5-6.7 6.1-3.5zm-966.5 2.8c5.8 3.8 7.2 14.4 2.7 21.2-3 4.7-5.6 5.5-14.1 4.3-7.2-.9-8.5-2.5-8.6-10.2-.2-11.7 5.1-18.4 13.7-17.4 2.1.2 4.9 1.2 6.3 2.1zm224.3 0c2.8.7 2.7 1.5-1.4 15-1.5 4.9-3.3 13-4.1 17.9-1.2 8.5-2.6 11.8-4 10.3-.4-.4-1-4.5-1.4-9.2-.4-4.7-1.2-9.1-1.8-9.7-.6-.6-2.5-.8-4.7-.4-4.2.8-5.8 3.7-7 12.3-.8 6.3.4 9 5.3 11 3 1.3 4.2 1.3 7.5.2 3.4-1.1 4.3-1.1 6.9.4 2.3 1.3 3.4 1.4 5 .6 1.1-.6 2.2-.8 2.6-.4.3.3.6 3.6.7 7.3 0 3.7.4 7.2.7 7.8.4.5 1 4.4 1.4 8.5.5 6.1.3 8.3-1.1 11.2-.9 2.1-2.1 3.8-2.6 3.8-.5.1-1.4.2-1.9.3-.6 0-1.4.6-1.8 1.2-.4.6-1.8 1.3-3.2 1.6-12.1 2.7-19 3.6-27.7 3.7-9.6.2-10.3 0-10.3-1.8 0-1-.8-2.2-1.7-2.6-2.7-1.1-31.3-2.7-35.3-1.9-5.2.9-8.8 3.3-8.3 5.5.3 1.1 0 1.9-.7 1.9-2.3 0-.4-20.5 2.6-29.2 3.2-9 5.1-24.1 6-46.3.5-11.6 1.1-17.5 2-18.5 1.1-1.3 6.4-1.5 38.6-1.2 20.5.1 38.4.4 39.7.7zm-196.5.3c.3.5 5.2 1.2 10.8 1.7 5.7.4 11.5.8 13.1 1 1.5.1 5.8.3 9.7.4 6.6.1 7 .2 7.6 2.6.8 3.3-1.1 16.5-2.7 17.9-.9.8-1 .5-.5-1.6s.2-2.7-1.1-2.7c-1 0-3-.3-4.5-.7-2.2-.5-2.8-.3-2.8 1 0 .9.5 1.6 1 1.6 1.4 0 1.2 2.6-.3 3.8-.8.7-1.8.7-2.7.2-1.3-.8-1.2-1 .3-1 .9 0 1.7-.4 1.7-.9s-1.5-.5-3.6-.1l-3.5.8.3-3.6c.4-5-2.1-5.4-5.2-.9-1.3 1.9-3.5 4.2-4.9 5.1-1.7 1-2.1 1.6-1.1 1.6 2.9.2-2.4 1.9-6.2 1.9-2 .1-4 .5-4.3 1.1-1.1 1.8 4.9 2.5 20.7 2.5 13.6 0 15.8.2 16.1 1.6.6 2.4-1.2 5.1-3.1 4.5-.9-.2-3.8-.7-6.4-1.1l-4.8-.6v4.6c0 5 2 5.9 3 1.4.4-1.7 1.3-2.4 3-2.4 2.4 0 2.5.3 2.4 5.5-.1 3.1-.7 7.3-1.4 9.4-1.5 4.6-6.6 10.6-8.9 10.5-1 0-1.1-.2-.3-.6.6-.2 1.2-1.2 1.2-2 0-1.4-1.1-1.5-7.4-1-8.3.7-7.8 1.2-10.6-9.3-.6-2.5-2-6.1-3-8-2-3.7-1.6-3.7-11.6-2.4-3.9.5-5.4.3-6.6-1-.9-.9-2.4-1.6-3.2-1.6-1.9 0-2.1 2.6-.3 3.3.6.3 0 .6-1.5.6-2.5.1-2.8-.3-2.8-3.2v-3.2l8.4.2c4.6.1 9.3.6 10.3 1.1 1.1.6 2.5.7 3.2.3 1.1-.7 1.1-.9 0-1.3s-1.4-4-1.3-17.5c.1-9.4.4-17.8.7-18.7.7-1.7 2.3-2.1 3.1-.8zM34.3 640c0 2.2-.2 4.3-.5 4.5-.2.3-3.8.4-7.9.4-4.1-.1-10.1-.1-13.4-.1H6.4l.6-4.6.5-4.7 11.5.2c7.7.1 11.4.5 11.3 1.2-.2.6.2 1.1.8 1.1.6 0 .9-.6.6-1.4-.3-.8-.3-1.7.1-2 1.2-1.3 2.5 1.4 2.5 5.4zm976.8-2.8c3.5 1.5 5.8 5.6 4.4 7.8-.9 1.4-5 .5-5-1.1 0-.8.6-1.3 1.3-1.1.8.1 1.2-.3 1-1-.3-.7-1.4-1.4-2.6-1.6-1.6-.2-2.5.4-3.1 2.1-.5 1.3-1.6 2.7-2.4 3-1 .4-1.3 1.9-.9 6 .3 3.8 0 5.7-.9 6.2-.9.6-1.1.4-.6-.8.9-2.3-.8-3-2.4-1-1 1.2-1 1.4-.1.9.7-.4 1.2-.2 1.2.8 0 .8-.4 1.7-.9 2-1.8 1.2-3.2-2.4-3.7-9.5-1-15.4-1.1-14.2 1.6-14.9 3-.7 8.2.1 13.1 2.2zm-124 11.4c-1.2.9-2.1 2.1-2.1 2.7 0 .7.5.4 1.1-.6 2.7-4.6 5.8 0 3.9 5.8-.8 2.5-.9 4.4-.1 6.5.9 2.8.8 3-1.6 3-1.5 0-4.1-.5-5.9-1.2-3-1.1-3.3-1.5-3.9-7-.4-3.3-.4-6.2-.1-6.5.3-.4.6 0 .6.7 0 .8 1.5-.2 3.4-2.1 5.4-5.4 6.1-5.9 6.4-4.2.2.8-.6 2.1-1.7 2.9zm87.8-2c1.1.4 1.2.7.3 1.6-.7.7-1.2 2.3-1.2 3.7 0 3.5-1.1 7.1-2.1 7.1-.4 0-.5-1.6-.2-3.5.4-2.3.2-3.5-.6-3.5-.6 0-1.1.7-1.1 1.5 0 .9-.7 1.8-1.5 2.1-1.2.5-1.3.9-.4 2 1.3 1.6.6 2.9-1.1 1.9-1-.6-.5-11.7.6-13.6.3-.6 4.4-.2 7.3.7zm6.6.3c1 1.7-.9 2-3 .5-1.8-1.4-1.8-1.4.2-1.4 1.2 0 2.4.4 2.8.9zm9.5.1c1.1.7.5 1-2.2 1-2.1 0-3.8-.5-3.8-1 0-1.3 4-1.3 6 0zm1 7.2c0 6.1-1.1 5.7-1.7-.7-.3-2.9-.1-4.5.6-4.5s1.1 2.1 1.1 5.2zm21.6-4.3c1.7.2 2.4 2.7 1.7 6.1-.5 2.6-1 3-3.7 2.9-2.8 0-2.9-.1-.9-.9 1.8-.7 2.1-1.4 1.4-3.2-1.2-3.3-3.5-3.7-2.9-.4.6 3-.7 3.6-1.5.6-.9-3.4.3-5.7 2.6-5.5 1.2.1 2.7.3 3.3.4zm-33.9 5.4c.3 5.3-1.1 6.3-2.1 1.6-.9-4.9-.7-7.1.7-6.7.7.3 1.3 2.5 1.4 5.1zm-863 3.3c-.3.3-1.2.4-1.9.1-.8-.3-.5-.6.6-.6 1.1-.1 1.7.2 1.3.5zM975 661c-1.8 1.2-3 1.3-3 .2 0-.4 1-.9 2.2-.9 1.8-.2 2 0 .8.7zm27.8 8.5l.2 3-1.6-2.8c-1.8-3.3-3.6-3.1-4.5.4-.6 2.1-.7 2-.8-.9-.1-3.2.1-3.3 3.2-3 2.8.3 3.2.7 3.5 3.3zm12.2-.9c0 .8-.4 1.2-1 .9-.5-.3-1-1-1-1.6 0-.5.5-.9 1-.9.6 0 1 .7 1 1.6zm-23 .8c0 .8-.7 1.6-1.5 2-1.7.6-1.8.4-.9-1.8.8-2 2.4-2.1 2.4-.2zm19.3 2.9c1.8.4 1.7.5-.5.6-2.4.1-2.8-.3-2.7-2.7.1-2.2.2-2.3.6-.5.2 1.3 1.3 2.4 2.6 2.6zm-19.6 3.3c-.3.3-1.2.4-1.9.1-.8-.3-.5-.6.6-.6 1.1-.1 1.7.2 1.3.5zm-797.3 7c3.3 1.2 1.5 3.1-3.6 4l-5.3.9-1 20c-.5 11-1.5 20.8-2 21.7-1.1 1.8-6.2 4.8-8.2 4.8-1.6 0-1.7-11.3-.2-26.5.6-6.1 1.2-13.9 1.2-17.5l.2-6.5 4.5-.6c6.5-.9 12.6-1 14.4-.3zm845.3 6.6c-.8 9.3-2.7 15.8-4.5 15.8-3.5 0-4-1.4-3.8-11.2l.1-9.8h8.6l-.4 5.2zm24.7-.8c.2 1.4-.1 2.6-.5 2.6-.5 0-.9-1.4-.9-3.2 0-3.6 1-3.2 1.4.6zm-71.4-.9c1.9 2.3 0 3.7-4.6 3.3-2.7-.2-4-.8-4.2-2-.5-2.7 6.7-3.8 8.8-1.3zm35.4.1c1.1 2.9.6 6.2-1.3 8.5l-1.9 2.4-.6-3.5c-.6-3.8-.9-7.1-.7-8.3.2-1.4 3.9-.7 4.5.9zm-35.9 13.7c.7 3.3.7 5.2.6 16.4L993 728h-4.4c-6.6 0-6.9-.9-6.7-16.7.1-7.5.4-14 .7-14.4.2-.4 2.5-.1 4.9.8 3.1 1 4.7 2.2 5 3.6zm34.5.7c0 .5-.2 1-.4 1-.3 0-.8-.5-1.1-1-.3-.6-.1-1 .4-1 .6 0 1.1.4 1.1 1zm19 1.4c0 .3-.4.8-1 1.1-.5.3-1 .1-1-.4 0-.6.5-1.1 1-1.1.6 0 1 .2 1 .4zm-108 26.1c6.3.2 12.3.4 13.3.4 1.5.1 1.7 1.2 1.7 8.5 0 4.7-.4 8.7-.9 9.1-.5.3-7 .1-14.3-.5-7.3-.6-18.2-1.3-24.3-1.5-17.2-.9-30.4-3-32-5.2-1.8-2.2-1.8-3.5-.4-6.7 1.1-2.3 3-3.3 9.4-5 1.1-.3 9.7-.3 19 0 9.4.3 22.2.7 28.5.9zm40.6 1.1c4.2 2 5.2 5.2 3.4 11.3-.7 2.5-1.5 6.7-1.8 9.3l-.4 4.7 5.2 2.6c3.6 1.8 5.6 3.6 6.3 5.5.9 2.5 1.5 2.8 3.9 2.3 2.8-.5 2.8-.5 2.8 4.6v5.1l-8 .1c-4.4.1-9.4.2-11.1.3-3.7.1-4.4-1.1-5.2-8.4-.7-7.1 1.4-27.5 3.1-29.2 2.4-2.4 1.1-2.9-6-2.2-10.3.9-11.8 1.7-11.8 5.6 0 1.8-.5 4-1 4.8-.7 1.1-1 .8-1-1.6 0-1.7-.3-5.8-.6-9.2-.6-5.8-.6-6 1.7-6.5 6.1-1.1 17.2-.6 20.5.9zM313.5 736c.3.5.1 1-.4 1-.6 0-1.1-.5-1.1-1 0-.6.2-1 .4-1 .3 0 .8.4 1.1 1zm-8.4 2.6c2.1 1.8 3.3 1.8 2.5-.1-.7-1.8.4-1.9 2.8-.2 1.6 1.2 1.6 1.4.2 2.6-1.4 1.2-2.3 1.1-5.6-.4-2.2-1-4.6-2.5-5.2-3.3-1.1-1.3-.9-1.4 1.2-.7 1.4.4 3.2 1.4 4.1 2.1zM286 740c1.1 1.6.3 12-1 13.3-.4.5-2.4.8-4.4.7-6.9-.3-9.2-.2-33.7 2-13.5 1.3-26.2 2-28.2 1.6-4.6-.9-5.6-2.8-6-10.8l-.2-6.3 17.9-.7c9.8-.4 18.1-1 18.5-1.3.3-.4 8.6-.5 18.4-.3 14.4.2 18 .6 18.7 1.8zm712.1 2.5c1.9 1 3.7 2.3 4.1 2.9 1.3 1.8.9 3.6-.7 3.6-.8 0-1.5-.4-1.5-.8 0-1.2-6.2-3.2-9.8-3.2-4.3 0-4 1.2.8 3.9 6.6 3.7 9.3 8.6 7.4 13.5-.5 1.4-1.3 1-4.3-1.7-2.1-1.9-5.6-4.2-7.9-5.3-4.9-2.2-5.3-4.5-2.1-11 2.7-5.8 5.6-6.2 14-1.9zM659 750c0 .5-.5 1-1.1 1-.5 0-.7-.5-.4-1 .3-.6.8-1 1.1-1 .2 0 .4.4.4 1zm3 6.1c.7 1.1.9 2.3.6 2.6-.3.3-.9-.3-1.3-1.3-.3-1-1.1-2.2-1.7-2.6-.8-.5-.7-.8.1-.8.7 0 1.7.9 2.3 2.1zm-5 .9c0 .5-.4 1-1 1-.5 0-1-.5-1-1 0-.6.5-1 1-1 .6 0 1 .4 1 1zm363.2 1c2.4.5 5.4 1.2 6.8 1.5 4.4.9 5.2 2.1 7.1 10.6 1 4.6 2.3 8.5 3 8.8 2.3.7 4.9 4.2 4.9 6.5 0 2.9-1.7 3.4-13.5 4.2l-8.4.6-1-3.8c-.5-2.2-1.3-5.7-1.7-7.9-.4-2.2-1.5-5.7-2.5-7.7-1.1-2.1-1.9-4.8-1.9-6.2 0-1.8-.6-2.5-2.2-2.8-1.3-.2-2.4-1.1-2.6-2-.3-1.6.6-1.9 6.5-2.7.7 0 3.2.3 5.5.9zm-114.1.6c1.5.4 1.5.9.2 4.7-.8 2.3-1.7 6.6-2 9.5l-.6 5.3-6.6-.3-6.6-.3-.1-8.5c0-4.7.3-9 .7-9.5.8-1.1 12.2-1.8 15-.9zm21.6.9c17.2.8 17.1.8 16.5 4.5-.2 1.6-.1 5.6.3 8.8.7 5.3.8 5.5 1.7 2.7.4-1.7.6-5.8.4-9.3l-.4-6.3 6.6.3 6.7.3.3 7.3c.2 6.2 0 7.3-1.5 7.8-1 .3-3.5 1.4-5.6 2.3-4 1.9-10.7 2-35.9.6-11-.7-14.4-1.6-9.9-2.8 1.5-.4 1.9-1.7 2.3-8.2.5-7.6 1.7-10.1 4.5-9 .7.2 7 .7 14 1zm-268.3 1c-.4.8-.8 1.5-1 1.5-.2 0-.4-.7-.4-1.5s.4-1.5 1-1.5c.5 0 .7.7.4 1.5zm399.6 2c.7.9 1.4 6.3 1.7 13.8l.6 12.3-2.7 1.8c-1.5.9-3.9 1.6-5.4 1.4-2.5-.3-2.9-1-4.8-8.3-1.9-6.9-3.7-12.3-6.8-19.7-.9-2.1.8-2.5 9.5-2.7 4.8-.1 7 .3 7.9 1.4zm-394.3 5.7c-.3.8-.6.5-.6-.6-.1-1.1.2-1.7.5-1.3.3.3.4 1.2.1 1.9zm348.3 17.3c0 1.4-.4 2.5-.9 2.5-.4 0-.6-1.1-.3-2.5.2-1.4.6-2.5.8-2.5.2 0 .4 1.1.4 2.5zm-4 .5c0 .5-.4 1-1 1-.5 0-1-.5-1-1 0-.6.5-1 1-1 .6 0 1 .4 1 1zm-16.5 5.6c.3 2.8 1.3 7.3 2.1 9.9.7 2.7 1.4 5.9 1.4 7.2 0 2.1-.4 2.4-3.2 2.1-3.3-.3-4-1.5-5.3-9.7-.4-2.7-3.9-5.8-7-6.3-2.2-.3-4.6-4.4-3.8-6.4.4-1.2 5.1-1.9 12.5-1.9 2.4 0 2.7.4 3.3 5.1zm-49.4.1c.8.8 1.1 4.2 1 9.7-.2 7.2 0 8.6 1.3 8.6.9 0 1.6-.9 1.6-2.1 0-1.1.5-1.7 1-1.4.6.3 1 .2 1-.4 0-.5-.4-1.3-1-1.6-.5-.3-1-3.1-1-6.1 0-5.2.2-5.5 2.3-5.2 2.1.3 2.2.7 2.1 9.3l-.2 9-7.8.3c-4.4.2-11.9-.4-16.9-1.2-4.9-.8-11.1-1.8-13.7-2.1-2.7-.3-4.8-1.2-4.9-1.8-.4-6 .5-15.3 1.4-16 1.9-1.3 32.4-.4 33.8 1zm-37.9 5.8c-.3 6.3-1.8 11.5-3.3 11.5-1.9 0-.8 2 1.4 2.4 1.2.3 5 1 8.5 1.7 8.5 1.6 9.1 2.7 8.2 14.9-.7 9.6-.4 13 1 13 .4 0 .9-4 1.2-9 .2-4.9.7-9.3 1.1-9.7.8-.7 24.4 1.2 28.5 2.3 2.8.8 2.9 4 .5 14.2l-1.7 7.4-7.1-.7c-3.8-.3-10-.6-13.7-.6-3.8-.1-7-.4-7.3-.9-.2-.4-2.5-.5-4.9-.3-4.4.5-20.3-1.3-22.3-2.5-.7-.5-1.2-9.4-1.5-24.5-.5-23.5-.4-23.9 1.6-24.8 1.2-.4 3.9-.7 6.1-.6l4 .2-.3 6zm161.3-3.5c2.2 1.1 4.6 1.9 5.3 2 .6 0 1.2.7 1.2 1.6 0 1.1.6 1.5 2 1.1 2.1-.5 2.7.7.9 1.9-1.5.9-20.8 1.1-22.2.2-.8-.5-.6-.8.6-.8.9 0 1.8-.6 1.8-1.3.1-.6.2-1.8.3-2.5.1-1.2 4.1-4.1 5.6-4.1.3 0 2.3.8 4.5 1.9zm-109 9.9c.4 2.4 1 3.9 1.4 3.2.4-.6.7.5.7 2.4 0 3.3-1.7 5.2-3.7 3.9-.5-.3-.9-4.2-.9-8.7.1-8.5 1.2-8.9 2.5-.8zm11.9-.9c2.3.8 2.6 1.5 2.6 5.4 0 8-1.6 9.3-6.5 5.4-2.4-1.9-2.6-2.6-2.1-6.1 1-6.1 1.4-6.5 6-4.7zm93.6 9.4c0 .2-.9 1.5-2.1 2.8-1.1 1.2-3.8 6.2-5.9 11-7.3 16.4-10.2 22.3-12.5 24.8-1.3 1.4-4.6 5.9-7.3 10-2.8 4.1-7.1 9.6-9.5 12.2-4.9 5.2-9.4 14-13.8 26.6-1.6 4.6-3.7 9.5-4.6 10.9-1.5 2.3-3.5 16.8-2.6 18.5.2.4 1.5.1 2.8-.8 1.3-.8 3.6-1.4 5.2-1.2 2.7.3 2.8.5 3 6.4.2 8.5-.1 8.8-7.5 7.3l-6.1-1.3-.6-4.5c-.3-2.5-1.1-6.7-1.7-9.4-.7-3.4-.7-5.1.1-6.1.7-.8 1.3-9.2 1.6-22.2.2-11.5.7-24 1.1-27.7.7-7.2 2.5-10.4 5.3-9.1.9.4 6.2 1 11.7 1.2l10.1.4.5-2.6c.3-1.6-.4-3.9-2.3-6.8-1.6-2.5-3.9-8.7-5.4-14.7-1.4-5.8-3.1-11.3-3.6-12.3-1.5-2.7-2.9-1.2-1.9 2 .5 1.5 1.1 6.5 1.5 11.1.6 9.2-.1 11.1-4.4 11.1-2.4 0-2.8-.5-3.9-5.3-1.4-6.2-1.6-20.5-.3-24 .7-1.9 2.1-2.6 6.7-3.5 3.1-.7 9-1.2 13.1-1.2 6.1 0 27.1-2.5 27.9-3.3.5-.4 5.4-.7 5.4-.3zm-59.2 25.3c.2 16.4 0 19.3-1.4 20.7-1.9 2-12.3 2.2-23.6.4l-7.8-1.1.1-15.6c.1-8.6.4-16.7.8-18 1.1-4.1 8.5-6.1 21.1-5.8l10.5.2.3 19.2zm-47 6.3c0 3.7-1.2 5.9-2.5 4.7-.8-.8.8-8.7 1.7-8.7.5 0 .8 1.8.8 4zM395 858c0 .5-.5 1-1.1 1-.5 0-.7-.5-.4-1 .3-.6.8-1 1.1-1 .2 0 .4.4.4 1zm3 2c0 .5-.5 1-1.1 1-.5 0-.7-.5-.4-1 .3-.6.8-1 1.1-1 .2 0 .4.4.4 1zm5 2.4c0 .2-.7.6-1.5 1-.8.3-1.5.1-1.5-.4 0-.6.7-1 1.5-1s1.5.2 1.5.4zm-11.3 3.8c-.3.8-.6.5-.6-.6-.1-1.1.2-1.7.5-1.3.3.3.4 1.2.1 1.9zM500.5 880c.3.6-.1.7-.9.4-1.8-.7-2.1-1.4-.7-1.4.6 0 1.3.4 1.6 1zm151.9 1.7c.4.9.2 2-.5 2.4-.8.4-.8 1.2-.1 2.4.9 1.7 1 1.7 1.6-.3.4-1.2 1.2-2.2 1.7-2.2s.9-.7.9-1.5.7-1.5 1.5-1.5 1.5.4 1.5 1c0 .9-3.7 8-9.6 18.5-1.3 2.2-3.5 6.4-4.9 9.4-1.9 3.8-2.9 5-3.5 4.1-.5-.8-.4-2.2.1-3.1 1.1-2.2 1.1-2.9 0-2.9-1 0-14.1 12.7-14.1 13.6 0 1.3-10.3 12.7-22 24.4-10.3 10.3-13.2 13.8-16.4 20.2l-3.9 7.7-1.9-2.5c-1.9-2.3-1.9-2.7-.4-6.4.8-2.2 2.4-4.9 3.3-6.1 3.3-4.1 14.5-14.9 15.3-14.9.5 0 1.7-1.4 2.7-3 .9-1.7 2.2-3 2.8-3 .7 0 2.6-2.1 4.3-4.8 1.7-2.6 4.3-6 5.7-7.6 1.4-1.6 2.5-3.2 2.5-3.5 0-.3 2.3-3.1 5.1-6.1 5.1-5.5 12.9-15.4 12.9-16.4 0-1.5 9.2-14.7 11-15.8 1.1-.7 2-1.8 2-2.5 0-1.9 1.7-1.6 2.4.4zm312.8 1c1 .9 1.8 2.2 1.8 2.9 0 1.4.9 1.7 10.8 3.3 5.2.8 6.7 1.6 9 4.2 6.2 7.4 5.3 8.7-4.7 7.1-3.8-.7-9.5-1.2-12.6-1.2h-5.6l.2-7.8c.2-6.7 0-7.7-1.5-7.4-.9.2-1.6-.4-1.6-1.3 0-2 1.9-1.9 4.2.2zm-469.8 1.7c-.6 1.5-2.4 2.3-2.4 1.1 0-.8 2.4-3.4 2.8-3 .1.1 0 1-.4 1.9zm-4 5.1c-.4.8-.8 1.5-1 1.5-.2 0-.4-.7-.4-1.5s.4-1.5 1-1.5c.5 0 .7.7.4 1.5zm-3 5.3c-1.6.4-1.9 2.2-.4 2.2.6 0 1 .4 1 1 0 .5-.9 1-2 1s-2 .7-2 1.5c0 .9-.6 1.2-1.5.9-2.1-.8-1.9-1.7.9-4.6 1.2-1.4 2.6-3.4 3.1-4.4.7-1.8.7-1.8 1.5.1.5 1.4.3 2.1-.6 2.3zm7.6-1.8c0 .5-.5 1-1.1 1-.5 0-.7-.5-.4-1 .3-.6.8-1 1.1-1 .2 0 .4.4.4 1zm500.4 12.2c3 4.3 2.1 5.8-3.4 5.8-3.9 0-5-.4-5-1.6 0-.9-.6-1.4-1.2-1.1-.7.2-1.2 1-1 1.6.1.6-.7 1.1-1.8 1.1-1.7 0-1.8-.3-.9-1.8 1.6-2.6 7.1-6.1 9.6-6.1 1.2-.1 2.9.9 3.7 2.1zM967 907c0 .5.7.7 1.5.4.8-.4 1.5-.1 1.5.5 0 .7.8.7 2.6.1 1.8-.7 2.3-.7 1.8.1-.3.6 0 1.5.7 2 .9.6.1.7-2.1.3-1.9-.3-4.5-.5-5.7-.5-1.6.1-2.3-.5-2.3-1.9 0-1.1.5-2 1-2 .6 0 1 .4 1 1zm16 0c0 .5-.7 1-1.5 1s-1.5-.5-1.5-1c0-.6.7-1 1.5-1s1.5.4 1.5 1zm-510.2 1.1c-1 .5-1.8 1.7-1.8 2.4 0 .8-.4 1.5-1 1.5-.5 0-1-.3-1-.7 0-1.1 3.3-4.3 4.4-4.3.6 0 .3.5-.6 1.1zm2.9 3.1c-.3 1.3-1.6 5.2-2.9 8.8-1.7 4.9-2.3 5.9-2.6 4.1-.2-1.3.2-2.7.9-3.1.6-.5.9-1.5.6-2.4-.4-.9-.3-1.6.1-1.6 1.1 0 3.4-5.8 2.7-7-.3-.5-.1-1 .6-1s.9.9.6 2.2zm503.7-.1c-.3.5-1 .7-1.5.3-.5-.3-.7-1-.3-1.5.3-.5 1-.7 1.5-.3.5.3.7 1 .3 1.5zM818 915c0 1.1-.7 2-1.5 2s-1.5-.9-1.5-2 .7-2 1.5-2 1.5.9 1.5 2zm-349 1.1c0 1.1-.4 1.7-1 1.4-.5-.3-1-1.3-1-2.1s.5-1.4 1-1.4c.6 0 1 .9 1 2.1zm-1.7 4.4c-.7 2.1-1.3 1.9-1.3-.6 0-1.1.4-1.8 1-1.4.5.3.7 1.2.3 2zm-1.6 6.7c-.3.8-.6.5-.6-.6-.1-1.1.2-1.7.5-1.3.3.3.4 1.2.1 1.9zm5.3 1.8c0 .5-.4 1-1 1-.5 0-1-.5-1-1 0-.6.5-1 1-1 .6 0 1 .4 1 1zm254 1.8c0 .5-1.5 1.6-3.2 2.5-1.8 1-5.2 2.9-7.6 4.3-2.4 1.4-4.9 2.3-5.5 2.1-1.4-.4 6.3-5.5 10.7-6.9 1.7-.6 3.5-1.5 4.1-1.9 1.1-1.1 1.5-1.1 1.5-.1zm51.5 10.2c.3.6-.1.7-.9.4-1.8-.7-2.1-1.4-.7-1.4.6 0 1.3.4 1.6 1zm-70 1c-.3.5-1 1-1.6 1-.5 0-.9-.5-.9-1 0-.6.7-1 1.6-1 .8 0 1.2.4.9 1zm66.8 8.7c-.9 2.5-6.1 7.5-7.3 7.1-1-.3 5.7-8.8 7.1-8.8.4 0 .5.8.2 1.7zM616 954.8c0 .3-.9-.3-2-1.3s-2-2.3-2-2.8c0-.6.9 0 2 1.3s2 2.5 2 2.8zm-2.5 1.8l2.6 2.6-1.7 5.6c-2.2 7.7-3.6 10.1-8.6 15.3-7.6 7.8-11.8 10.6-11.8 7.9 0-.6.7-1 1.5-1s1.5-.8 1.5-1.8.8-2.7 1.8-3.8c1.9-2 5.2-10.5 5.2-13.3 0-.9.7-2.9 1.5-4.5.8-1.5 1.5-3.4 1.5-4.1 0-.7.7-1.5 1.5-1.9.8-.3 1.5-1.2 1.5-2.1 0-2.1.5-1.9 3.5 1.1zM579 977.5c0 .8-.4 1.5-1 1.5-.5 0-1-.7-1-1.5s.5-1.5 1-1.5c.6 0 1 .7 1 1.5zm4.2-.3c-.7.7-1.2 2.1-1.2 3.2 0 1.5-.3 1.7-1.1.9-1.5-1.5-.2-5.3 1.9-5.3 1.2 0 1.3.3.4 1.2zm-96.6 8.2c1.1 2.3 1 2.4-.7 1.3-1.1-.7-1.9-1.7-1.9-2.4 0-2.1 1.4-1.5 2.6 1.1zm94.1.8c-.3.8-.6.5-.6-.6-.1-1.1.2-1.7.5-1.3.3.3.4 1.2.1 1.9zm8.4 4.8c-2.4 2.1-5.1 2.6-5.1 1.1 0-.5 1.2-1.4 2.8-1.9 4.2-1.6 4.9-1.3 2.3.8zm6.9 26.6c0 .8-.4 1.2-1 .9-.5-.3-1-1-1-1.6 0-.5.5-.9 1-.9.6 0 1 .7 1 1.6zm-23.3 3.1c-.3 1-.5.4-.5-1.2 0-1.7.2-2.4.5-1.8.2.7.2 2.1 0 3zm19.3-1.9c0 .4-.9 1.3-2 2-2.2 1.3-2.7.3-.8-1.6 1.4-1.4 2.8-1.6 2.8-.4zm-115.6 10.6c-.7 3-2.4 3.5-2.4.8 0-1.8 2-4.5 2.7-3.8.2.2.1 1.5-.3 3zm137.6-.4c0 .5-.7 1-1.6 1-.8 0-1.2-.5-.9-1 .3-.6 1-1 1.6-1 .5 0 .9.4.9 1zm-149.1 20.2c.8 2.5-.1 4.9-1.2 3.1-1.2-2.2-2.8-11.4-2.1-12.5.6-.9 1.1.1 1.6 2.7.5 2.2 1.2 5.2 1.7 6.7zm7.8 1.4c-.3.3-1.2.4-1.9.1-.8-.3-.5-.6.6-.6 1.1-.1 1.7.2 1.3.5zm-3.1 3c-.3.9-.6 1.8-.6 2 0 .2-.7.4-1.5.4s-1.5-.7-1.5-1.6c0-.8.5-1.2 1-.9.6.3 1 .1 1-.4 0-.6.5-1.1 1.1-1.1.6 0 .8.7.5 1.6z"/><path d="M611.8 97.7c.7.3 1.6.2 1.9-.1.4-.3-.2-.6-1.3-.5-1.1 0-1.4.3-.6.6zM506 128c0 .5.5 1 1 1 .6 0 1-.5 1-1 0-.6-.4-1-1-1-.5 0-1 .4-1 1zm-13 6c0 .5.7 1 1.5 1s1.5-.5 1.5-1c0-.6-.7-1-1.5-1s-1.5.4-1.5 1zm14 .9c0 .6.4 1.3 1 1.6.6.3.7-.1.4-.9-.7-1.8-1.4-2.1-1.4-.7zm-19 5.1c0 .5.5 1 1 1 .6 0 1-.5 1-1 0-.6-.4-1-1-1-.5 0-1 .4-1 1zm7 .8c0 .5.7 1.5 1.5 2.2.8.7 1.5.8 1.5.2 0-.5-.7-1.5-1.5-2.2-.8-.7-1.5-.8-1.5-.2zm-18 13.1c0 .6.5 1.3 1 1.6.6.3 1-.1 1-.9 0-.9-.4-1.6-1-1.6-.5 0-1 .4-1 .9zm-5.3 4.1c-1.2 1.2-1.5 2-.8 2.5.6.3 1.4-.1 1.7-.9.3-.9 1.3-1.6 2.1-1.6s1.1-.5.8-1c-.9-1.4-1.7-1.2-3.8 1zM637 110c0 .5.7 1 1.6 1 .8 0 1.2-.5.9-1-.3-.6-1-1-1.6-1-.5 0-.9.4-.9 1zm-126.4 42.5c.4.8.8 1.5 1 1.5.2 0 .4-.7.4-1.5s-.4-1.5-1-1.5c-.5 0-.7.7-.4 1.5zm-84-.8c-.7.7 1.3 3.3 2.5 3.3.5 0 .9-.6.9-1.4 0-1.5-2.4-2.8-3.4-1.9zM424 155c0 .5.5 1 1.1 1 .5 0 .7-.5.4-1-.3-.6-.8-1-1.1-1-.2 0-.4.4-.4 1zm-3 3.9c0 .5.7 1.1 1.5 1.5.9.3 1.5 0 1.5-.9 0-.8-.7-1.5-1.5-1.5s-1.5.4-1.5.9zm-4.5 2.1c-.3.5.1 1 .9 1 .9 0 1.6-.5 1.6-1 0-.6-.4-1-.9-1-.6 0-1.3.4-1.6 1zm-1.5 3.5c0 .8.7 1.5 1.5 1.5s1.5-.4 1.5-.9-.7-1.1-1.5-1.5c-.9-.3-1.5 0-1.5.9zm-4 2.4c0 .5.7 1.2 1.6 1.5 2.4.9 2.8.7 1.4-.9-1.4-1.7-3-2-3-.6zm-2.6 2.3c.5 2.1.3 2.8-.8 2.8-.8 0-1.6-.5-1.8-1.2-.3-.8-.6-.9-1.1-.1-.4.6.2 1.8 1.2 2.7 1.6 1.5 1.9 1.4 3.9-.7l2.2-2.4-2.1-1.9-2.2-1.9.7 2.7zm-5.6 5.4c-.4.3-.4 1.2-.1 2 .3.8 0 1.4-.6 1.4s-1.1-.4-1.1-.8c0-.5-.7-.9-1.5-.9-1.8 0-1.8.2-.5 2.8 1.4 2.5 3.2 2.4 4.8-.1 1.2-2 .3-5.8-1-4.4zm-7.1 6c-.4.4.3 1.6 1.6 2.6 2 1.8 2.2 1.8 2.5.3.5-2.3-2.6-4.4-4.1-2.9zm-3.1 2.3c-.6.9 2.6 5.1 3.8 5.1.3 0 .6-.8.6-1.8 0-1.9-3.6-4.6-4.4-3.3zm-3.1 3.1c-.3.6 0 1.7.8 2.5.9.8 1.8 2 2 2.7.4 1 .8.9 1.6-.2s.7-1.8-.4-2.6c-.8-.6-1.5-1.6-1.5-2.3 0-1.4-1.7-1.5-2.5-.1zM536 286c0 .5.7 1 1.6 1 1.4 0 1.4.3.4 1.5-1 1.2-1 1.5.4 1.5 2.1 0 2.1-3.6 0-4.4-2.1-.8-2.4-.8-2.4.4zm5.3 3.5c0 .7.6 1.1 1.4.8.7-.3 1.3-.6 1.3-.8 0-.2-.6-.5-1.3-.8-.8-.3-1.4.1-1.4.8zm1.2 7.5c.3.5 1 1 1.6 1 .5 0 .9-.5.9-1 0-.6-.7-1-1.6-1-.8 0-1.2.4-.9 1zm96 6c-.3.5-.1 1 .4 1 .6 0 1.1-.5 1.1-1 0-.6-.2-1-.4-1-.3 0-.8.4-1.1 1zm-4.8 2.4c-.6 1.6.2 2.8 1.4 2 1.2-.7 1.1-3.4 0-3.4-.5 0-1.1.6-1.4 1.4zm-6.6 1.2c0 1.1.3 1.4.6.6.3-.7.2-1.6-.1-1.9-.3-.4-.6.2-.5 1.3zm12.9 2.8c0 2.5.3 4.6.8 4.6 1.1 0 1.4-7.8.2-8.5-.6-.4-1 1.1-1 3.9zm-25.4 1.1c.4.8.8 1.5 1 1.5.2 0 .4-.7.4-1.5s-.4-1.5-1-1.5c-.5 0-.7.7-.4 1.5zm12.5.1c0 1.1.3 1.4.6.6.3-.7.2-1.6-.1-1.9-.3-.4-.6.2-.5 1.3zm13.4 5.4c.3.5.8 1 1.1 1 .2 0 .4-.5.4-1 0-.6-.5-1-1.1-1-.5 0-.7.4-.4 1zm-18.9.7c-1 1-.7 3.3.5 3.3.5 0 .8-.4.5-.9-.4-.5-.1-1.1.6-1.3.8-.3.9-.6.1-1.1-.5-.4-1.3-.4-1.7 0zm-174.9 26.5c-1 1.1-1.5 2.3-1.1 2.6.3.4.9.1 1.1-.6.3-.6 1.6-1.2 2.9-1.2 2.7 0 3.2-1.5.8-2.4-1.9-.7-1.5-.9-3.7 1.6zM442 347c0 .5.5 1 1 1 .6 0 1-.5 1-1 0-.6-.4-1-1-1-.5 0-1 .4-1 1zm-6.9 3.6c0 1.1.3 1.4.6.6.3-.7.2-1.6-.1-1.9-.3-.4-.6.2-.5 1.3zm123.4 7.4c-1.6.7-1.1.9 2 .9 2.9.1 3.6-.2 2.5-.9-1.7-1.1-1.9-1.1-4.5 0zm2.8 3.9c-1 1.6-.9 1.9.5 1.7.9-.2 1.8-1 2-1.9.5-2.3-1-2.1-2.5.2zm-6.3.1c0 .5.5 1 1 1 .6 0 1-.5 1-1 0-.6-.4-1-1-1-.5 0-1 .4-1 1zm-163 1.1c0 .5.5.7 1 .4.6-.3 1-.8 1-1.1 0-.2-.4-.4-1-.4-.5 0-1 .5-1 1.1zm6-.1c0 .5.5 1 1 1 .6 0 1-.5 1-1 0-.6-.4-1-1-1-.5 0-1 .4-1 1zm25.5 1.5c.7 3.3 1.2 4.1 2 3.3.3-.3-.2-1.8-1.1-3.4l-1.6-2.9.7 3zm106-1.5c.3.5 1.1 1 1.6 1 .6 0 .7-.5.4-1-.3-.6-1.1-1-1.6-1-.6 0-.7.4-.4 1zm6.5 0c0 .5.5 1 1 1 .6 0 1-.5 1-1 0-.6-.4-1-1-1-.5 0-1 .4-1 1zm12-.1c0 .5.5 1.3 1 1.6.6.3 1 .2 1-.4 0-.5-.4-1.3-1-1.6-.5-.3-1-.2-1 .4zM404 364c0 .5.5 1 1 1 .6 0 1-.5 1-1 0-.6-.4-1-1-1-.5 0-1 .4-1 1zm6 3.4c0 .8.5 1.8 1 2.1.6.3 1-.3 1-1.4 0-1.2-.4-2.1-1-2.1-.5 0-1 .6-1 1.4zm-19.2.3c.6.2 1.8.2 2.5 0 .6-.3.1-.5-1.3-.5-1.4 0-1.9.2-1.2.5zm170.5.8c0 .8.4 1.5.8 1.5s.9-.7 1.3-1.5c.3-.9 0-1.5-.8-1.5-.7 0-1.3.7-1.3 1.5zm-175.3.4c0 .6.4 1.3 1 1.6.6.3.7-.1.4-.9-.7-1.8-1.4-2.1-1.4-.7zm166.5.1c-.3.6.1 1.3.9 1.6.9.3 1.6 1.4 1.7 2.3.1.9.4.5.8-.9.5-1.4.6-2.8.4-3.3-.6-1-3.1-.9-3.8.3zm10.6 2.8c-.1.7-.5 1-1.1.7-.5-.3-1 0-1 .9 0 2.1 1.1 4.6 2 4.6 1.4 0 2-2.9 1-5.2-.5-1.3-.9-1.7-.9-1zM389 375c0 .5.5 1 1.1 1 .5 0 .7-.5.4-1-.3-.6-.8-1-1.1-1-.2 0-.4.4-.4 1zm33.6 2.7c-.4.9-.3 1.9.3 2.2.5.3 1.1 1.5 1.4 2.6.4 1.8.5 1.8.6-.3.1-1.2.7-2.2 1.6-2.2.8 0 1.5-.9 1.5-2 0-2.5-4.5-2.8-5.4-.3zm6.4.3c0 1.1.7 2 1.5 2s1.5-.5 1.5-1.1c0-.6.6-.9 1.3-.7 1.4.5 2 8.5.6 9.4-.5.3-.9 1.5-.8 2.7.1 2 .2 2 .9-.3l.8-2.5.2 2.5c.2 2.1.4 1.9 1.4-1.3.6-2.1 1.5-3.5 1.9-3.1.4.4.7.2.7-.4 0-.7-.7-1.2-1.6-1.2-1.2 0-1.5-.7-1.2-3 .3-2 0-3-.9-3-.7 0-1.3-.4-1.3-.8s-1.1-.9-2.5-1c-1.9-.1-2.5.3-2.5 1.8zm-12.7.9c-.9 1.1-2 1.8-2.5 1.5-.4-.3-.8-.1-.8.4 0 .6.7 1.2 1.5 1.6.9.3 1.5 0 1.5-.9 0-.8.9-1.5 2-1.5s2-.7 2-1.5c0-2.1-1.7-1.9-3.7.4zm138.7 2.5c0 .9.7 1.6 1.6 1.6.9 0 1.4-.5 1.2-1.2-.6-1.8-2.8-2.1-2.8-.4zm-132.1 4.8c-.6 2.1-.5 3.8.2 3.8.5 0 .9-.9.9-2 0-1.6-.7-2.8-1.1-1.8zm2.3 1.8c0 1.4.2 1.9.5 1.2.2-.6.2-1.8 0-2.5-.3-.6-.5-.1-.5 1.3z"/><path d="M430 388c0 1.1.5 2 1 2 .6 0 1-.9 1-2s-.4-2-1-2c-.5 0-1 .9-1 2zm273.8-.3c-.6 2.2.1 4.3 1.3 4.3.5 0 .9-1.4.9-3 0-3.3-1.5-4.1-2.2-1.3zm6.7-.7c.3.5.8 1 1.1 1 .2 0 .4-.5.4-1 0-.6-.5-1-1.1-1-.5 0-.7.4-.4 1zm11.5 1c0 1.1.5 2 1 2 .6 0 1-.9 1-2s-.4-2-1-2c-.5 0-1 .9-1 2zm6-1c0 .5.5 1 1 1 .6 0 1-.5 1-1 0-.6-.4-1-1-1-.5 0-1 .4-1 1zm-311.4.9c-.3.4.3 1.6 1.4 2.6 1.9 1.8 2 1.7 2-.8 0-2.6-2.2-3.8-3.4-1.8zm311.4 5.2c0 .5.5.7 1 .4.6-.3 1-.8 1-1.1 0-.2-.4-.4-1-.4-.5 0-1 .5-1 1.1zm11.6.1c.3.5 1 .6 1.5.3 1.3-.9 1.1-1.2-.6-1.2-.8 0-1.2.4-.9.9zM432 395.1c0 2.3 3.5 2.6 4.4.4.3-.8.2-1.5-.2-1.6-.4 0-1.5-.2-2.4-.4-1.2-.2-1.8.3-1.8 1.6zm272.6-.5c-.8 2 .3 4.4 1.8 3.8.6-.2 1.2-1.3 1.2-2.4 0-2.4-2.2-3.4-3-1.4zm-264.6.3c0 .6.4 1.2.8 1.5.5.3.9-.1.9-.9s-.4-1.5-.9-1.5c-.4 0-.8.4-.8.9zm271 1.1c0 1.1.4 2 .9 2s.7-.9.4-2c-.3-1.1-.7-2-.9-2-.2 0-.4.9-.4 2zm-287-.1c0 .6.5 1.3 1 1.6.6.3 1-.1 1-.9 0-.9-.4-1.6-1-1.6-.5 0-1 .4-1 .9zm296.7.6c-.8.8-1.7 1.1-2.1.8-.3-.3 0 .6.7 2 1.5 3.2 3.6 3.9 6.8 2.1l2.4-1.3-2.2-.1c-1.8 0-2.3-.6-2.3-2.5 0-2.8-1.2-3.2-3.3-1zm12.1.2c-1 .3-1.8 1.1-1.8 1.9 0 .8-.4 1.4-.9 1.4s-1.1.9-1.4 1.9c-.5 2.2 1.9 2.3 3.3.1.6-1 1.1-.8 2.1.9 1.1 1.6 2.4 2.1 5.6 2.1 2.4 0 4.3-.5 4.3-1 0-.6-1.8-1-4-1-3.8 0-4-.2-4-2.9 0-3.3-.6-3.9-3.2-3.4zm13.5 3.8c0 .9.4 1.4.9 1.3.5-.2 1-.8 1-1.3s-.5-1.1-1-1.3c-.5-.1-.9.4-.9 1.3zm-35.1.7c-1.4 1.4-1.6 2.8-.3 2.8.9 0 2.4-3 1.8-3.6-.2-.2-.9.2-1.5.8zm4.2 0c-.4.6-.3.8.4.4.5-.3 1.2-.1 1.4.6.3.8.7.6 1.1-.5.7-2-1.7-2.4-2.9-.5zM433 403.1c-1.9.4-5.6.9-8.2 1.2-2.6.3-6.2 1.3-8 2.1-1.8.8-4.4 1.8-5.8 2.1-6.1 1.8-13 4.7-12.5 5.4.5.9 11.3-1.3 27-5.4 5.5-1.4 12-2.6 14.4-2.6 2.4 0 5.3-.5 6.5-.9 2-.8 2-.9-.4-1.1-2.6-.2-4.1-.5-5-.9-1.3-.6-4.8-.6-8 .1zm314.3 1.4c-.3.9-.3 1.8-.1 2.1.3.3.8-.4 1.1-1.6.6-2.3-.1-2.7-1-.5zm-42.8 2.5c-.3.5-.1 1 .4 1 .6 0 1.1-.5 1.1-1 0-.6-.2-1-.4-1-.3 0-.8.4-1.1 1zm54.5 0c0 1.5 3.8 3.2 4.5 2 .3-.5-.1-1-1-1s-1.3-.5-1-1c.3-.6-.1-1-.9-1-.9 0-1.6.4-1.6 1zm-52.5 3c-.8 1.3-.1 2.4 1.4 1.9.6-.3.7-1 .2-1.8-.6-1-1-1-1.6-.1zm5.5 1.9c0 .5 1.1.8 2.4.7 1.3 0 2.2-.4 1.9-.9-.6-1-4.3-.9-4.3.2zm-73 40.6c0 .5.5 1.7 1 2.5s1 1 1 .5c0-.6-.5-1.7-1-2.5s-1-1.1-1-.5zm-277.9 11.1c0 1.1.3 1.4.6.6.3-.7.2-1.6-.1-1.9-.3-.4-.6.2-.5 1.3zm337.6 10.7c-.3.8-.2 1.9.3 2.6.5 1 .9.8 1.4-.4.3-.9.6-2.1.6-2.6 0-1.4-1.7-1.1-2.3.4zM644 477c0 .5.5 1 1 1 .6 0 1-.5 1-1 0-.6-.4-1-1-1-.5 0-1 .4-1 1zm6 6c0 .5.5 1 1 1 .6 0 1-.5 1-1 0-.6-.4-1-1-1-.5 0-1 .4-1 1zm109.1 90.6c0 1.1.3 1.4.6.6.3-.7.2-1.6-.1-1.9-.3-.4-.6.2-.5 1.3zm41.2 4.9c0 .8.4 1.2.9.9.5-.3.6-1 .3-1.5-.9-1.3-1.2-1.1-1.2.6zm6.6 3.6c-.2 3.3.2 10.6.8 13.4.5 2.4.7 2.6 1.2 1.2 1.2-3.2.2-13.9-1.4-15.5-.3-.3-.5.1-.6.9zm-6.8 6.6c.2 6.4 1.7 13.5 1.8 9 .1-1.2.5-1.6 1.4-1.1.7.5.6 0-.3-1.1-.8-1.1-1-1.6-.3-1.1 1 .5 1.3-.9 1.2-5.8-.1-5.8-.3-6.6-2.1-6.6-1.7 0-1.9.7-1.7 6.7zm13.3 2.9c.3.9.6 2.2.6 3 0 .8.5 1.4 1 1.4.6 0 1-1.4 1-3 0-2.1-.5-3-1.6-3s-1.4.5-1 1.6zm-5.5 17.1c-1.3 1.7-1.3 1.7.6.3 1.1-.8 2.2-1.6 2.4-1.7.2-.2 0-.3-.6-.3s-1.7.8-2.4 1.7zM185.5 301c.3.5 1 1 1.6 1 .5 0 .9-.5.9-1 0-.6-.7-1-1.6-1-.8 0-1.2.4-.9 1zm-89.3 56.2c-1.5 1.8.2 9.9 2.4 11.5 2.2 1.6 4.1 1.6 8.4.2 3.1-1.1 3.2-1.4 2.7-5.3-.4-2.5-1.4-4.8-2.7-5.8-2.6-2.1-9.3-2.4-10.8-.6zm9.6 5.5c.3 1.7-.3 2.4-2.2 2.9-3.3.8-4.6-.1-4.6-3.2 0-2.2.4-2.5 3.3-2.2 2.4.2 3.3.8 3.5 2.5zM299 613c0 .5.5 1 1 1 .6 0 1-.5 1-1 0-.6-.4-1-1-1-.5 0-1 .4-1 1zm-107 22.9c0 .5-.7 1.7-1.6 2.6-.9.9-1.4 1.8-1.1 2.1.3.3 1.5-.9 2.7-2.5 1.2-1.7 1.7-3.1 1.1-3.1-.6 0-1.1.4-1.1.9zM621.5 562c.3.5.8 1 1.1 1 .2 0 .4-.5.4-1 0-.6-.5-1-1.1-1-.5 0-.7.4-.4 1zm-26.5 4.4c0 .2.7.6 1.5 1 .8.3 1.5.1 1.5-.4 0-.6-.7-1-1.5-1s-1.5.2-1.5.4zm6.5.6c.3.5 1 1 1.6 1 .5 0 .9-.5.9-1 0-.6-.7-1-1.6-1-.8 0-1.2.4-.9 1zm1.7 6.5c0 1.6.2 2.2.5 1.2.2-.9.2-2.3 0-3-.3-.6-.5.1-.5 1.8zm-7-.4c.2.6.8 1 1.3 1s1.1-.4 1.3-1c.2-.6-.4-1.1-1.3-1.1s-1.5.5-1.3 1.1zm-9.2 2.7c0 1.5.4 2 1.6 1.5.9-.3 1.2-.9.7-1.2-.4-.3-1.1-1-1.5-1.5-.5-.5-.8 0-.8 1.2zm18 .6c0 .2.7.6 1.5 1 .8.3 1.5.1 1.5-.4 0-.6-.7-1-1.5-1s-1.5.2-1.5.4zm-21 3.6c0 .5.5 1 1 1 .6 0 1-.5 1-1 0-.6-.4-1-1-1-.5 0-1 .4-1 1zm-520 6c0 1.6.4 3 1 3 .5 0 .8-1.3.7-3-.3-3.9-1.7-3.9-1.7 0zm-12.4 57.9c-1 1.1-1.3 2.2-.8 2.5.6.3 1.2 0 1.5-.6.4-1 .7-1.1 1.8-.1 1.8 1.8 5.9 1.6 5.9-.1 0-1.7-.5-2.1-4.1-2.9-1.9-.5-3.1-.1-4.3 1.2zm-4.9 4.7c-1.4 1.4-.7 2.2 1.4 1.7 1.8-.5 2-.3 1.4 1.5-.5 1.7-.3 2.1.9 1.6 1.3-.5 3-3.3 2.4-4-.8-.8-5.5-1.4-6.1-.8zm10 3.4c.6 2.3 3.1 4.6 4 3.6.4-.4.3-1-.3-1.4-.6-.4-1.3-1.5-1.7-2.5-.9-2.4-2.6-2.2-2 .3zm4.3.1c0 .5.5.7 1 .4.6-.3 1-.8 1-1.1 0-.2-.4-.4-1-.4-.5 0-1 .5-1 1.1zm40.7-12.4c-.6 1-1 6.6-.7 10.8.1 2.6.2 2.7.9 1 1.5-3.6 2.4-12.5 1.3-12.5-.6 0-1.3.3-1.5.7zm903.9-1.7c-1.1.3-1.5.9-1 1.3 1 .6 4.2-.9 3.4-1.6-.3-.3-1.4-.1-2.4.3zm-7.6 1c0 .5.5 1 1 1 .6 0 1-.5 1-1 0-.6-.4-1-1-1-.5 0-1 .4-1 1zm.5 6c-.4.6-.4 1-.1 1 .2 0 1.1.3 2 .6.9.3 1.6.2 1.6-.4 0-1.4-2.8-2.3-3.5-1.2zm.6 6.6c0 1.1.3 1.4.6.6.3-.7.2-1.6-.1-1.9-.3-.4-.6.2-.5 1.3zM880 656.2c0 1.9.2 2 1 .8 1.3-1.9 1.3-3 0-3-.5 0-1 1-1 2.2zm90-7.1c0 .5.5.7 1 .4.6-.3 1-.8 1-1.1 0-.2-.4-.4-1-.4-.5 0-1 .5-1 1.1zm-80.4 84.7c-.8 1.3 1.1 3.5 2.3 2.8 1.6-1 1.4-3.6-.3-3.6-.8 0-1.7.4-2 .8zm17.9 1.2c-.3.5.1 1 1 1s1.3-.5 1-1c-.3-.6-.8-1-1-1-.2 0-.7.4-1 1zm7 0c.3.5.8 1 1.1 1 .2 0 .4-.5.4-1 0-.6-.5-1-1.1-1-.5 0-.7.4-.4 1zm115.5 49.4c0 2 .5 3.6 1 3.6.6 0 1-1.3 1-2.9 0-1.7-.4-3.3-1-3.6-.6-.4-1 .8-1 2.9zm-100.3-20.8c-1 1.1-.9 10.4.2 10.4.5 0 1.2-1.2 1.5-2.8.7-3.1-.6-8.7-1.7-7.6zm51.3 26.1c0 1 .4 1.4.8.8.4-.6 1.1-1.3 1.6-1.8.5-.4.2-.7-.7-.7-1 0-1.7.8-1.7 1.7zm23.6 143.2c-.4.7-.5 1.5-.2 1.8.9.9 1.9-.4 1.4-1.8-.4-1.1-.6-1.1-1.2 0zm-417.6 27c0 .6.5 1.3 1 1.6.6.3 1-.1 1-.9 0-.9-.4-1.6-1-1.6-.5 0-1 .4-1 .9zm-1.4 4c-.4.7-.5 1.5-.2 1.8.9.9 1.9-.4 1.4-1.8-.4-1.1-.6-1.1-1.2 0zm-2.4 4c.2.7.7 1.2 1.1 1.2 1.2-.1.9-1.5-.3-2-.7-.2-1.1.2-.8.8zm26.6-7.4c-1 1.3-1.5 3.1-1.2 3.9.9 2.4 2.4 1.9 2.4-.8 0-1.3.6-2.6 1.3-2.9.8-.3.9-.8.2-1.5s-1.5-.3-2.7 1.3zM998.5 86c-.4.6-.3 1.6.3 2.2.6.6 1.2.6 1.7-.2.4-.6.3-1.6-.3-2.2-.6-.6-1.2-.6-1.7.2zm4.5.9c0 1.2 5 4.4 5.7 3.7.3-.3-.2-.8-1.1-1.2-.9-.3-1.6-1.2-1.6-2s-.7-1.4-1.5-1.4-1.5.4-1.5.9zm-767.9 2.3c-6.3.4-11.7 1-11.9 1.3-.2.2-.7 2.5-1 5.1-.3 3.2-.7 4.2-1.3 3.1-1.3-2.3-5.6-2.9-9.2-1.3-1.8.9-5.4 2-8.1 2.6-2.7.6-5.9 2.1-7.1 3.3-1.3 1.2-7.3 6.2-13.5 11.2-6.7 5.4-13.8 12.2-17.7 17-7.9 9.7-9.3 12.3-7.2 13.6.8.5 23.4.9 54.9.9 29.4 0 54.2 0 55 .1 3.6.5 7-.2 8.4-1.6 2.2-2.3 3.7-1.8 3 .9l-.6 2.4 27.1.1c14.9.1 27.1-.1 27.1-.4 0-1-8.9-12.1-12.7-15.7-4.3-4.2-16.9-11.8-19.5-11.8-1.6 0-15.8 13.6-15.8 15.2 0 .5-.5.8-1.1.8-1.1 0 3.1-8 6-11.4 1.5-1.8 1.5-1.9-1.4-1.2-1.6.3-6.5.8-10.7.9-4.3.2-8.1.7-8.4 1-.4.4-1 4.3-1.4 8.7-.8 8.8-1.3 9.9-3.8 8.4-1.4-.9-1.8-3-2-10.8-.1-5.3-.7-9.6-1.1-9.6-.5 0-1.5.7-2.2 1.6-1.1 1.3-2.4 1.5-6.6 1-2.9-.3-5.3-.4-5.3 0 0 1 2.2 4.9 4 6.9 1 1.1 2 3.7 2.2 5.7l.4 3.6-3.1-2c-1.6-1.2-3.6-2.8-4.3-3.7-3.7-4.6-12.1-12.5-14.7-13.8-1.6-.8-4.2-2.8-5.6-4.4-1.4-1.5-3.8-3.3-5.2-3.8-3.2-1.2-5.8-8.4-3.8-10.4.9-.9 7.5-1.2 23.9-1.3l22.7-.1-.1-2.9c-.1-1.6-.2-4.1-.3-5.6-.1-2.2-.8-2.9-3.8-3.7-4.3-1.2-7.8-1.2-24.2.1zm-12.4 28.3c.8.8 1.9 1.5 2.4 1.5s.9.4.9 1c0 .5-2.1 1-4.7 1-4.4-.1-4.7-.2-2.9-1.5 1.1-.8 1.6-1.6 1-1.7-.5 0-1.3-.2-1.9-.3-.5-.2-1.4-.3-1.8-.4-.5 0-.5-.6-.1-1.2.8-1.3 5.1-.3 7.1 1.6zm48.1-25.8c.7.3 1.6.2 1.9-.1.4-.3-.2-.6-1.3-.5-1.1 0-1.4.3-.6.6zm-169.2 27.1c-2.4 2.3 1.2 6.4 9.5 11 2 1.1 4.5 2.6 5.6 3.2 1.5 1 2.5 1 3.9.2 1-.6 1.4-1.2.9-1.2-.6 0-3.8-2.6-7-5.8-5.5-5.3-11.6-8.8-12.9-7.4zm46.3 5.4c-.1 1.3-.1 4.8 0 8 .2 4.4-.1 5.8-1.5 6.6-1 .6-1.5 1.6-1.1 2.6.9 2.3 3.1 2 4.2-.6.6-1.2 2.1-2.5 3.3-2.8 2.2-.5 3.4-2.6 5.8-10 .4-1.1-.7-1.9-4-2.8-2.5-.6-4.6-1.6-4.6-2.2 0-2.1-2-.9-2.1 1.2zm202.1.2c0 1.4 3.1 6.6 3.9 6.6 1.4 0 .1-3.7-2-5.6-1-.9-1.9-1.4-1.9-1zm-228.5 3.3c.8 1.5 1.5 3.5 1.5 4.3 0 1.9 8.9 6 13.1 6 2.8 0 3-.2 1.8-1.6-1.4-1.7-4.7-3.9-13.1-8.8l-4.8-2.8 1.5 2.9zm241.5 1.2c0 1.2.5 2.1 1 2.1.6 0 1-.6 1-1.4 0-.8-.4-1.8-1-2.1-.5-.3-1 .3-1 1.4zm-6 4.1c0 .5.9 1 1.9 1 1.1 0 2.3-.5 2.6-1 .4-.6-.5-1-1.9-1s-2.6.4-2.6 1zm722.2 14c0 1.4.2 1.9.5 1.2.2-.6.2-1.8 0-2.5-.3-.6-.5-.1-.5 1.3zm-127.7 8.1c-7.1.4-16.4 1.2-20.5 1.8-4.1.6-15.6 1-25.5.8-15.5-.2-18.4 0-21.2 1.5-3.2 1.8-5 4.9-3.8 6.8 1.2 1.9 11.2 3.9 22.5 4.5 6.3.3 23.9 0 39-.7 39.1-1.8 134.1-1.8 136.3.1 1.6 1.2 1.7.7 1.7-6.9 0-6.9-.2-8.1-1.4-7.1-1.7 1.4-48.1.7-56.6-.8-5.8-1.1-48.7-1-70.5 0zM0 168v3h7.9c4.4 0 8.2-.4 8.5-.9.3-.5-2.4-1.4-6.1-2.1-3.7-.6-7.5-1.6-8.5-2.1-1.6-.8-1.8-.6-1.8 2.1zm554 .9c-1.9 1.1-15 7.7-29 14.6-23 11.5-31.9 15.5-41.7 18.7-1.8.6-4.7 2.4-6.5 3.8l-3.3 2.8 10-1.9c5.5-1.1 12.4-2.6 15.3-3.5 5.6-1.6 29.6-13 39.3-18.6 6-3.5 21.8-15.8 21.9-17.1 0-1.2-2.3-.7-6 1.2zm-384 8.7c0 .8.5 1.2 1 .9.6-.4.8-1.1.5-1.6-.9-1.4-1.5-1.1-1.5.7zm350.5 42.2c-2.7 1.5-5.2 2.9-5.5 3.2-.5.5-1.5 1-9.7 4.6-2.4 1.1-4.3 2.2-4.3 2.6 0 1.1.6 1 8.5-1.1 8.7-2.4 20-8.1 20-10.1 0-2.4-3.7-2.1-9 .8zM479 219c-2.5.4-7 1.7-10 2.7-3 1.1-7.7 2.5-10.3 3.2-4.9 1.2-18 7.1-17.3 7.8.2.3 3-.3 6.3-1.1 3.2-.9 9.6-2.5 14.3-3.5 8.8-2 33.1-8.9 33.9-9.7.7-.7-12-.2-16.9.6zm600.3 6.5c0 2.2.2 3 .4 1.7.2-1.2.2-3 0-4-.3-.9-.5.1-.4 2.3zm-202.9-.7c-5.8 2.4-10.2 6.1-8.5 7.1.7.5 5.8 1.1 11.4 1.5 14.2.9 26.7 2.4 44.7 5.2 8.5 1.3 24.5 3.1 35.5 3.9 11 .8 24.1 2 29 2.6 5 .6 26.6 1.2 48.1 1.4 21.6.2 40.1.6 41.3 1 2 .6 2.1.3 2.1-7.2-.1-5.9-.3-7.4-1.1-6-.9 1.6-3.3 1.7-30.4 1.7-16.2-.1-31-.4-32.9-.7-3-.5-3.4-.8-2.6-2.3.5-1 .6-2 .3-2.4-.3-.3.2-.6 1.3-.7 1 0 1.4-.3.7-.5-2.4-1-.2-3.4 2.6-2.8 1.8.5 2.3.3 1.6-.4-.7-.8-16.1-1.3-48.5-1.6-26.1-.2-57.2-.7-69-1-18.9-.5-22-.3-25.6 1.2zM.1 243c0 3.6.2 4.1 1 2.7.7-1.2.7-2.7 0-4.5-.9-2.5-.9-2.4-1 1.8zm985.4 43.5c-16.5 2.6-44.8 5.7-58.2 6.4-7.2.4-13.4.9-13.8 1.2-1.2 1.3.8 3.8 3.8 4.9 1.8.6 10.6 1.4 19.7 1.7 13.4.4 20.2.1 36-1.8 21.4-2.5 67.8-3.7 90.8-2.4 10.7.6 12.6 1 14.3 2.8 1.9 2.1 1.9 2.1 1.9-4.4v-6.4l-10.8.3c-5.9.2-19.5-.3-30.2-1.2-30.5-2.4-43.3-2.7-53.5-1.1zm-876 12.7c-.4 2-.4 4.1 0 4.7.9 1.6 3.2 1.3 3.9-.5.4-1 1.4-1.4 2.6-1.1 1.1.3 2 .1 2-.4s-.9-1-2-1c-1.1-.1-2.5-.2-3.2-.3-.7 0-1.5-1.2-1.9-2.6-.6-2.3-.7-2.2-1.4 1.2zM126 313c0 .5.5 1 1 1 .6 0 1-.5 1-1 0-.6-.4-1-1-1-.5 0-1 .4-1 1zm952.6 2.2c-1.5 9.4-2.6 39.2-2.6 72.2.1 36.7 1 56 3 58 .7.7 1-21.1 1-66.2 0-37-.2-67.2-.5-67.2-.2 0-.6 1.5-.9 3.2zM143 317c0 .5.5 1 1 1 .6 0 1-.5 1-1 0-.6-.4-1-1-1-.5 0-1 .4-1 1zM0 352.1c0 13.5.3 17 1.2 16.1.7-.7 2-1.2 2.9-1.2 1 0 3-1.1 4.5-2.3 2.6-2.2 2.8-3 3.3-13.1.3-5.9.3-11.3-.2-12.1-.4-.7-2.6-1.6-5-2-2.3-.4-4.8-1.2-5.4-1.7-1-.8-1.3 2.5-1.3 16.3zm948.6 52.1c-1.2 13.5-2.9 24.9-3.8 25.4-.8.5-16.8-14.9-16.8-16.2 0-.8-3.2-3.3-4.2-3.4-1.6 0-.7 2.9 1 3.5 1.8.6 11.2 14.4 11.2 16.4 0 .6.4 1.1.9 1.1.9 0 10.7 11.6 17.1 20.2 1.4 1.8 4.4 5.2 6.7 7.6 2.4 2.4 4.3 4.7 4.3 5.3 0 2.1 8.4 9.9 11.9 10.9 2.2.7 20.5 1.3 47.1 1.6 23.9.2 46.3.6 49.8.8l6.2.4v-14.7l-36.9.4c-40.5.5-70.5-.5-74.2-2.6-2.3-1.3-2.3-1.3 1.8-2 5.7-1 63.5-1.7 84.3-1 19.8.7 25.3.4 24.7-1.2-.3-.7-1.1-1.1-1.8-.9-3.1.8-49 .1-56-.8-4.2-.5-18-.7-30.5-.5-12.6.3-24.7.1-26.9-.5-2.8-.6-5.1-2.2-7.7-5.2-2.1-2.4-3.8-4.8-3.8-5.4 0-.6-1-2.4-2.2-3.9-2-2.6-2.1-3.3-1.5-22.6.3-10.9.4-19.9.2-19.9-.1 0-.6 3.3-.9 7.2zm-32.6-2.5c0 1.6 5.9 7.7 6.7 6.9.4-.4-1-2.3-3-4.4-2-2-3.7-3.2-3.7-2.5zM0 433.4c0 2.2 4.8 2.8 20.5 2.3 19.8-.7 23.4-2.5 4.5-2.3-8 0-16.9-.3-19.7-.7-4.4-.6-5.3-.5-5.3.7zm902 7.1c0 .3 1.1 1.6 2.4 2.8 1.3 1.2 2.7 3.8 3.1 5.7.4 1.9 1.1 4.1 1.6 5 .4.8 1 2.3 1.3 3.3.3 1 1 1.6 1.5 1.2.5-.3 1.2-.1 1.6.5.3.6 0 1.3-.8 1.6-2.8 1-1.3 2.9 2.6 3.1 3 .2 3.7 0 2.9-1-.5-.6-1.5-3.2-2.2-5.6-.6-2.4-2.2-5.3-3.6-6.6-1.3-1.2-2.4-3-2.4-3.9 0-1.1-.4-1.4-1.2-1-.9.6-.9.3 0-.9 1.2-1.4.9-1.8-2.3-3.2-4.1-1.7-4.5-1.7-4.5-1zM44.5 454c-.4.6.3 1 1.4 1 2.5 0 2.7-.6.6-1.3-.8-.4-1.7-.2-2 .3zm-11 9c-.4.6.5 1 2 1s2.4-.4 2-1c-.3-.6-1.2-1-2-1s-1.7.4-2 1zm884.5 2.6c-1.4.2-7 .6-12.5 1-8 .5-9.5.8-7.5 1.6 3.5 1.4 24.9 1.4 28 0 2.4-1 2.4-1.1.3-1.1-1.2-.1-2.5-.6-2.8-1.1-.3-.6-1.2-.9-1.8-.9-.7.1-2.3.3-3.7.5zM42.1 604.9c-1.6.4-2.8 1.9-3.8 4.6-1.9 5.6-1 6.7 1.5 1.9 1.2-2.3 3-4.4 4.2-4.7 1.1-.3 2-1 2-1.6 0-1.2-.3-1.2-3.9-.2zm95.7 71.8c.6.2 1.8.2 2.5 0 .6-.3.1-.5-1.3-.5-1.4 0-1.9.2-1.2.5zm2.6 13.8c-.5 2.9-1 3.5-3.3 3.5-1.4 0-3.3.5-4.1 1.1-1.1.7-.3.9 2.8.5 5.6-.7 5.9-.9 6.4-5.1.5-4.5-.9-4.6-1.8 0zm768.7 11.1c0 1.1.3 1.4.6.6.3-.7.2-1.6-.1-1.9-.3-.4-.6.2-.5 1.3zM0 732.9c0 12.1.3 15.1 1.2 14.4.7-.6 4.9-1.6 9.3-2.2 13.5-2.1 14.9-2.6 16.5-6.6 2.3-5.8 4-3.9 4 4.4 0 4.5-2.3 9.1-4.6 9.1-.4 0-.3-.5.4-1.2s1.2-1.8 1.2-2.5c0-2.2-2.7-1.4-4.8 1.4-1.9 2.6-2.6 2.8-9 2.8-3.9 0-7.3.3-7.7.7-.4.4-2 .4-3.6.1l-2.9-.6v10.2c0 8.4.3 10.1 1.5 10.1.9 0 1.5.6 1.4 1.2-.1.7 0 2.2.1 3.3.2 1.7.3 1.6.9-.5.7-2.3.8-2.2 1.2 1.2.5 3.6.4 3.7-2.3 3.4l-2.8-.3v49.9c0 47.1.1 49.9 1.7 49.4 4.5-1.4 18-4.6 19.5-4.6 3.8 0 13.1-4.4 23-10.8 5.7-3.7 13.5-8 17.3-9.6 3.9-1.6 9.4-3.9 12.4-5.2 2.9-1.3 6.1-2.4 7.1-2.4s4.4-1.2 7.6-2.6c3.3-1.4 7.7-3.2 9.9-3.9 7.3-2.4 17.8-6.5 18.9-7.4.6-.5 4.9-2.9 9.6-5.3 4.7-2.5 16-8.4 25.1-13.1 9.1-4.8 19.1-9.6 22.2-10.6 3.1-1.1 7.1-2.6 8.9-3.4 11.8-5.1 23.9-8.7 29.1-8.7 2.6 0 10.5-1.5 22.2-4.2 6.2-1.4 22.6-9 24.5-11.3 1.4-1.7 1.3-1.7-.5-.7-2.1 1.2-13 4.6-18 5.7-1.6.3-6.4.8-10.5 1-8.9.5-30.5 2.4-33.8 3.1-1.2.2-2.7 1.6-3.2 2.9-1.2 3.1-4.2 3.2-6.3.2l-1.6-2.2v2.7c-.1 4.9-1.9 8-4.4 7.7-1.2-.2-3.7.7-5.6 1.9-1.9 1.1-3.8 1.9-4.1 1.7-.8-.5-.6-8.6.5-17.3l.7-6.4-3.8 2.4c-3.3 2.1-3.9 3.2-4.9 8.1-.6 3-.9 7.2-.7 9.3.3 2.7.1 3.5-.9 3.2-1.9-.6-2.7-4.1-2.8-12-.1-7-.7-8.3-3.1-6.8-1.2.7-1.5 3.8-1.7 14 0 7.2-.3 13.3-.5 13.4-.1.2-4.3 2.7-9.3 5.5-10.9 6.3-12.2 7.1-15.9 9.5-2.1 1.4-3.1 1.6-3.4.8-.6-1.8-1.8-1.5-6.4 1.8-2.2 1.6-4.8 3-5.7 3-.9 0-2.6.7-3.8 1.5-1.2.9-6.2 2.8-11 4.4-4.8 1.6-10.4 3.6-12.4 4.4-5.4 2.4-6.4 1.2-5-6.5 1.3-7.7 1.4-9.8.2-9.8-.8 0-4.4 14.8-4 16.6.5 2.1-1.5 4.3-5.4 5.9-2.3 1-5.6 2.5-7.4 3.3-1.8.9-3.5 1.4-3.8 1-.3-.3-.9-2.5-1.3-4.9l-.8-4.4-.7 5.2c-.6 4.3-1.3 5.7-4.1 7.8-1.8 1.4-3.6 2.5-3.9 2.5-1 0-.8-9.3.4-17.3 1.5-10.3 7.8-31.6 10-34.1.7-.8 42.9-.9 61.1-.1 6.4.2 19.7-1 21.5-2 .1-.1.5-4.4.9-9.6.3-5.1 1.1-9.7 1.7-10.1.6-.3-.6-1-2.7-1.3-3.9-.8-43.6-.9-71.4-.3-9 .2-16.6 0-16.8-.4-.2-.4 1-.8 2.8-1 2.8-.3 3.3-.8 3.9-3.8 1.2-5.5 3.3-52.2 2.6-55.1-.5-2-1.3-2.6-3.4-2.7-1.6-.1-12.2-.4-23.8-.7-11.6-.3-24.5-.6-28.7-.8l-7.8-.2v15.4zm50-2.4c0 .8-.5 4.9-1.1 9.1-1.2 7.7-3.7 12.2-6.1 10.8-.7-.4-.5-1 .6-1.6.9-.5 1.6-1.6 1.6-2.3 0-1.8-2-2-2.1-.3 0 .7-.4.4-.8-.7-.8-1.9-.7-7.5.2-12 .2-1.1-.3-2.5-1.2-3.2-1.3-1-.7-1.2 3.7-1.3 3.9 0 5.2.4 5.2 1.5zm-11 12.9c0 3-.4 5.7-.9 6-.9.6-2.2-9.3-1.4-10.7 1.3-2.1 2.3-.1 2.3 4.7zm-10.3 13.2c-.3.3-1.2.4-1.9.1-.8-.3-.5-.6.6-.6 1.1-.1 1.7.2 1.3.5zM22.5 781c-.3.5-1 1-1.6 1-.5 0-.9-.5-.9-1 0-.6.7-1 1.6-1 .8 0 1.2.4.9 1zm91.5 4.5c0 .8-.4 1.5-1 1.5-.5 0-.7.6-.4 1.4.3.7-.2 1.6-1.2 2-1.2.5-1.5.2-1-1 .3-.8.6-2.4.6-3.5 0-1 .7-1.9 1.5-1.9s1.5.7 1.5 1.5zm25 4.4c0 2.2-.4 4.3-1 4.6-.6.4-1-1.2-1-3.9 0-2.5.5-4.6 1-4.6.6 0 1 1.8 1 3.9zm26 13c0 .9-2.4 2.1-4.1 2.1-1.4 0 1.4-2.9 2.9-3 .6 0 1.2.4 1.2.9zM49.4 805c3.9 1.4 3.5 6-.8 10.7-7.4 8.2-11.2 22.5-10.2 38 .5 8.5.4 10.4-.9 11.7-.9.9-2.3 1.6-3.1 1.6-.8 0-1.4.3-1.4.8 0 1.7-7.1 4.3-14 5.1-4.1.5-7.8.6-8.2.4-1.2-.7-.9-6.2.8-14.3.8-4.1 2.4-12.7 3.5-19 3.2-19.4 5.8-26.9 11.7-33.3 2.4-2.5 3.1-2.7 11.3-2.7 4.8 0 9.9.4 11.3 1zm-41.9 8.9c-.3.6-1.1.8-1.7.5-.6-.4-.5-.9.3-1.5 1.6-1 2.3-.4 1.4 1zm997.7-84.9l.1 7.5 1-5.3c.7-3.6.7-5.9-.1-7.5-.9-1.8-1.1-.7-1 5.3zm-714.7 36c-.9 1.5-.1 2.3 2.1 1.8 1.5-.3 1.6-.4.1-1.6-1.1-.9-1.7-1-2.2-.2zm-113.2 93.2c1.1 2.9 3 6.9 4.2 8.8 1.1 1.9 2.7 4.8 3.5 6.5 2.7 5.4 10.9 16.9 17.5 24.5 10.2 11.8 20.4 25.1 32.3 42.4 3 4.3 7.5 10.5 10.1 13.7 2.6 3.2 5.4 7.1 6.1 8.6.8 1.5 4.8 7.8 8.9 14 12 17.8 15.3 22.8 19.6 29.9 2.2 3.7 5.5 8.7 7.4 11.3 1.9 2.5 4.6 6.9 6 9.6 2.7 5.2 6.3 10.6 9.2 13.9 1 1 2.3 3.2 3 5 .7 1.7 2.6 5.1 4.1 7.5 1.5 2.5 2.8 5.2 2.8 6.1 0 .9 1 2.5 2.1 3.6 1.2 1 2.6 3 3.1 4.4.6 1.4 1.2 2 1.5 1.3.2-.6-.3-2.5-1.1-4.2-.9-1.6-1.6-3.4-1.6-4 0-1.4-1.7-5.2-4-8.6-1.1-1.7-2.4-4.1-3-5.5-1.9-4.6-3.4-7.5-6.1-11.5-1.4-2.2-3.6-6.1-4.9-8.8-1.3-2.6-3.2-5.5-4.2-6.4-1-.9-1.8-2.4-1.8-3.4 0-1.8-2.7-7.4-4.7-9.6-.6-.7-1.4-2.6-1.8-4.3-.4-1.6-1.3-3-2.1-3s-1.4-.6-1.4-1.3c0-2.4-8.8-18.9-10.9-20.3-1.2-.9-2.8-3-3.6-4.7-1.6-3.4-2.4-4.8-6.7-11-1.6-2.2-2.8-4.5-2.8-5 0-.6-1.8-3.4-4-6.3s-4-5.5-4-5.8c0-.2-1.3-1.9-2.9-3.6-5.6-6.2-8.3-9.5-12.3-15-7.4-10.2-15.3-20.3-19.5-24.9-2.4-2.5-4.3-4.9-4.3-5.3 0-.4-2.1-3.2-4.7-6.2-5.8-6.5-7.7-9.3-16.8-23.5-6.3-9.8-10.3-14.1-13.3-14.1-.6 0-.1 2.3 1.1 5.2zM295 864c0 .6.4 1 .8 1s1.5 1.2 2.4 2.7c.9 1.6 4.4 5.9 7.7 9.8 3.3 3.8 8.4 10.7 11.3 15.3 2.9 4.6 7.6 11.7 10.3 15.9 2.8 4.2 6.2 9.7 7.6 12.2 8 14.2 11.1 19.9 17.3 32.1 3.7 7.4 8.8 17.1 11.3 21.5 5.2 9.3 17.3 32.8 22.2 43.3 4.1 8.5 6.1 10.8 6.1 6.8 0-1.5-.7-4.3-1.5-6.3s-2.2-6.3-3-9.7c-.9-3.4-2-7-2.4-8.1-.5-1.1-1.6-3.6-2.5-5.7-.9-2-1.6-3.9-1.6-4.3 0-1-8.1-17.5-11.2-22.8-1.5-2.6-2.8-5.4-2.8-6.2 0-.7-.4-1.5-.8-1.7-.9-.3-11.2-21-11.2-22.4 0-.6-1.3-3.1-3-5.7-1.6-2.6-3-5.2-3-5.8 0-.5-1.6-3.5-3.5-6.5s-3.5-5.6-3.5-5.9c0-.2-1.2-1.7-2.6-3.2-3.7-4-4.6-5.2-8.9-11.3-2.1-3-4.6-6.2-5.4-7.1-.9-.9-5-5.2-9.1-9.6-4.1-4.3-8.5-9-9.7-10.3-5-5.7-11.3-10.1-11.3-8zm569 77.4c0 .2.7.7 1.6 1 .8.3 1.2.2.9-.4-.6-1-2.5-1.4-2.5-.6zM.2 945c0 1.4.2 1.9.5 1.2.2-.6.2-1.8 0-2.5-.3-.6-.5-.1-.5 1.3zm-.1 6.6c0 1.1.3 1.4.6.6.3-.7.2-1.6-.1-1.9-.3-.4-.6.2-.5 1.3z"/><path d="M0 1017.4v62.6l190.3-.1c148-.1 188.3-.4 181.7-1.3-4.7-.7-17.5-1.3-28.5-1.4-11-.1-20.8-.5-21.7-.8-1-.3-1.9-1.5-1.9-2.7-.1-1.6-.3-1.4-.8.8-.6 2.8-1 3-4.6 2.9-61.1-2.3-183.9-2.7-203.4-.6-6.8.7-12.7 1-13.1.5-.5-.4-2-7.1-3.4-14.8-5.1-27.2-13-49.1-25.8-70.8-1.5-2.6-2.8-5.2-2.8-5.7 0-1.8-6.8-8-8.8-8-2.1 0-2.1.2.9 8.7 1.7 4.9 4.8 13.1 6.9 18.3 9 22.6 13.9 37.6 17.5 53.7 2.8 12.5 3.1 15.9 1.3 16.4-3 .9-78.8-.7-79.7-1.6-1-1-1.9-41.4-2.2-91.3-.1-14.4-.5-26.5-1-26.8-.5-.3-.9 26-.9 62zm614 5.6c0 .5.7 1 1.5 1s1.5-.5 1.5-1c0-.6-.7-1-1.5-1s-1.5.4-1.5 1zm9.4 3.7c.4.5 1.3.8 1.9.8.7 0 1.2.5 1.2 1.2 0 .6.3 1.5.8 1.9.4.4.7.1.7-.7 0-1.9-2-3.9-3.9-3.9-.8 0-1.1.3-.7.7zm18.1 2.3c-2.8.7-2.7.8 1.3.9 2.7.1 4.1-.3 3.7-.9-.7-1.1-.7-1.1-5 0zm-148 18c.3.5 1 1 1.6 1 .5 0 .9-.5.9-1 0-.6-.7-1-1.6-1-.8 0-1.2.4-.9 1zm-13.5 3.5c0 .8 2.7 3.5 3.4 3.5 1.4 0 .4-2-1.4-3-1.1-.6-2-.8-2-.5zm-2.4 7.3c-.4 1.3-.5 2.6-.2 2.9 1 1.1 1.8-.4 1.4-2.9l-.4-2.3-.8 2.3zm-7.6.6c0 .9.5 1.6 1 1.6.6 0 1-.4 1-.9 0-.6-.4-1.3-1-1.6-.5-.3-1 .1-1 .9zm7.8 6.3c.7.3 1.6.2 1.9-.1.4-.3-.2-.6-1.3-.5-1.1 0-1.4.3-.6.6zm182.2 12.5c-.3.3-9 .9-19.5 1.3-10.4.4-19.2.9-19.4 1.1-.2.2 21.6.4 48.5.3 29.6-.1 47.5-.4 45.4-1-3.9-.9-54.2-2.5-55-1.7zm-153.5 1.9c-2.2.3 14.5.6 37 .6 28.3 0 38.2-.3 32-.8-9.9-.9-62.6-.8-69 .2zm90.8.6c1.5.2 3.9.2 5.5 0 1.5-.2.2-.4-2.8-.4s-4.3.2-2.7.4zm16 0c1.5.2 3.7.2 5 0 1.2-.2 0-.4-2.8-.4-2.7 0-3.8.2-2.2.4zm108 0c1.5.2 3.7.2 5 0 1.2-.2 0-.4-2.8-.4-2.7 0-3.8.2-2.2.4z"/></svg>